<?xml version="1.0" encoding="utf-8" standalone="no"?>
<!DOCTYPE svg PUBLIC "-//W3C//DTD SVG 1.1//EN"
  "http://www.w3.org/Graphics/SVG/1.1/DTD/svg11.dtd">
<!-- Created with matplotlib (https://matplotlib.org/) -->
<svg height="360pt" version="1.1" viewBox="0 0 360 360" width="360pt" xmlns="http://www.w3.org/2000/svg" xmlns:xlink="http://www.w3.org/1999/xlink">
 <defs>
  <style type="text/css">
*{stroke-linecap:butt;stroke-linejoin:round;}
  </style>
 </defs>
 <g id="figure_1">
  <g id="patch_1">
   <path d="M 0 360 
L 360 360 
L 360 0 
L 0 0 
z
" style="fill:#ffffff;"/>
  </g>
  <g id="axes_1">
   <g id="patch_2">
    <path d="M 45 315 
L 324 315 
L 324 43.2 
L 45 43.2 
z
" style="fill:#ffffff;"/>
   </g>
   <g id="matplotlib.axis_1">
    <g id="xtick_1">
     <g id="line2d_1">
      <defs>
       <path d="M 0 0 
L 0 3.5 
" id="m38062af01e" style="stroke:#000000;stroke-width:0.8;"/>
      </defs>
      <g>
       <use style="stroke:#000000;stroke-width:0.8;" x="57.681818" xlink:href="#m38062af01e" y="315"/>
      </g>
     </g>
     <g id="text_1">
      <!-- 0.0 -->
      <defs>
       <path d="M 31.78125 66.40625 
Q 24.171875 66.40625 20.328125 58.90625 
Q 16.5 51.421875 16.5 36.375 
Q 16.5 21.390625 20.328125 13.890625 
Q 24.171875 6.390625 31.78125 6.390625 
Q 39.453125 6.390625 43.28125 13.890625 
Q 47.125 21.390625 47.125 36.375 
Q 47.125 51.421875 43.28125 58.90625 
Q 39.453125 66.40625 31.78125 66.40625 
z
M 31.78125 74.21875 
Q 44.046875 74.21875 50.515625 64.515625 
Q 56.984375 54.828125 56.984375 36.375 
Q 56.984375 17.96875 50.515625 8.265625 
Q 44.046875 -1.421875 31.78125 -1.421875 
Q 19.53125 -1.421875 13.0625 8.265625 
Q 6.59375 17.96875 6.59375 36.375 
Q 6.59375 54.828125 13.0625 64.515625 
Q 19.53125 74.21875 31.78125 74.21875 
z
" id="DejaVuSans-48"/>
       <path d="M 10.6875 12.40625 
L 21 12.40625 
L 21 0 
L 10.6875 0 
z
" id="DejaVuSans-46"/>
      </defs>
      <g transform="translate(49.730256 329.598437)scale(0.1 -0.1)">
       <use xlink:href="#DejaVuSans-48"/>
       <use x="63.623047" xlink:href="#DejaVuSans-46"/>
       <use x="95.410156" xlink:href="#DejaVuSans-48"/>
      </g>
     </g>
    </g>
    <g id="xtick_2">
     <g id="line2d_2">
      <g>
       <use style="stroke:#000000;stroke-width:0.8;" x="108.409091" xlink:href="#m38062af01e" y="315"/>
      </g>
     </g>
     <g id="text_2">
      <!-- 0.2 -->
      <defs>
       <path d="M 19.1875 8.296875 
L 53.609375 8.296875 
L 53.609375 0 
L 7.328125 0 
L 7.328125 8.296875 
Q 12.9375 14.109375 22.625 23.890625 
Q 32.328125 33.6875 34.8125 36.53125 
Q 39.546875 41.84375 41.421875 45.53125 
Q 43.3125 49.21875 43.3125 52.78125 
Q 43.3125 58.59375 39.234375 62.25 
Q 35.15625 65.921875 28.609375 65.921875 
Q 23.96875 65.921875 18.8125 64.3125 
Q 13.671875 62.703125 7.8125 59.421875 
L 7.8125 69.390625 
Q 13.765625 71.78125 18.9375 73 
Q 24.125 74.21875 28.421875 74.21875 
Q 39.75 74.21875 46.484375 68.546875 
Q 53.21875 62.890625 53.21875 53.421875 
Q 53.21875 48.921875 51.53125 44.890625 
Q 49.859375 40.875 45.40625 35.40625 
Q 44.1875 33.984375 37.640625 27.21875 
Q 31.109375 20.453125 19.1875 8.296875 
z
" id="DejaVuSans-50"/>
      </defs>
      <g transform="translate(100.457528 329.598437)scale(0.1 -0.1)">
       <use xlink:href="#DejaVuSans-48"/>
       <use x="63.623047" xlink:href="#DejaVuSans-46"/>
       <use x="95.410156" xlink:href="#DejaVuSans-50"/>
      </g>
     </g>
    </g>
    <g id="xtick_3">
     <g id="line2d_3">
      <g>
       <use style="stroke:#000000;stroke-width:0.8;" x="159.136364" xlink:href="#m38062af01e" y="315"/>
      </g>
     </g>
     <g id="text_3">
      <!-- 0.4 -->
      <defs>
       <path d="M 37.796875 64.3125 
L 12.890625 25.390625 
L 37.796875 25.390625 
z
M 35.203125 72.90625 
L 47.609375 72.90625 
L 47.609375 25.390625 
L 58.015625 25.390625 
L 58.015625 17.1875 
L 47.609375 17.1875 
L 47.609375 0 
L 37.796875 0 
L 37.796875 17.1875 
L 4.890625 17.1875 
L 4.890625 26.703125 
z
" id="DejaVuSans-52"/>
      </defs>
      <g transform="translate(151.184801 329.598437)scale(0.1 -0.1)">
       <use xlink:href="#DejaVuSans-48"/>
       <use x="63.623047" xlink:href="#DejaVuSans-46"/>
       <use x="95.410156" xlink:href="#DejaVuSans-52"/>
      </g>
     </g>
    </g>
    <g id="xtick_4">
     <g id="line2d_4">
      <g>
       <use style="stroke:#000000;stroke-width:0.8;" x="209.863636" xlink:href="#m38062af01e" y="315"/>
      </g>
     </g>
     <g id="text_4">
      <!-- 0.6 -->
      <defs>
       <path d="M 33.015625 40.375 
Q 26.375 40.375 22.484375 35.828125 
Q 18.609375 31.296875 18.609375 23.390625 
Q 18.609375 15.53125 22.484375 10.953125 
Q 26.375 6.390625 33.015625 6.390625 
Q 39.65625 6.390625 43.53125 10.953125 
Q 47.40625 15.53125 47.40625 23.390625 
Q 47.40625 31.296875 43.53125 35.828125 
Q 39.65625 40.375 33.015625 40.375 
z
M 52.59375 71.296875 
L 52.59375 62.3125 
Q 48.875 64.0625 45.09375 64.984375 
Q 41.3125 65.921875 37.59375 65.921875 
Q 27.828125 65.921875 22.671875 59.328125 
Q 17.53125 52.734375 16.796875 39.40625 
Q 19.671875 43.65625 24.015625 45.921875 
Q 28.375 48.1875 33.59375 48.1875 
Q 44.578125 48.1875 50.953125 41.515625 
Q 57.328125 34.859375 57.328125 23.390625 
Q 57.328125 12.15625 50.6875 5.359375 
Q 44.046875 -1.421875 33.015625 -1.421875 
Q 20.359375 -1.421875 13.671875 8.265625 
Q 6.984375 17.96875 6.984375 36.375 
Q 6.984375 53.65625 15.1875 63.9375 
Q 23.390625 74.21875 37.203125 74.21875 
Q 40.921875 74.21875 44.703125 73.484375 
Q 48.484375 72.75 52.59375 71.296875 
z
" id="DejaVuSans-54"/>
      </defs>
      <g transform="translate(201.912074 329.598437)scale(0.1 -0.1)">
       <use xlink:href="#DejaVuSans-48"/>
       <use x="63.623047" xlink:href="#DejaVuSans-46"/>
       <use x="95.410156" xlink:href="#DejaVuSans-54"/>
      </g>
     </g>
    </g>
    <g id="xtick_5">
     <g id="line2d_5">
      <g>
       <use style="stroke:#000000;stroke-width:0.8;" x="260.590909" xlink:href="#m38062af01e" y="315"/>
      </g>
     </g>
     <g id="text_5">
      <!-- 0.8 -->
      <defs>
       <path d="M 31.78125 34.625 
Q 24.75 34.625 20.71875 30.859375 
Q 16.703125 27.09375 16.703125 20.515625 
Q 16.703125 13.921875 20.71875 10.15625 
Q 24.75 6.390625 31.78125 6.390625 
Q 38.8125 6.390625 42.859375 10.171875 
Q 46.921875 13.96875 46.921875 20.515625 
Q 46.921875 27.09375 42.890625 30.859375 
Q 38.875 34.625 31.78125 34.625 
z
M 21.921875 38.8125 
Q 15.578125 40.375 12.03125 44.71875 
Q 8.5 49.078125 8.5 55.328125 
Q 8.5 64.0625 14.71875 69.140625 
Q 20.953125 74.21875 31.78125 74.21875 
Q 42.671875 74.21875 48.875 69.140625 
Q 55.078125 64.0625 55.078125 55.328125 
Q 55.078125 49.078125 51.53125 44.71875 
Q 48 40.375 41.703125 38.8125 
Q 48.828125 37.15625 52.796875 32.3125 
Q 56.78125 27.484375 56.78125 20.515625 
Q 56.78125 9.90625 50.3125 4.234375 
Q 43.84375 -1.421875 31.78125 -1.421875 
Q 19.734375 -1.421875 13.25 4.234375 
Q 6.78125 9.90625 6.78125 20.515625 
Q 6.78125 27.484375 10.78125 32.3125 
Q 14.796875 37.15625 21.921875 38.8125 
z
M 18.3125 54.390625 
Q 18.3125 48.734375 21.84375 45.5625 
Q 25.390625 42.390625 31.78125 42.390625 
Q 38.140625 42.390625 41.71875 45.5625 
Q 45.3125 48.734375 45.3125 54.390625 
Q 45.3125 60.0625 41.71875 63.234375 
Q 38.140625 66.40625 31.78125 66.40625 
Q 25.390625 66.40625 21.84375 63.234375 
Q 18.3125 60.0625 18.3125 54.390625 
z
" id="DejaVuSans-56"/>
      </defs>
      <g transform="translate(252.639347 329.598437)scale(0.1 -0.1)">
       <use xlink:href="#DejaVuSans-48"/>
       <use x="63.623047" xlink:href="#DejaVuSans-46"/>
       <use x="95.410156" xlink:href="#DejaVuSans-56"/>
      </g>
     </g>
    </g>
    <g id="xtick_6">
     <g id="line2d_6">
      <g>
       <use style="stroke:#000000;stroke-width:0.8;" x="311.318182" xlink:href="#m38062af01e" y="315"/>
      </g>
     </g>
     <g id="text_6">
      <!-- 1.0 -->
      <defs>
       <path d="M 12.40625 8.296875 
L 28.515625 8.296875 
L 28.515625 63.921875 
L 10.984375 60.40625 
L 10.984375 69.390625 
L 28.421875 72.90625 
L 38.28125 72.90625 
L 38.28125 8.296875 
L 54.390625 8.296875 
L 54.390625 0 
L 12.40625 0 
z
" id="DejaVuSans-49"/>
      </defs>
      <g transform="translate(303.366619 329.598437)scale(0.1 -0.1)">
       <use xlink:href="#DejaVuSans-49"/>
       <use x="63.623047" xlink:href="#DejaVuSans-46"/>
       <use x="95.410156" xlink:href="#DejaVuSans-48"/>
      </g>
     </g>
    </g>
    <g id="text_7">
     <!-- MDPF -->
     <defs>
      <path d="M 9.8125 72.90625 
L 24.515625 72.90625 
L 43.109375 23.296875 
L 61.8125 72.90625 
L 76.515625 72.90625 
L 76.515625 0 
L 66.890625 0 
L 66.890625 64.015625 
L 48.09375 14.015625 
L 38.1875 14.015625 
L 19.390625 64.015625 
L 19.390625 0 
L 9.8125 0 
z
" id="DejaVuSans-77"/>
      <path d="M 19.671875 64.796875 
L 19.671875 8.109375 
L 31.59375 8.109375 
Q 46.6875 8.109375 53.6875 14.9375 
Q 60.6875 21.78125 60.6875 36.53125 
Q 60.6875 51.171875 53.6875 57.984375 
Q 46.6875 64.796875 31.59375 64.796875 
z
M 9.8125 72.90625 
L 30.078125 72.90625 
Q 51.265625 72.90625 61.171875 64.09375 
Q 71.09375 55.28125 71.09375 36.53125 
Q 71.09375 17.671875 61.125 8.828125 
Q 51.171875 0 30.078125 0 
L 9.8125 0 
z
" id="DejaVuSans-68"/>
      <path d="M 19.671875 64.796875 
L 19.671875 37.40625 
L 32.078125 37.40625 
Q 38.96875 37.40625 42.71875 40.96875 
Q 46.484375 44.53125 46.484375 51.125 
Q 46.484375 57.671875 42.71875 61.234375 
Q 38.96875 64.796875 32.078125 64.796875 
z
M 9.8125 72.90625 
L 32.078125 72.90625 
Q 44.34375 72.90625 50.609375 67.359375 
Q 56.890625 61.8125 56.890625 51.125 
Q 56.890625 40.328125 50.609375 34.8125 
Q 44.34375 29.296875 32.078125 29.296875 
L 19.671875 29.296875 
L 19.671875 0 
L 9.8125 0 
z
" id="DejaVuSans-80"/>
      <path d="M 9.8125 72.90625 
L 51.703125 72.90625 
L 51.703125 64.59375 
L 19.671875 64.59375 
L 19.671875 43.109375 
L 48.578125 43.109375 
L 48.578125 34.8125 
L 19.671875 34.8125 
L 19.671875 0 
L 9.8125 0 
z
" id="DejaVuSans-70"/>
     </defs>
     <g transform="translate(170.445312 343.276563)scale(0.1 -0.1)">
      <use xlink:href="#DejaVuSans-77"/>
      <use x="86.279297" xlink:href="#DejaVuSans-68"/>
      <use x="163.28125" xlink:href="#DejaVuSans-80"/>
      <use x="223.583984" xlink:href="#DejaVuSans-70"/>
     </g>
    </g>
   </g>
   <g id="matplotlib.axis_2">
    <g id="ytick_1">
     <g id="line2d_7">
      <defs>
       <path d="M 0 0 
L -3.5 0 
" id="ma6298f0460" style="stroke:#000000;stroke-width:0.8;"/>
      </defs>
      <g>
       <use style="stroke:#000000;stroke-width:0.8;" x="45" xlink:href="#ma6298f0460" y="302.645455"/>
      </g>
     </g>
     <g id="text_8">
      <!-- 0 -->
      <g transform="translate(31.6375 306.444673)scale(0.1 -0.1)">
       <use xlink:href="#DejaVuSans-48"/>
      </g>
     </g>
    </g>
    <g id="ytick_2">
     <g id="line2d_8">
      <g>
       <use style="stroke:#000000;stroke-width:0.8;" x="45" xlink:href="#ma6298f0460" y="245.315777"/>
      </g>
     </g>
     <g id="text_9">
      <!-- 500 -->
      <defs>
       <path d="M 10.796875 72.90625 
L 49.515625 72.90625 
L 49.515625 64.59375 
L 19.828125 64.59375 
L 19.828125 46.734375 
Q 21.96875 47.46875 24.109375 47.828125 
Q 26.265625 48.1875 28.421875 48.1875 
Q 40.625 48.1875 47.75 41.5 
Q 54.890625 34.8125 54.890625 23.390625 
Q 54.890625 11.625 47.5625 5.09375 
Q 40.234375 -1.421875 26.90625 -1.421875 
Q 22.3125 -1.421875 17.546875 -0.640625 
Q 12.796875 0.140625 7.71875 1.703125 
L 7.71875 11.625 
Q 12.109375 9.234375 16.796875 8.0625 
Q 21.484375 6.890625 26.703125 6.890625 
Q 35.15625 6.890625 40.078125 11.328125 
Q 45.015625 15.765625 45.015625 23.390625 
Q 45.015625 31 40.078125 35.4375 
Q 35.15625 39.890625 26.703125 39.890625 
Q 22.75 39.890625 18.8125 39.015625 
Q 14.890625 38.140625 10.796875 36.28125 
z
" id="DejaVuSans-53"/>
      </defs>
      <g transform="translate(18.9125 249.114996)scale(0.1 -0.1)">
       <use xlink:href="#DejaVuSans-53"/>
       <use x="63.623047" xlink:href="#DejaVuSans-48"/>
       <use x="127.246094" xlink:href="#DejaVuSans-48"/>
      </g>
     </g>
    </g>
    <g id="ytick_3">
     <g id="line2d_9">
      <g>
       <use style="stroke:#000000;stroke-width:0.8;" x="45" xlink:href="#ma6298f0460" y="187.9861"/>
      </g>
     </g>
     <g id="text_10">
      <!-- 1000 -->
      <g transform="translate(12.55 191.785319)scale(0.1 -0.1)">
       <use xlink:href="#DejaVuSans-49"/>
       <use x="63.623047" xlink:href="#DejaVuSans-48"/>
       <use x="127.246094" xlink:href="#DejaVuSans-48"/>
       <use x="190.869141" xlink:href="#DejaVuSans-48"/>
      </g>
     </g>
    </g>
    <g id="ytick_4">
     <g id="line2d_10">
      <g>
       <use style="stroke:#000000;stroke-width:0.8;" x="45" xlink:href="#ma6298f0460" y="130.656423"/>
      </g>
     </g>
     <g id="text_11">
      <!-- 1500 -->
      <g transform="translate(12.55 134.455641)scale(0.1 -0.1)">
       <use xlink:href="#DejaVuSans-49"/>
       <use x="63.623047" xlink:href="#DejaVuSans-53"/>
       <use x="127.246094" xlink:href="#DejaVuSans-48"/>
       <use x="190.869141" xlink:href="#DejaVuSans-48"/>
      </g>
     </g>
    </g>
    <g id="ytick_5">
     <g id="line2d_11">
      <g>
       <use style="stroke:#000000;stroke-width:0.8;" x="45" xlink:href="#ma6298f0460" y="73.326745"/>
      </g>
     </g>
     <g id="text_12">
      <!-- 2000 -->
      <g transform="translate(12.55 77.125964)scale(0.1 -0.1)">
       <use xlink:href="#DejaVuSans-50"/>
       <use x="63.623047" xlink:href="#DejaVuSans-48"/>
       <use x="127.246094" xlink:href="#DejaVuSans-48"/>
       <use x="190.869141" xlink:href="#DejaVuSans-48"/>
      </g>
     </g>
    </g>
    <g id="text_13">
     <!-- Number of Designs -->
     <defs>
      <path d="M 9.8125 72.90625 
L 23.09375 72.90625 
L 55.421875 11.921875 
L 55.421875 72.90625 
L 64.984375 72.90625 
L 64.984375 0 
L 51.703125 0 
L 19.390625 60.984375 
L 19.390625 0 
L 9.8125 0 
z
" id="DejaVuSans-78"/>
      <path d="M 8.5 21.578125 
L 8.5 54.6875 
L 17.484375 54.6875 
L 17.484375 21.921875 
Q 17.484375 14.15625 20.5 10.265625 
Q 23.53125 6.390625 29.59375 6.390625 
Q 36.859375 6.390625 41.078125 11.03125 
Q 45.3125 15.671875 45.3125 23.6875 
L 45.3125 54.6875 
L 54.296875 54.6875 
L 54.296875 0 
L 45.3125 0 
L 45.3125 8.40625 
Q 42.046875 3.421875 37.71875 1 
Q 33.40625 -1.421875 27.6875 -1.421875 
Q 18.265625 -1.421875 13.375 4.4375 
Q 8.5 10.296875 8.5 21.578125 
z
M 31.109375 56 
z
" id="DejaVuSans-117"/>
      <path d="M 52 44.1875 
Q 55.375 50.25 60.0625 53.125 
Q 64.75 56 71.09375 56 
Q 79.640625 56 84.28125 50.015625 
Q 88.921875 44.046875 88.921875 33.015625 
L 88.921875 0 
L 79.890625 0 
L 79.890625 32.71875 
Q 79.890625 40.578125 77.09375 44.375 
Q 74.3125 48.1875 68.609375 48.1875 
Q 61.625 48.1875 57.5625 43.546875 
Q 53.515625 38.921875 53.515625 30.90625 
L 53.515625 0 
L 44.484375 0 
L 44.484375 32.71875 
Q 44.484375 40.625 41.703125 44.40625 
Q 38.921875 48.1875 33.109375 48.1875 
Q 26.21875 48.1875 22.15625 43.53125 
Q 18.109375 38.875 18.109375 30.90625 
L 18.109375 0 
L 9.078125 0 
L 9.078125 54.6875 
L 18.109375 54.6875 
L 18.109375 46.1875 
Q 21.1875 51.21875 25.484375 53.609375 
Q 29.78125 56 35.6875 56 
Q 41.65625 56 45.828125 52.96875 
Q 50 49.953125 52 44.1875 
z
" id="DejaVuSans-109"/>
      <path d="M 48.6875 27.296875 
Q 48.6875 37.203125 44.609375 42.84375 
Q 40.53125 48.484375 33.40625 48.484375 
Q 26.265625 48.484375 22.1875 42.84375 
Q 18.109375 37.203125 18.109375 27.296875 
Q 18.109375 17.390625 22.1875 11.75 
Q 26.265625 6.109375 33.40625 6.109375 
Q 40.53125 6.109375 44.609375 11.75 
Q 48.6875 17.390625 48.6875 27.296875 
z
M 18.109375 46.390625 
Q 20.953125 51.265625 25.265625 53.625 
Q 29.59375 56 35.59375 56 
Q 45.5625 56 51.78125 48.09375 
Q 58.015625 40.1875 58.015625 27.296875 
Q 58.015625 14.40625 51.78125 6.484375 
Q 45.5625 -1.421875 35.59375 -1.421875 
Q 29.59375 -1.421875 25.265625 0.953125 
Q 20.953125 3.328125 18.109375 8.203125 
L 18.109375 0 
L 9.078125 0 
L 9.078125 75.984375 
L 18.109375 75.984375 
z
" id="DejaVuSans-98"/>
      <path d="M 56.203125 29.59375 
L 56.203125 25.203125 
L 14.890625 25.203125 
Q 15.484375 15.921875 20.484375 11.0625 
Q 25.484375 6.203125 34.421875 6.203125 
Q 39.59375 6.203125 44.453125 7.46875 
Q 49.3125 8.734375 54.109375 11.28125 
L 54.109375 2.78125 
Q 49.265625 0.734375 44.1875 -0.34375 
Q 39.109375 -1.421875 33.890625 -1.421875 
Q 20.796875 -1.421875 13.15625 6.1875 
Q 5.515625 13.8125 5.515625 26.8125 
Q 5.515625 40.234375 12.765625 48.109375 
Q 20.015625 56 32.328125 56 
Q 43.359375 56 49.78125 48.890625 
Q 56.203125 41.796875 56.203125 29.59375 
z
M 47.21875 32.234375 
Q 47.125 39.59375 43.09375 43.984375 
Q 39.0625 48.390625 32.421875 48.390625 
Q 24.90625 48.390625 20.390625 44.140625 
Q 15.875 39.890625 15.1875 32.171875 
z
" id="DejaVuSans-101"/>
      <path d="M 41.109375 46.296875 
Q 39.59375 47.171875 37.8125 47.578125 
Q 36.03125 48 33.890625 48 
Q 26.265625 48 22.1875 43.046875 
Q 18.109375 38.09375 18.109375 28.8125 
L 18.109375 0 
L 9.078125 0 
L 9.078125 54.6875 
L 18.109375 54.6875 
L 18.109375 46.1875 
Q 20.953125 51.171875 25.484375 53.578125 
Q 30.03125 56 36.53125 56 
Q 37.453125 56 38.578125 55.875 
Q 39.703125 55.765625 41.0625 55.515625 
z
" id="DejaVuSans-114"/>
      <path id="DejaVuSans-32"/>
      <path d="M 30.609375 48.390625 
Q 23.390625 48.390625 19.1875 42.75 
Q 14.984375 37.109375 14.984375 27.296875 
Q 14.984375 17.484375 19.15625 11.84375 
Q 23.34375 6.203125 30.609375 6.203125 
Q 37.796875 6.203125 41.984375 11.859375 
Q 46.1875 17.53125 46.1875 27.296875 
Q 46.1875 37.015625 41.984375 42.703125 
Q 37.796875 48.390625 30.609375 48.390625 
z
M 30.609375 56 
Q 42.328125 56 49.015625 48.375 
Q 55.71875 40.765625 55.71875 27.296875 
Q 55.71875 13.875 49.015625 6.21875 
Q 42.328125 -1.421875 30.609375 -1.421875 
Q 18.84375 -1.421875 12.171875 6.21875 
Q 5.515625 13.875 5.515625 27.296875 
Q 5.515625 40.765625 12.171875 48.375 
Q 18.84375 56 30.609375 56 
z
" id="DejaVuSans-111"/>
      <path d="M 37.109375 75.984375 
L 37.109375 68.5 
L 28.515625 68.5 
Q 23.6875 68.5 21.796875 66.546875 
Q 19.921875 64.59375 19.921875 59.515625 
L 19.921875 54.6875 
L 34.71875 54.6875 
L 34.71875 47.703125 
L 19.921875 47.703125 
L 19.921875 0 
L 10.890625 0 
L 10.890625 47.703125 
L 2.296875 47.703125 
L 2.296875 54.6875 
L 10.890625 54.6875 
L 10.890625 58.5 
Q 10.890625 67.625 15.140625 71.796875 
Q 19.390625 75.984375 28.609375 75.984375 
z
" id="DejaVuSans-102"/>
      <path d="M 44.28125 53.078125 
L 44.28125 44.578125 
Q 40.484375 46.53125 36.375 47.5 
Q 32.28125 48.484375 27.875 48.484375 
Q 21.1875 48.484375 17.84375 46.4375 
Q 14.5 44.390625 14.5 40.28125 
Q 14.5 37.15625 16.890625 35.375 
Q 19.28125 33.59375 26.515625 31.984375 
L 29.59375 31.296875 
Q 39.15625 29.25 43.1875 25.515625 
Q 47.21875 21.78125 47.21875 15.09375 
Q 47.21875 7.46875 41.1875 3.015625 
Q 35.15625 -1.421875 24.609375 -1.421875 
Q 20.21875 -1.421875 15.453125 -0.5625 
Q 10.6875 0.296875 5.421875 2 
L 5.421875 11.28125 
Q 10.40625 8.6875 15.234375 7.390625 
Q 20.0625 6.109375 24.8125 6.109375 
Q 31.15625 6.109375 34.5625 8.28125 
Q 37.984375 10.453125 37.984375 14.40625 
Q 37.984375 18.0625 35.515625 20.015625 
Q 33.0625 21.96875 24.703125 23.78125 
L 21.578125 24.515625 
Q 13.234375 26.265625 9.515625 29.90625 
Q 5.8125 33.546875 5.8125 39.890625 
Q 5.8125 47.609375 11.28125 51.796875 
Q 16.75 56 26.8125 56 
Q 31.78125 56 36.171875 55.265625 
Q 40.578125 54.546875 44.28125 53.078125 
z
" id="DejaVuSans-115"/>
      <path d="M 9.421875 54.6875 
L 18.40625 54.6875 
L 18.40625 0 
L 9.421875 0 
z
M 9.421875 75.984375 
L 18.40625 75.984375 
L 18.40625 64.59375 
L 9.421875 64.59375 
z
" id="DejaVuSans-105"/>
      <path d="M 45.40625 27.984375 
Q 45.40625 37.75 41.375 43.109375 
Q 37.359375 48.484375 30.078125 48.484375 
Q 22.859375 48.484375 18.828125 43.109375 
Q 14.796875 37.75 14.796875 27.984375 
Q 14.796875 18.265625 18.828125 12.890625 
Q 22.859375 7.515625 30.078125 7.515625 
Q 37.359375 7.515625 41.375 12.890625 
Q 45.40625 18.265625 45.40625 27.984375 
z
M 54.390625 6.78125 
Q 54.390625 -7.171875 48.1875 -13.984375 
Q 42 -20.796875 29.203125 -20.796875 
Q 24.46875 -20.796875 20.265625 -20.09375 
Q 16.0625 -19.390625 12.109375 -17.921875 
L 12.109375 -9.1875 
Q 16.0625 -11.328125 19.921875 -12.34375 
Q 23.78125 -13.375 27.78125 -13.375 
Q 36.625 -13.375 41.015625 -8.765625 
Q 45.40625 -4.15625 45.40625 5.171875 
L 45.40625 9.625 
Q 42.625 4.78125 38.28125 2.390625 
Q 33.9375 0 27.875 0 
Q 17.828125 0 11.671875 7.65625 
Q 5.515625 15.328125 5.515625 27.984375 
Q 5.515625 40.671875 11.671875 48.328125 
Q 17.828125 56 27.875 56 
Q 33.9375 56 38.28125 53.609375 
Q 42.625 51.21875 45.40625 46.390625 
L 45.40625 54.6875 
L 54.390625 54.6875 
z
" id="DejaVuSans-103"/>
      <path d="M 54.890625 33.015625 
L 54.890625 0 
L 45.90625 0 
L 45.90625 32.71875 
Q 45.90625 40.484375 42.875 44.328125 
Q 39.84375 48.1875 33.796875 48.1875 
Q 26.515625 48.1875 22.3125 43.546875 
Q 18.109375 38.921875 18.109375 30.90625 
L 18.109375 0 
L 9.078125 0 
L 9.078125 54.6875 
L 18.109375 54.6875 
L 18.109375 46.1875 
Q 21.34375 51.125 25.703125 53.5625 
Q 30.078125 56 35.796875 56 
Q 45.21875 56 50.046875 50.171875 
Q 54.890625 44.34375 54.890625 33.015625 
z
" id="DejaVuSans-110"/>
     </defs>
     <g transform="translate(6.470312 227.051562)rotate(-90)scale(0.1 -0.1)">
      <use xlink:href="#DejaVuSans-78"/>
      <use x="74.804688" xlink:href="#DejaVuSans-117"/>
      <use x="138.183594" xlink:href="#DejaVuSans-109"/>
      <use x="235.595703" xlink:href="#DejaVuSans-98"/>
      <use x="299.072266" xlink:href="#DejaVuSans-101"/>
      <use x="360.595703" xlink:href="#DejaVuSans-114"/>
      <use x="401.708984" xlink:href="#DejaVuSans-32"/>
      <use x="433.496094" xlink:href="#DejaVuSans-111"/>
      <use x="494.677734" xlink:href="#DejaVuSans-102"/>
      <use x="529.882812" xlink:href="#DejaVuSans-32"/>
      <use x="561.669922" xlink:href="#DejaVuSans-68"/>
      <use x="638.671875" xlink:href="#DejaVuSans-101"/>
      <use x="700.195312" xlink:href="#DejaVuSans-115"/>
      <use x="752.294922" xlink:href="#DejaVuSans-105"/>
      <use x="780.078125" xlink:href="#DejaVuSans-103"/>
      <use x="843.554688" xlink:href="#DejaVuSans-110"/>
      <use x="906.933594" xlink:href="#DejaVuSans-115"/>
     </g>
    </g>
   </g>
   <g id="line2d_12">
    <path clip-path="url(#p06897b55be)" d="M 57.681818 302.645455 
L 57.681818 301.957498 
L 63.359608 301.957498 
L 63.359608 301.498861 
L 66.012488 301.498861 
L 66.012488 301.040224 
L 70.045138 301.040224 
L 70.045138 300.925564 
L 77.123949 300.925564 
L 77.123949 300.466927 
L 81.928935 300.466927 
L 81.928935 300.008289 
L 85.648424 300.008289 
L 85.648424 299.664311 
L 88.750361 299.664311 
L 88.750361 299.205674 
L 89.099124 299.205674 
L 89.099124 298.861696 
L 90.909888 298.861696 
L 90.909888 298.517718 
L 92.184001 298.517718 
L 92.184001 298.05908 
L 92.578215 298.05908 
L 92.578215 297.600443 
L 95.255479 297.600443 
L 95.255479 297.256465 
L 95.739979 297.256465 
L 95.739979 296.797827 
L 96.530638 296.797827 
L 96.530638 296.33919 
L 97.538417 296.33919 
L 97.538417 295.880553 
L 101.704451 295.880553 
L 101.704451 295.421915 
L 102.530555 295.421915 
L 102.530555 294.963278 
L 104.811127 294.963278 
L 104.811127 294.848618 
L 106.676937 294.848618 
L 106.676937 294.389981 
L 107.158687 294.389981 
L 107.158687 294.046003 
L 107.452568 294.046003 
L 107.540685 293.128728 
L 108.890342 293.128728 
L 108.890342 292.670091 
L 110.545671 292.670091 
L 110.545671 292.326113 
L 111.784861 292.326113 
L 111.784861 291.867475 
L 113.665664 291.867475 
L 113.665664 291.408838 
L 117.362293 291.408838 
L 117.362293 290.9502 
L 119.857173 290.9502 
L 119.857173 290.491563 
L 131.224663 290.491563 
L 131.266206 289.574288 
L 134.056403 289.574288 
L 134.056403 289.459629 
L 135.312512 289.459629 
L 135.420621 288.542354 
L 139.17716 288.542354 
L 139.17716 288.083717 
L 140.673685 288.083717 
L 140.673685 287.625079 
L 141.816194 287.625079 
L 141.816194 287.166442 
L 143.576964 287.166442 
L 143.576964 286.707804 
L 149.136036 286.707804 
L 149.136036 286.249167 
L 151.34847 286.249167 
L 151.34847 286.134507 
L 152.420504 286.134507 
L 152.420504 285.67587 
L 153.553781 285.67587 
L 153.553781 285.217233 
L 153.695708 285.217233 
L 153.695708 284.758595 
L 154.663261 284.758595 
L 154.663261 284.299958 
L 156.582096 284.299958 
L 156.582096 283.84132 
L 157.248985 283.84132 
L 157.248985 283.382683 
L 157.506726 283.382683 
L 157.53229 282.580067 
L 158.207703 282.580067 
L 158.207703 282.12143 
L 160.294255 282.12143 
L 160.294255 282.006771 
L 160.652476 282.006771 
L 160.652476 281.548133 
L 161.149383 281.548133 
L 161.149383 281.089496 
L 162.069896 281.089496 
L 162.069896 280.630858 
L 162.519279 280.630858 
L 162.519279 280.172221 
L 163.276904 280.172221 
L 163.276904 279.713584 
L 164.660262 279.713584 
L 164.660262 279.254946 
L 165.754692 279.254946 
L 165.754692 278.796309 
L 166.454202 278.796309 
L 166.514838 277.993693 
L 166.957182 277.993693 
L 166.957182 277.649715 
L 167.869541 277.649715 
L 167.879255 277.076418 
L 168.541212 277.076418 
L 168.541212 276.617781 
L 168.880574 276.617781 
L 168.880574 276.159144 
L 169.483724 276.159144 
L 169.505532 275.241869 
L 170.031264 275.241869 
L 170.031264 274.783231 
L 170.367091 274.783231 
L 170.367091 274.324594 
L 171.208241 274.324594 
L 171.208241 273.865957 
L 171.88403 273.865957 
L 171.88403 273.521978 
L 172.058066 273.521978 
L 172.058066 273.063341 
L 172.824025 273.063341 
L 172.853313 272.146066 
L 173.940764 272.146066 
L 173.940764 271.687429 
L 174.791116 271.687429 
L 174.798349 270.770154 
L 175.407864 270.770154 
L 175.407864 270.311517 
L 175.766718 270.311517 
L 175.766718 269.852879 
L 175.980624 269.852879 
L 175.980624 269.394242 
L 176.679936 269.394242 
L 176.679936 268.935604 
L 176.935686 268.935604 
L 176.935686 268.591626 
L 177.728184 268.591626 
L 177.769739 267.674351 
L 178.065871 267.674351 
L 178.065871 267.215714 
L 179.131579 267.215714 
L 179.131579 266.757077 
L 179.371317 266.757077 
L 179.454925 265.839802 
L 179.79403 265.839802 
L 179.79403 265.381164 
L 180.113844 265.381164 
L 180.211223 264.463889 
L 180.518695 264.463889 
L 180.518695 264.005252 
L 180.842955 264.005252 
L 180.842955 263.546615 
L 181.099895 263.546615 
L 181.099895 263.087977 
L 181.655731 263.087977 
L 181.692074 262.170702 
L 182.452333 262.170702 
L 182.490109 261.253428 
L 183.216269 261.253428 
L 183.216269 260.909449 
L 183.525224 260.909449 
L 183.525224 260.450812 
L 184.001594 260.450812 
L 184.001594 259.992175 
L 184.701236 259.992175 
L 184.701236 259.533537 
L 184.842875 259.533537 
L 184.842875 259.0749 
L 185.383316 259.0749 
L 185.383316 258.616262 
L 185.703751 258.616262 
L 185.703751 258.157625 
L 186.532263 258.157625 
L 186.532263 257.698988 
L 186.751815 257.698988 
L 186.801191 256.781713 
L 187.570653 256.781713 
L 187.660281 255.864438 
L 187.874374 255.864438 
L 187.874374 255.4058 
L 188.129468 255.4058 
L 188.129468 254.947163 
L 189.203738 254.947163 
L 189.203738 254.488526 
L 189.650728 254.488526 
L 189.650728 254.029888 
L 189.93634 254.029888 
L 189.93634 253.571251 
L 190.102276 253.571251 
L 190.102276 253.112613 
L 190.350746 253.112613 
L 190.453707 252.195339 
L 190.629306 252.195339 
L 190.640811 251.278064 
L 191.027466 251.278064 
L 191.027466 250.819426 
L 191.362151 250.819426 
L 191.362151 250.360789 
L 191.526249 250.360789 
L 191.613705 249.443514 
L 192.101898 249.443514 
L 192.101898 248.984877 
L 192.398265 248.984877 
L 192.50527 247.150327 
L 192.527135 247.150327 
L 192.620087 246.233052 
L 192.796494 246.233052 
L 192.796494 245.774415 
L 193.599598 245.774415 
L 193.599598 245.315777 
L 193.946895 245.315777 
L 193.946895 244.85714 
L 194.105046 244.85714 
L 194.105046 244.398502 
L 194.290984 244.398502 
L 194.290984 243.939865 
L 194.6085 243.939865 
L 194.6085 243.481228 
L 194.936167 243.481228 
L 194.936167 243.02259 
L 195.496808 243.02259 
L 195.496808 242.563953 
L 195.736083 242.563953 
L 195.736083 242.105315 
L 196.056964 242.105315 
L 196.056964 241.990656 
L 196.399828 241.990656 
L 196.399828 241.532019 
L 197.010936 241.532019 
L 197.055337 240.614744 
L 197.266838 240.614744 
L 197.266838 240.156106 
L 197.489167 240.156106 
L 197.489167 239.697469 
L 197.651416 239.697469 
L 197.651416 239.238831 
L 197.796431 239.238831 
L 197.796431 238.780194 
L 198.021608 238.780194 
L 198.102538 237.977579 
L 198.161344 237.977579 
L 198.186367 237.060304 
L 198.49879 237.060304 
L 198.49879 236.601666 
L 198.878213 236.601666 
L 198.984406 235.684391 
L 199.085072 235.684391 
L 199.085072 235.225754 
L 199.741797 235.225754 
L 199.741797 234.767117 
L 199.913706 234.767117 
L 199.913706 234.308479 
L 200.362677 234.308479 
L 200.362677 233.964501 
L 200.53584 233.964501 
L 200.57464 233.047226 
L 200.832591 233.047226 
L 200.912047 232.129951 
L 201.308666 232.129951 
L 201.317954 231.212677 
L 201.974722 231.212677 
L 201.974722 230.754039 
L 202.212354 230.754039 
L 202.212354 230.295402 
L 202.38385 230.295402 
L 202.41338 229.378127 
L 202.765206 229.378127 
L 202.765206 229.034149 
L 202.909921 229.034149 
L 202.954392 228.460852 
L 203.12602 228.460852 
L 203.144951 227.887555 
L 203.252718 227.887555 
L 203.337256 226.511643 
L 203.399255 226.511643 
L 203.399255 226.053006 
L 203.695934 226.053006 
L 203.708234 225.135731 
L 203.924085 225.135731 
L 204.026229 223.759819 
L 204.206963 223.759819 
L 204.206963 223.301181 
L 204.646123 223.301181 
L 204.646123 222.842544 
L 204.797241 222.842544 
L 204.797241 222.498566 
L 204.993175 222.498566 
L 204.993175 222.039928 
L 205.123633 222.039928 
L 205.213471 220.778675 
L 205.285108 220.778675 
L 205.285108 220.320038 
L 205.61639 220.320038 
L 205.61639 220.205379 
L 205.812191 220.205379 
L 205.837295 219.288104 
L 205.949438 219.288104 
L 205.949438 218.829466 
L 206.076879 218.829466 
L 206.076879 218.370829 
L 206.598069 218.370829 
L 206.598069 217.912192 
L 207.045762 217.912192 
L 207.101172 217.338895 
L 207.548525 217.338895 
L 207.548525 216.880257 
L 207.788118 216.880257 
L 207.788118 216.536279 
L 207.951404 216.536279 
L 207.951404 216.077642 
L 208.218427 216.077642 
L 208.218427 215.619004 
L 208.767744 215.619004 
L 208.767744 215.160367 
L 209.215221 215.160367 
L 209.263065 214.128433 
L 209.565438 214.128433 
L 209.623667 212.523202 
L 209.886578 212.523202 
L 209.899248 211.605927 
L 210.091916 211.605927 
L 210.103183 210.688652 
L 210.62742 210.688652 
L 210.62742 210.230015 
L 210.948722 210.230015 
L 210.948722 209.771377 
L 211.110107 209.771377 
L 211.219818 208.739443 
L 211.462069 208.739443 
L 211.535285 207.47819 
L 211.683073 207.47819 
L 211.683073 207.019553 
L 211.894479 207.019553 
L 211.894479 206.560915 
L 212.155182 206.560915 
L 212.263136 205.185003 
L 212.433779 205.185003 
L 212.433779 204.726366 
L 212.68174 204.726366 
L 212.68174 204.267728 
L 212.806753 204.267728 
L 212.90323 203.465113 
L 212.963668 203.465113 
L 212.963668 203.006475 
L 213.107313 203.006475 
L 213.107313 202.547838 
L 213.24636 202.547838 
L 213.24636 202.089201 
L 213.87703 202.089201 
L 213.87703 201.630563 
L 214.054946 201.630563 
L 214.066983 200.713288 
L 214.318261 200.713288 
L 214.318261 200.254651 
L 214.430248 200.254651 
L 214.516833 199.222717 
L 214.667931 199.222717 
L 214.767769 197.846804 
L 214.905761 197.846804 
L 214.916499 197.044189 
L 215.122589 197.044189 
L 215.122589 196.585552 
L 215.276338 196.585552 
L 215.276338 196.241574 
L 215.918558 196.241574 
L 215.991106 195.324299 
L 216.20413 195.324299 
L 216.275129 194.407024 
L 216.434373 194.407024 
L 216.434373 193.948386 
L 217.009691 193.948386 
L 217.087732 192.801793 
L 217.425104 192.801793 
L 217.425104 192.343155 
L 217.614974 192.343155 
L 217.614974 191.884518 
L 217.839921 191.884518 
L 217.839921 191.769859 
L 218.280484 191.769859 
L 218.280484 191.311221 
L 218.401125 191.311221 
L 218.487281 190.393946 
L 218.537606 190.393946 
L 218.562565 189.476672 
L 218.793325 189.476672 
L 218.793325 189.018034 
L 218.958913 189.018034 
L 219.057272 188.100759 
L 219.219327 188.100759 
L 219.219327 187.756781 
L 219.463788 187.756781 
L 219.574331 186.839506 
L 219.728868 186.839506 
L 219.728868 186.380869 
L 219.874914 186.380869 
L 219.874914 185.922232 
L 220.050057 185.922232 
L 220.050057 185.463594 
L 220.347831 185.463594 
L 220.347831 185.004957 
L 221.351548 185.004957 
L 221.351548 184.546319 
L 221.741676 184.546319 
L 221.749988 183.629045 
L 221.855391 183.629045 
L 221.876871 182.71177 
L 222.325067 182.71177 
L 222.325067 182.253132 
L 222.598378 182.253132 
L 222.598378 182.138473 
L 222.766337 182.138473 
L 222.860365 181.565176 
L 222.970794 181.565176 
L 222.970794 181.450517 
L 223.088171 181.450517 
L 223.154228 180.647901 
L 223.199357 180.647901 
L 223.199357 180.189264 
L 223.343251 180.189264 
L 223.373436 179.271989 
L 223.466487 179.271989 
L 223.574782 177.896077 
L 223.872543 177.896077 
L 223.911236 176.978802 
L 224.0305 176.978802 
L 224.107043 176.061527 
L 224.38349 176.061527 
L 224.38349 175.60289 
L 224.506215 175.60289 
L 224.609613 174.570955 
L 224.682841 174.570955 
L 224.682841 174.112318 
L 224.878514 174.112318 
L 224.913938 173.539021 
L 225.086265 173.539021 
L 225.086265 173.080384 
L 225.224339 173.080384 
L 225.327124 172.277768 
L 225.522822 172.277768 
L 225.522822 171.819131 
L 225.665935 171.819131 
L 225.665935 171.360494 
L 225.79257 171.360494 
L 225.837911 170.787197 
L 225.947579 170.787197 
L 226.032381 169.525944 
L 226.084671 169.525944 
L 226.084671 169.067306 
L 226.263661 169.067306 
L 226.362062 168.150032 
L 226.462989 168.150032 
L 226.462989 167.691394 
L 226.623511 167.691394 
L 226.623511 167.232757 
L 226.829844 167.232757 
L 226.868641 166.65946 
L 226.991166 166.65946 
L 226.991166 166.200823 
L 227.132797 166.200823 
L 227.138353 165.283548 
L 227.3123 165.283548 
L 227.3123 164.93957 
L 227.529872 164.93957 
L 227.529872 164.480932 
L 228.090587 164.480932 
L 228.090587 164.022295 
L 228.410626 164.022295 
L 228.410626 163.563657 
L 228.559848 163.563657 
L 228.636034 162.187745 
L 228.868409 162.187745 
L 228.868409 161.729108 
L 229.055083 161.729108 
L 229.107867 160.926492 
L 229.210394 160.926492 
L 229.293538 160.123877 
L 229.331778 160.123877 
L 229.331778 159.665239 
L 229.466942 159.665239 
L 229.539558 158.747965 
L 229.665016 158.747965 
L 229.665016 158.633305 
L 230.123724 158.633305 
L 230.152223 157.71603 
L 230.355612 157.71603 
L 230.405744 156.798756 
L 230.592733 156.798756 
L 230.653155 155.881481 
L 230.945849 155.881481 
L 230.945849 155.422843 
L 231.14268 155.422843 
L 231.213786 154.849547 
L 231.483128 154.849547 
L 231.501391 154.046931 
L 231.650598 154.046931 
L 231.66141 153.473634 
L 231.763941 153.473634 
L 231.763941 153.358975 
L 231.889111 153.358975 
L 231.889111 152.900337 
L 232.019497 152.900337 
L 232.087528 151.983063 
L 232.368745 151.983063 
L 232.368745 151.639085 
L 232.51926 151.639085 
L 232.623979 150.72181 
L 232.661703 150.72181 
L 232.704198 149.460557 
L 233.172005 149.460557 
L 233.262094 148.543282 
L 233.554008 148.543282 
L 233.554008 148.199304 
L 233.890425 148.199304 
L 233.890425 147.740667 
L 234.027142 147.740667 
L 234.098446 146.823392 
L 234.176413 146.823392 
L 234.176413 146.364754 
L 234.502827 146.364754 
L 234.52165 145.447479 
L 234.707533 145.447479 
L 234.783349 144.874183 
L 234.884417 144.874183 
L 234.884417 144.530205 
L 235.005536 144.530205 
L 235.077143 143.727589 
L 235.162451 143.727589 
L 235.162451 143.268952 
L 235.64865 143.268952 
L 235.651284 142.351677 
L 235.867327 142.351677 
L 235.867327 141.893039 
L 236.128397 141.893039 
L 236.128397 141.434402 
L 236.289173 141.434402 
L 236.289173 140.975765 
L 236.433114 140.975765 
L 236.519387 140.402468 
L 236.569027 140.402468 
L 236.67187 139.829171 
L 237.162159 139.829171 
L 237.162159 139.370534 
L 237.459697 139.370534 
L 237.564201 138.453259 
L 237.608902 138.453259 
L 237.704776 137.765303 
L 237.901443 137.765303 
L 237.901443 137.421325 
L 238.155076 137.421325 
L 238.155076 136.962687 
L 238.286742 136.962687 
L 238.286742 136.618709 
L 238.61904 136.618709 
L 238.704633 135.701434 
L 238.913871 135.701434 
L 239.021241 133.866885 
L 239.225289 133.866885 
L 239.225289 133.408247 
L 239.427964 133.408247 
L 239.538091 132.490972 
L 239.983851 132.490972 
L 239.983851 132.032335 
L 240.351881 132.032335 
L 240.389684 131.11506 
L 240.686608 131.11506 
L 240.789947 129.739148 
L 241.067448 129.739148 
L 241.116573 128.821873 
L 241.282726 128.821873 
L 241.282726 128.363236 
L 241.502157 128.363236 
L 241.502157 127.904598 
L 241.765531 127.904598 
L 241.804237 126.987323 
L 241.928574 126.987323 
L 241.928574 126.872664 
L 242.155537 126.872664 
L 242.261881 126.070049 
L 242.279413 126.070049 
L 242.279413 125.955389 
L 242.827847 125.955389 
L 242.900456 125.038114 
L 243.043639 125.038114 
L 243.144973 124.120839 
L 243.167327 124.120839 
L 243.190349 123.547543 
L 243.528595 123.547543 
L 243.528595 123.088905 
L 243.808368 123.088905 
L 243.84341 122.17163 
L 244.431371 122.17163 
L 244.444549 121.598334 
L 244.585889 121.598334 
L 244.585889 121.139696 
L 244.75942 121.139696 
L 244.859795 120.222421 
L 244.946936 120.222421 
L 244.983053 119.419806 
L 245.571412 119.419806 
L 245.571412 118.961169 
L 245.688429 118.961169 
L 245.688429 118.502531 
L 245.898385 118.502531 
L 245.907911 117.585256 
L 246.04573 117.585256 
L 246.04573 117.126619 
L 246.22104 117.126619 
L 246.249663 116.209344 
L 246.394299 116.209344 
L 246.415205 115.292069 
L 246.506326 115.292069 
L 246.582443 114.718772 
L 247.00101 114.718772 
L 247.00101 114.374794 
L 247.126894 114.374794 
L 247.217557 112.540245 
L 247.348606 112.540245 
L 247.348606 112.081607 
L 247.805397 112.081607 
L 247.842505 111.164332 
L 247.917144 111.164332 
L 247.998234 110.247058 
L 248.035548 110.247058 
L 248.094993 109.444442 
L 248.316013 109.444442 
L 248.425407 108.297849 
L 248.508099 108.297849 
L 248.508099 107.95387 
L 248.831716 107.95387 
L 248.831716 107.495233 
L 249.019574 107.495233 
L 249.019574 107.036596 
L 249.266868 107.036596 
L 249.266868 106.577958 
L 249.4558 106.577958 
L 249.532977 105.660683 
L 249.912095 105.660683 
L 249.912095 105.202046 
L 250.045076 105.202046 
L 250.116916 103.940793 
L 250.364817 103.940793 
L 250.368154 103.023518 
L 250.479516 103.023518 
L 250.550199 101.647606 
L 250.880921 101.647606 
L 250.880921 101.188969 
L 251.142312 101.188969 
L 251.202736 100.615672 
L 251.505047 100.615672 
L 251.505047 100.157034 
L 251.903692 100.157034 
L 251.985551 98.781122 
L 252.085899 98.781122 
L 252.085899 98.322485 
L 252.310112 98.322485 
L 252.310112 97.863847 
L 252.555597 97.863847 
L 252.555597 97.40521 
L 253.437109 97.40521 
L 253.437109 96.946572 
L 253.679082 96.946572 
L 253.709878 96.029298 
L 254.701071 96.029298 
L 254.701071 95.57066 
L 254.953705 95.57066 
L 254.996554 94.768045 
L 255.124123 94.768045 
L 255.197598 93.85077 
L 255.241154 93.85077 
L 255.241154 93.736111 
L 255.4997 93.736111 
L 255.4997 93.277473 
L 255.676403 93.277473 
L 255.676403 92.818836 
L 255.885658 92.818836 
L 255.885658 92.360198 
L 256.156035 92.360198 
L 256.156035 92.245539 
L 256.289183 92.245539 
L 256.289183 91.786901 
L 256.512674 91.786901 
L 256.512674 91.328264 
L 256.636658 91.328264 
L 256.673651 90.410989 
L 256.806098 90.410989 
L 256.860318 89.493714 
L 256.96497 89.493714 
L 256.96497 89.035077 
L 257.078486 89.035077 
L 257.078486 88.57644 
L 257.249749 88.57644 
L 257.253864 87.659165 
L 257.395492 87.659165 
L 257.395492 87.200527 
L 257.586635 87.200527 
L 257.642925 86.512571 
L 258.429901 86.512571 
L 258.429901 86.053934 
L 259.40202 86.053934 
L 259.40202 85.595296 
L 259.622634 85.595296 
L 259.622634 85.136659 
L 260.035993 85.136659 
L 260.035993 84.792681 
L 260.291629 84.792681 
L 260.344862 83.416769 
L 260.439423 83.416769 
L 260.439423 82.958131 
L 260.917083 82.958131 
L 260.917083 82.614153 
L 261.300479 82.614153 
L 261.37012 81.3529 
L 261.513421 81.3529 
L 261.513421 81.238241 
L 262.010239 81.238241 
L 262.010239 80.779603 
L 262.382134 80.779603 
L 262.462164 79.976988 
L 262.601205 79.976988 
L 262.689432 79.059713 
L 262.892822 79.059713 
L 262.963578 78.142438 
L 263.108803 78.142438 
L 263.108803 77.683801 
L 263.4329 77.683801 
L 263.508607 76.766526 
L 263.628104 76.766526 
L 263.636651 75.849251 
L 264.338275 75.849251 
L 264.399502 74.587998 
L 264.888372 74.587998 
L 264.888372 74.129361 
L 265.598484 74.129361 
L 265.598484 73.670723 
L 266.498233 73.670723 
L 266.498233 73.212086 
L 266.897942 73.212086 
L 266.897942 72.982767 
L 267.382339 72.982767 
L 267.382339 72.52413 
L 267.537547 72.52413 
L 267.537547 72.065493 
L 268.98039 72.065493 
L 268.98039 71.606855 
L 269.759894 71.606855 
L 269.821638 70.68958 
L 270.210836 70.68958 
L 270.210836 70.230943 
L 270.53034 70.230943 
L 270.53034 69.772305 
L 270.887314 69.772305 
L 270.887314 69.313668 
L 271.309528 69.313668 
L 271.309528 68.855031 
L 271.424117 68.855031 
L 271.424117 68.396393 
L 271.568528 68.396393 
L 271.568528 67.937756 
L 272.264773 67.937756 
L 272.264773 67.479118 
L 273.11163 67.479118 
L 273.218569 66.561843 
L 273.295131 66.561843 
L 273.295131 66.103206 
L 273.941274 66.103206 
L 273.941274 65.988547 
L 274.899641 65.988547 
L 274.899641 65.644569 
L 275.745016 65.644569 
L 275.745016 65.185931 
L 276.625027 65.185931 
L 276.625027 64.727294 
L 276.972737 64.727294 
L 276.972737 64.612634 
L 278.079046 64.612634 
L 278.079046 64.153997 
L 279.379679 64.153997 
L 279.379679 63.69536 
L 279.64186 63.69536 
L 279.64186 63.236722 
L 280.20373 63.236722 
L 280.20373 62.778085 
L 280.408957 62.778085 
L 280.408957 62.434107 
L 281.338502 62.434107 
L 281.338502 61.975469 
L 283.208933 61.975469 
L 283.208933 61.516832 
L 285.482831 61.516832 
L 285.482831 61.058194 
L 286.447049 61.058194 
L 286.447049 60.599557 
L 286.641375 60.599557 
L 286.641375 60.14092 
L 289.043497 60.14092 
L 289.043497 60.02626 
L 291.759496 60.02626 
L 291.759496 59.567623 
L 293.686184 59.567623 
L 293.686184 59.108985 
L 294.359065 59.108985 
L 294.359065 58.650348 
L 295.820661 58.650348 
L 295.820661 58.191711 
L 296.238706 58.191711 
L 296.238706 57.733073 
L 296.580089 57.733073 
L 296.580089 57.274436 
L 302.659533 57.274436 
L 302.659533 56.930458 
L 306.597295 56.930458 
L 306.597295 56.47182 
L 306.899241 56.47182 
L 306.899241 56.013183 
L 311.318182 56.013183 
L 311.318182 55.554545 
L 311.318182 55.554545 
" style="fill:none;stroke:#1f77b4;stroke-linecap:square;stroke-width:1.5;"/>
   </g>
   <g id="patch_3">
    <path d="M 45 315 
L 45 43.2 
" style="fill:none;stroke:#000000;stroke-linecap:square;stroke-linejoin:miter;stroke-width:0.8;"/>
   </g>
   <g id="patch_4">
    <path d="M 324 315 
L 324 43.2 
" style="fill:none;stroke:#000000;stroke-linecap:square;stroke-linejoin:miter;stroke-width:0.8;"/>
   </g>
   <g id="patch_5">
    <path d="M 45 315 
L 324 315 
" style="fill:none;stroke:#000000;stroke-linecap:square;stroke-linejoin:miter;stroke-width:0.8;"/>
   </g>
   <g id="patch_6">
    <path d="M 45 43.2 
L 324 43.2 
" style="fill:none;stroke:#000000;stroke-linecap:square;stroke-linejoin:miter;stroke-width:0.8;"/>
   </g>
   <g id="text_14">
    <!-- CDF of MDPF:Catapult -->
    <defs>
     <path d="M 64.40625 67.28125 
L 64.40625 56.890625 
Q 59.421875 61.53125 53.78125 63.8125 
Q 48.140625 66.109375 41.796875 66.109375 
Q 29.296875 66.109375 22.65625 58.46875 
Q 16.015625 50.828125 16.015625 36.375 
Q 16.015625 21.96875 22.65625 14.328125 
Q 29.296875 6.6875 41.796875 6.6875 
Q 48.140625 6.6875 53.78125 8.984375 
Q 59.421875 11.28125 64.40625 15.921875 
L 64.40625 5.609375 
Q 59.234375 2.09375 53.4375 0.328125 
Q 47.65625 -1.421875 41.21875 -1.421875 
Q 24.65625 -1.421875 15.125 8.703125 
Q 5.609375 18.84375 5.609375 36.375 
Q 5.609375 53.953125 15.125 64.078125 
Q 24.65625 74.21875 41.21875 74.21875 
Q 47.75 74.21875 53.53125 72.484375 
Q 59.328125 70.75 64.40625 67.28125 
z
" id="DejaVuSans-67"/>
     <path d="M 11.71875 12.40625 
L 22.015625 12.40625 
L 22.015625 0 
L 11.71875 0 
z
M 11.71875 51.703125 
L 22.015625 51.703125 
L 22.015625 39.3125 
L 11.71875 39.3125 
z
" id="DejaVuSans-58"/>
     <path d="M 34.28125 27.484375 
Q 23.390625 27.484375 19.1875 25 
Q 14.984375 22.515625 14.984375 16.5 
Q 14.984375 11.71875 18.140625 8.90625 
Q 21.296875 6.109375 26.703125 6.109375 
Q 34.1875 6.109375 38.703125 11.40625 
Q 43.21875 16.703125 43.21875 25.484375 
L 43.21875 27.484375 
z
M 52.203125 31.203125 
L 52.203125 0 
L 43.21875 0 
L 43.21875 8.296875 
Q 40.140625 3.328125 35.546875 0.953125 
Q 30.953125 -1.421875 24.3125 -1.421875 
Q 15.921875 -1.421875 10.953125 3.296875 
Q 6 8.015625 6 15.921875 
Q 6 25.140625 12.171875 29.828125 
Q 18.359375 34.515625 30.609375 34.515625 
L 43.21875 34.515625 
L 43.21875 35.40625 
Q 43.21875 41.609375 39.140625 45 
Q 35.0625 48.390625 27.6875 48.390625 
Q 23 48.390625 18.546875 47.265625 
Q 14.109375 46.140625 10.015625 43.890625 
L 10.015625 52.203125 
Q 14.9375 54.109375 19.578125 55.046875 
Q 24.21875 56 28.609375 56 
Q 40.484375 56 46.34375 49.84375 
Q 52.203125 43.703125 52.203125 31.203125 
z
" id="DejaVuSans-97"/>
     <path d="M 18.3125 70.21875 
L 18.3125 54.6875 
L 36.8125 54.6875 
L 36.8125 47.703125 
L 18.3125 47.703125 
L 18.3125 18.015625 
Q 18.3125 11.328125 20.140625 9.421875 
Q 21.96875 7.515625 27.59375 7.515625 
L 36.8125 7.515625 
L 36.8125 0 
L 27.59375 0 
Q 17.1875 0 13.234375 3.875 
Q 9.28125 7.765625 9.28125 18.015625 
L 9.28125 47.703125 
L 2.6875 47.703125 
L 2.6875 54.6875 
L 9.28125 54.6875 
L 9.28125 70.21875 
z
" id="DejaVuSans-116"/>
     <path d="M 18.109375 8.203125 
L 18.109375 -20.796875 
L 9.078125 -20.796875 
L 9.078125 54.6875 
L 18.109375 54.6875 
L 18.109375 46.390625 
Q 20.953125 51.265625 25.265625 53.625 
Q 29.59375 56 35.59375 56 
Q 45.5625 56 51.78125 48.09375 
Q 58.015625 40.1875 58.015625 27.296875 
Q 58.015625 14.40625 51.78125 6.484375 
Q 45.5625 -1.421875 35.59375 -1.421875 
Q 29.59375 -1.421875 25.265625 0.953125 
Q 20.953125 3.328125 18.109375 8.203125 
z
M 48.6875 27.296875 
Q 48.6875 37.203125 44.609375 42.84375 
Q 40.53125 48.484375 33.40625 48.484375 
Q 26.265625 48.484375 22.1875 42.84375 
Q 18.109375 37.203125 18.109375 27.296875 
Q 18.109375 17.390625 22.1875 11.75 
Q 26.265625 6.109375 33.40625 6.109375 
Q 40.53125 6.109375 44.609375 11.75 
Q 48.6875 17.390625 48.6875 27.296875 
z
" id="DejaVuSans-112"/>
     <path d="M 9.421875 75.984375 
L 18.40625 75.984375 
L 18.40625 0 
L 9.421875 0 
z
" id="DejaVuSans-108"/>
    </defs>
    <g transform="translate(118.235625 37.2)scale(0.12 -0.12)">
     <use xlink:href="#DejaVuSans-67"/>
     <use x="69.824219" xlink:href="#DejaVuSans-68"/>
     <use x="146.826172" xlink:href="#DejaVuSans-70"/>
     <use x="204.345703" xlink:href="#DejaVuSans-32"/>
     <use x="236.132812" xlink:href="#DejaVuSans-111"/>
     <use x="297.314453" xlink:href="#DejaVuSans-102"/>
     <use x="332.519531" xlink:href="#DejaVuSans-32"/>
     <use x="364.306641" xlink:href="#DejaVuSans-77"/>
     <use x="450.585938" xlink:href="#DejaVuSans-68"/>
     <use x="527.587891" xlink:href="#DejaVuSans-80"/>
     <use x="587.890625" xlink:href="#DejaVuSans-70"/>
     <use x="645.300781" xlink:href="#DejaVuSans-58"/>
     <use x="678.992188" xlink:href="#DejaVuSans-67"/>
     <use x="748.816406" xlink:href="#DejaVuSans-97"/>
     <use x="810.095703" xlink:href="#DejaVuSans-116"/>
     <use x="849.304688" xlink:href="#DejaVuSans-97"/>
     <use x="910.583984" xlink:href="#DejaVuSans-112"/>
     <use x="974.060547" xlink:href="#DejaVuSans-117"/>
     <use x="1037.439453" xlink:href="#DejaVuSans-108"/>
     <use x="1065.222656" xlink:href="#DejaVuSans-116"/>
    </g>
   </g>
  </g>
 </g>
 <defs>
  <clipPath id="p06897b55be">
   <rect height="271.8" width="279" x="45" y="43.2"/>
  </clipPath>
 </defs>
</svg>
