<?xml version="1.0" encoding="utf-8" standalone="no"?>
<!DOCTYPE svg PUBLIC "-//W3C//DTD SVG 1.1//EN"
  "http://www.w3.org/Graphics/SVG/1.1/DTD/svg11.dtd">
<!-- Created with matplotlib (https://matplotlib.org/) -->
<svg height="360pt" version="1.1" viewBox="0 0 360 360" width="360pt" xmlns="http://www.w3.org/2000/svg" xmlns:xlink="http://www.w3.org/1999/xlink">
 <defs>
  <style type="text/css">
*{stroke-linecap:butt;stroke-linejoin:round;}
  </style>
 </defs>
 <g id="figure_1">
  <g id="patch_1">
   <path d="M 0 360 
L 360 360 
L 360 0 
L 0 0 
z
" style="fill:#ffffff;"/>
  </g>
  <g id="axes_1">
   <g id="patch_2">
    <path d="M 45 315 
L 324 315 
L 324 43.2 
L 45 43.2 
z
" style="fill:#ffffff;"/>
   </g>
   <g id="matplotlib.axis_1">
    <g id="xtick_1">
     <g id="line2d_1">
      <defs>
       <path d="M 0 0 
L 0 3.5 
" id="meb629d3ce9" style="stroke:#000000;stroke-width:0.8;"/>
      </defs>
      <g>
       <use style="stroke:#000000;stroke-width:0.8;" x="62.710185" xlink:href="#meb629d3ce9" y="315"/>
      </g>
     </g>
     <g id="text_1">
      <!-- 0.10 -->
      <defs>
       <path d="M 31.78125 66.40625 
Q 24.171875 66.40625 20.328125 58.90625 
Q 16.5 51.421875 16.5 36.375 
Q 16.5 21.390625 20.328125 13.890625 
Q 24.171875 6.390625 31.78125 6.390625 
Q 39.453125 6.390625 43.28125 13.890625 
Q 47.125 21.390625 47.125 36.375 
Q 47.125 51.421875 43.28125 58.90625 
Q 39.453125 66.40625 31.78125 66.40625 
z
M 31.78125 74.21875 
Q 44.046875 74.21875 50.515625 64.515625 
Q 56.984375 54.828125 56.984375 36.375 
Q 56.984375 17.96875 50.515625 8.265625 
Q 44.046875 -1.421875 31.78125 -1.421875 
Q 19.53125 -1.421875 13.0625 8.265625 
Q 6.59375 17.96875 6.59375 36.375 
Q 6.59375 54.828125 13.0625 64.515625 
Q 19.53125 74.21875 31.78125 74.21875 
z
" id="DejaVuSans-48"/>
       <path d="M 10.6875 12.40625 
L 21 12.40625 
L 21 0 
L 10.6875 0 
z
" id="DejaVuSans-46"/>
       <path d="M 12.40625 8.296875 
L 28.515625 8.296875 
L 28.515625 63.921875 
L 10.984375 60.40625 
L 10.984375 69.390625 
L 28.421875 72.90625 
L 38.28125 72.90625 
L 38.28125 8.296875 
L 54.390625 8.296875 
L 54.390625 0 
L 12.40625 0 
z
" id="DejaVuSans-49"/>
      </defs>
      <g transform="translate(51.577373 329.598437)scale(0.1 -0.1)">
       <use xlink:href="#DejaVuSans-48"/>
       <use x="63.623047" xlink:href="#DejaVuSans-46"/>
       <use x="95.410156" xlink:href="#DejaVuSans-49"/>
       <use x="159.033203" xlink:href="#DejaVuSans-48"/>
      </g>
     </g>
    </g>
    <g id="xtick_2">
     <g id="line2d_2">
      <g>
       <use style="stroke:#000000;stroke-width:0.8;" x="112.743919" xlink:href="#meb629d3ce9" y="315"/>
      </g>
     </g>
     <g id="text_2">
      <!-- 0.12 -->
      <defs>
       <path d="M 19.1875 8.296875 
L 53.609375 8.296875 
L 53.609375 0 
L 7.328125 0 
L 7.328125 8.296875 
Q 12.9375 14.109375 22.625 23.890625 
Q 32.328125 33.6875 34.8125 36.53125 
Q 39.546875 41.84375 41.421875 45.53125 
Q 43.3125 49.21875 43.3125 52.78125 
Q 43.3125 58.59375 39.234375 62.25 
Q 35.15625 65.921875 28.609375 65.921875 
Q 23.96875 65.921875 18.8125 64.3125 
Q 13.671875 62.703125 7.8125 59.421875 
L 7.8125 69.390625 
Q 13.765625 71.78125 18.9375 73 
Q 24.125 74.21875 28.421875 74.21875 
Q 39.75 74.21875 46.484375 68.546875 
Q 53.21875 62.890625 53.21875 53.421875 
Q 53.21875 48.921875 51.53125 44.890625 
Q 49.859375 40.875 45.40625 35.40625 
Q 44.1875 33.984375 37.640625 27.21875 
Q 31.109375 20.453125 19.1875 8.296875 
z
" id="DejaVuSans-50"/>
      </defs>
      <g transform="translate(101.611106 329.598437)scale(0.1 -0.1)">
       <use xlink:href="#DejaVuSans-48"/>
       <use x="63.623047" xlink:href="#DejaVuSans-46"/>
       <use x="95.410156" xlink:href="#DejaVuSans-49"/>
       <use x="159.033203" xlink:href="#DejaVuSans-50"/>
      </g>
     </g>
    </g>
    <g id="xtick_3">
     <g id="line2d_3">
      <g>
       <use style="stroke:#000000;stroke-width:0.8;" x="162.777653" xlink:href="#meb629d3ce9" y="315"/>
      </g>
     </g>
     <g id="text_3">
      <!-- 0.14 -->
      <defs>
       <path d="M 37.796875 64.3125 
L 12.890625 25.390625 
L 37.796875 25.390625 
z
M 35.203125 72.90625 
L 47.609375 72.90625 
L 47.609375 25.390625 
L 58.015625 25.390625 
L 58.015625 17.1875 
L 47.609375 17.1875 
L 47.609375 0 
L 37.796875 0 
L 37.796875 17.1875 
L 4.890625 17.1875 
L 4.890625 26.703125 
z
" id="DejaVuSans-52"/>
      </defs>
      <g transform="translate(151.64484 329.598437)scale(0.1 -0.1)">
       <use xlink:href="#DejaVuSans-48"/>
       <use x="63.623047" xlink:href="#DejaVuSans-46"/>
       <use x="95.410156" xlink:href="#DejaVuSans-49"/>
       <use x="159.033203" xlink:href="#DejaVuSans-52"/>
      </g>
     </g>
    </g>
    <g id="xtick_4">
     <g id="line2d_4">
      <g>
       <use style="stroke:#000000;stroke-width:0.8;" x="212.811386" xlink:href="#meb629d3ce9" y="315"/>
      </g>
     </g>
     <g id="text_4">
      <!-- 0.16 -->
      <defs>
       <path d="M 33.015625 40.375 
Q 26.375 40.375 22.484375 35.828125 
Q 18.609375 31.296875 18.609375 23.390625 
Q 18.609375 15.53125 22.484375 10.953125 
Q 26.375 6.390625 33.015625 6.390625 
Q 39.65625 6.390625 43.53125 10.953125 
Q 47.40625 15.53125 47.40625 23.390625 
Q 47.40625 31.296875 43.53125 35.828125 
Q 39.65625 40.375 33.015625 40.375 
z
M 52.59375 71.296875 
L 52.59375 62.3125 
Q 48.875 64.0625 45.09375 64.984375 
Q 41.3125 65.921875 37.59375 65.921875 
Q 27.828125 65.921875 22.671875 59.328125 
Q 17.53125 52.734375 16.796875 39.40625 
Q 19.671875 43.65625 24.015625 45.921875 
Q 28.375 48.1875 33.59375 48.1875 
Q 44.578125 48.1875 50.953125 41.515625 
Q 57.328125 34.859375 57.328125 23.390625 
Q 57.328125 12.15625 50.6875 5.359375 
Q 44.046875 -1.421875 33.015625 -1.421875 
Q 20.359375 -1.421875 13.671875 8.265625 
Q 6.984375 17.96875 6.984375 36.375 
Q 6.984375 53.65625 15.1875 63.9375 
Q 23.390625 74.21875 37.203125 74.21875 
Q 40.921875 74.21875 44.703125 73.484375 
Q 48.484375 72.75 52.59375 71.296875 
z
" id="DejaVuSans-54"/>
      </defs>
      <g transform="translate(201.678574 329.598437)scale(0.1 -0.1)">
       <use xlink:href="#DejaVuSans-48"/>
       <use x="63.623047" xlink:href="#DejaVuSans-46"/>
       <use x="95.410156" xlink:href="#DejaVuSans-49"/>
       <use x="159.033203" xlink:href="#DejaVuSans-54"/>
      </g>
     </g>
    </g>
    <g id="xtick_5">
     <g id="line2d_5">
      <g>
       <use style="stroke:#000000;stroke-width:0.8;" x="262.84512" xlink:href="#meb629d3ce9" y="315"/>
      </g>
     </g>
     <g id="text_5">
      <!-- 0.18 -->
      <defs>
       <path d="M 31.78125 34.625 
Q 24.75 34.625 20.71875 30.859375 
Q 16.703125 27.09375 16.703125 20.515625 
Q 16.703125 13.921875 20.71875 10.15625 
Q 24.75 6.390625 31.78125 6.390625 
Q 38.8125 6.390625 42.859375 10.171875 
Q 46.921875 13.96875 46.921875 20.515625 
Q 46.921875 27.09375 42.890625 30.859375 
Q 38.875 34.625 31.78125 34.625 
z
M 21.921875 38.8125 
Q 15.578125 40.375 12.03125 44.71875 
Q 8.5 49.078125 8.5 55.328125 
Q 8.5 64.0625 14.71875 69.140625 
Q 20.953125 74.21875 31.78125 74.21875 
Q 42.671875 74.21875 48.875 69.140625 
Q 55.078125 64.0625 55.078125 55.328125 
Q 55.078125 49.078125 51.53125 44.71875 
Q 48 40.375 41.703125 38.8125 
Q 48.828125 37.15625 52.796875 32.3125 
Q 56.78125 27.484375 56.78125 20.515625 
Q 56.78125 9.90625 50.3125 4.234375 
Q 43.84375 -1.421875 31.78125 -1.421875 
Q 19.734375 -1.421875 13.25 4.234375 
Q 6.78125 9.90625 6.78125 20.515625 
Q 6.78125 27.484375 10.78125 32.3125 
Q 14.796875 37.15625 21.921875 38.8125 
z
M 18.3125 54.390625 
Q 18.3125 48.734375 21.84375 45.5625 
Q 25.390625 42.390625 31.78125 42.390625 
Q 38.140625 42.390625 41.71875 45.5625 
Q 45.3125 48.734375 45.3125 54.390625 
Q 45.3125 60.0625 41.71875 63.234375 
Q 38.140625 66.40625 31.78125 66.40625 
Q 25.390625 66.40625 21.84375 63.234375 
Q 18.3125 60.0625 18.3125 54.390625 
z
" id="DejaVuSans-56"/>
      </defs>
      <g transform="translate(251.712308 329.598437)scale(0.1 -0.1)">
       <use xlink:href="#DejaVuSans-48"/>
       <use x="63.623047" xlink:href="#DejaVuSans-46"/>
       <use x="95.410156" xlink:href="#DejaVuSans-49"/>
       <use x="159.033203" xlink:href="#DejaVuSans-56"/>
      </g>
     </g>
    </g>
    <g id="xtick_6">
     <g id="line2d_6">
      <g>
       <use style="stroke:#000000;stroke-width:0.8;" x="312.878854" xlink:href="#meb629d3ce9" y="315"/>
      </g>
     </g>
     <g id="text_6">
      <!-- 0.20 -->
      <g transform="translate(301.746042 329.598437)scale(0.1 -0.1)">
       <use xlink:href="#DejaVuSans-48"/>
       <use x="63.623047" xlink:href="#DejaVuSans-46"/>
       <use x="95.410156" xlink:href="#DejaVuSans-50"/>
       <use x="159.033203" xlink:href="#DejaVuSans-48"/>
      </g>
     </g>
    </g>
    <g id="text_7">
     <!-- Throughput -->
     <defs>
      <path d="M -0.296875 72.90625 
L 61.375 72.90625 
L 61.375 64.59375 
L 35.5 64.59375 
L 35.5 0 
L 25.59375 0 
L 25.59375 64.59375 
L -0.296875 64.59375 
z
" id="DejaVuSans-84"/>
      <path d="M 54.890625 33.015625 
L 54.890625 0 
L 45.90625 0 
L 45.90625 32.71875 
Q 45.90625 40.484375 42.875 44.328125 
Q 39.84375 48.1875 33.796875 48.1875 
Q 26.515625 48.1875 22.3125 43.546875 
Q 18.109375 38.921875 18.109375 30.90625 
L 18.109375 0 
L 9.078125 0 
L 9.078125 75.984375 
L 18.109375 75.984375 
L 18.109375 46.1875 
Q 21.34375 51.125 25.703125 53.5625 
Q 30.078125 56 35.796875 56 
Q 45.21875 56 50.046875 50.171875 
Q 54.890625 44.34375 54.890625 33.015625 
z
" id="DejaVuSans-104"/>
      <path d="M 41.109375 46.296875 
Q 39.59375 47.171875 37.8125 47.578125 
Q 36.03125 48 33.890625 48 
Q 26.265625 48 22.1875 43.046875 
Q 18.109375 38.09375 18.109375 28.8125 
L 18.109375 0 
L 9.078125 0 
L 9.078125 54.6875 
L 18.109375 54.6875 
L 18.109375 46.1875 
Q 20.953125 51.171875 25.484375 53.578125 
Q 30.03125 56 36.53125 56 
Q 37.453125 56 38.578125 55.875 
Q 39.703125 55.765625 41.0625 55.515625 
z
" id="DejaVuSans-114"/>
      <path d="M 30.609375 48.390625 
Q 23.390625 48.390625 19.1875 42.75 
Q 14.984375 37.109375 14.984375 27.296875 
Q 14.984375 17.484375 19.15625 11.84375 
Q 23.34375 6.203125 30.609375 6.203125 
Q 37.796875 6.203125 41.984375 11.859375 
Q 46.1875 17.53125 46.1875 27.296875 
Q 46.1875 37.015625 41.984375 42.703125 
Q 37.796875 48.390625 30.609375 48.390625 
z
M 30.609375 56 
Q 42.328125 56 49.015625 48.375 
Q 55.71875 40.765625 55.71875 27.296875 
Q 55.71875 13.875 49.015625 6.21875 
Q 42.328125 -1.421875 30.609375 -1.421875 
Q 18.84375 -1.421875 12.171875 6.21875 
Q 5.515625 13.875 5.515625 27.296875 
Q 5.515625 40.765625 12.171875 48.375 
Q 18.84375 56 30.609375 56 
z
" id="DejaVuSans-111"/>
      <path d="M 8.5 21.578125 
L 8.5 54.6875 
L 17.484375 54.6875 
L 17.484375 21.921875 
Q 17.484375 14.15625 20.5 10.265625 
Q 23.53125 6.390625 29.59375 6.390625 
Q 36.859375 6.390625 41.078125 11.03125 
Q 45.3125 15.671875 45.3125 23.6875 
L 45.3125 54.6875 
L 54.296875 54.6875 
L 54.296875 0 
L 45.3125 0 
L 45.3125 8.40625 
Q 42.046875 3.421875 37.71875 1 
Q 33.40625 -1.421875 27.6875 -1.421875 
Q 18.265625 -1.421875 13.375 4.4375 
Q 8.5 10.296875 8.5 21.578125 
z
M 31.109375 56 
z
" id="DejaVuSans-117"/>
      <path d="M 45.40625 27.984375 
Q 45.40625 37.75 41.375 43.109375 
Q 37.359375 48.484375 30.078125 48.484375 
Q 22.859375 48.484375 18.828125 43.109375 
Q 14.796875 37.75 14.796875 27.984375 
Q 14.796875 18.265625 18.828125 12.890625 
Q 22.859375 7.515625 30.078125 7.515625 
Q 37.359375 7.515625 41.375 12.890625 
Q 45.40625 18.265625 45.40625 27.984375 
z
M 54.390625 6.78125 
Q 54.390625 -7.171875 48.1875 -13.984375 
Q 42 -20.796875 29.203125 -20.796875 
Q 24.46875 -20.796875 20.265625 -20.09375 
Q 16.0625 -19.390625 12.109375 -17.921875 
L 12.109375 -9.1875 
Q 16.0625 -11.328125 19.921875 -12.34375 
Q 23.78125 -13.375 27.78125 -13.375 
Q 36.625 -13.375 41.015625 -8.765625 
Q 45.40625 -4.15625 45.40625 5.171875 
L 45.40625 9.625 
Q 42.625 4.78125 38.28125 2.390625 
Q 33.9375 0 27.875 0 
Q 17.828125 0 11.671875 7.65625 
Q 5.515625 15.328125 5.515625 27.984375 
Q 5.515625 40.671875 11.671875 48.328125 
Q 17.828125 56 27.875 56 
Q 33.9375 56 38.28125 53.609375 
Q 42.625 51.21875 45.40625 46.390625 
L 45.40625 54.6875 
L 54.390625 54.6875 
z
" id="DejaVuSans-103"/>
      <path d="M 18.109375 8.203125 
L 18.109375 -20.796875 
L 9.078125 -20.796875 
L 9.078125 54.6875 
L 18.109375 54.6875 
L 18.109375 46.390625 
Q 20.953125 51.265625 25.265625 53.625 
Q 29.59375 56 35.59375 56 
Q 45.5625 56 51.78125 48.09375 
Q 58.015625 40.1875 58.015625 27.296875 
Q 58.015625 14.40625 51.78125 6.484375 
Q 45.5625 -1.421875 35.59375 -1.421875 
Q 29.59375 -1.421875 25.265625 0.953125 
Q 20.953125 3.328125 18.109375 8.203125 
z
M 48.6875 27.296875 
Q 48.6875 37.203125 44.609375 42.84375 
Q 40.53125 48.484375 33.40625 48.484375 
Q 26.265625 48.484375 22.1875 42.84375 
Q 18.109375 37.203125 18.109375 27.296875 
Q 18.109375 17.390625 22.1875 11.75 
Q 26.265625 6.109375 33.40625 6.109375 
Q 40.53125 6.109375 44.609375 11.75 
Q 48.6875 17.390625 48.6875 27.296875 
z
" id="DejaVuSans-112"/>
      <path d="M 18.3125 70.21875 
L 18.3125 54.6875 
L 36.8125 54.6875 
L 36.8125 47.703125 
L 18.3125 47.703125 
L 18.3125 18.015625 
Q 18.3125 11.328125 20.140625 9.421875 
Q 21.96875 7.515625 27.59375 7.515625 
L 36.8125 7.515625 
L 36.8125 0 
L 27.59375 0 
Q 17.1875 0 13.234375 3.875 
Q 9.28125 7.765625 9.28125 18.015625 
L 9.28125 47.703125 
L 2.6875 47.703125 
L 2.6875 54.6875 
L 9.28125 54.6875 
L 9.28125 70.21875 
z
" id="DejaVuSans-116"/>
     </defs>
     <g transform="translate(155.349219 343.276563)scale(0.1 -0.1)">
      <use xlink:href="#DejaVuSans-84"/>
      <use x="61.083984" xlink:href="#DejaVuSans-104"/>
      <use x="124.462891" xlink:href="#DejaVuSans-114"/>
      <use x="165.544922" xlink:href="#DejaVuSans-111"/>
      <use x="226.726562" xlink:href="#DejaVuSans-117"/>
      <use x="290.105469" xlink:href="#DejaVuSans-103"/>
      <use x="353.582031" xlink:href="#DejaVuSans-104"/>
      <use x="416.960938" xlink:href="#DejaVuSans-112"/>
      <use x="480.4375" xlink:href="#DejaVuSans-117"/>
      <use x="543.816406" xlink:href="#DejaVuSans-116"/>
     </g>
    </g>
   </g>
   <g id="matplotlib.axis_2">
    <g id="ytick_1">
     <g id="line2d_7">
      <defs>
       <path d="M 0 0 
L -3.5 0 
" id="m036d7df737" style="stroke:#000000;stroke-width:0.8;"/>
      </defs>
      <g>
       <use style="stroke:#000000;stroke-width:0.8;" x="45" xlink:href="#m036d7df737" y="302.645455"/>
      </g>
     </g>
     <g id="text_8">
      <!-- 0 -->
      <g transform="translate(31.6375 306.444673)scale(0.1 -0.1)">
       <use xlink:href="#DejaVuSans-48"/>
      </g>
     </g>
    </g>
    <g id="ytick_2">
     <g id="line2d_8">
      <g>
       <use style="stroke:#000000;stroke-width:0.8;" x="45" xlink:href="#m036d7df737" y="242.320526"/>
      </g>
     </g>
     <g id="text_9">
      <!-- 1000 -->
      <g transform="translate(12.55 246.119744)scale(0.1 -0.1)">
       <use xlink:href="#DejaVuSans-49"/>
       <use x="63.623047" xlink:href="#DejaVuSans-48"/>
       <use x="127.246094" xlink:href="#DejaVuSans-48"/>
       <use x="190.869141" xlink:href="#DejaVuSans-48"/>
      </g>
     </g>
    </g>
    <g id="ytick_3">
     <g id="line2d_9">
      <g>
       <use style="stroke:#000000;stroke-width:0.8;" x="45" xlink:href="#m036d7df737" y="181.995597"/>
      </g>
     </g>
     <g id="text_10">
      <!-- 2000 -->
      <g transform="translate(12.55 185.794815)scale(0.1 -0.1)">
       <use xlink:href="#DejaVuSans-50"/>
       <use x="63.623047" xlink:href="#DejaVuSans-48"/>
       <use x="127.246094" xlink:href="#DejaVuSans-48"/>
       <use x="190.869141" xlink:href="#DejaVuSans-48"/>
      </g>
     </g>
    </g>
    <g id="ytick_4">
     <g id="line2d_10">
      <g>
       <use style="stroke:#000000;stroke-width:0.8;" x="45" xlink:href="#m036d7df737" y="121.670668"/>
      </g>
     </g>
     <g id="text_11">
      <!-- 3000 -->
      <defs>
       <path d="M 40.578125 39.3125 
Q 47.65625 37.796875 51.625 33 
Q 55.609375 28.21875 55.609375 21.1875 
Q 55.609375 10.40625 48.1875 4.484375 
Q 40.765625 -1.421875 27.09375 -1.421875 
Q 22.515625 -1.421875 17.65625 -0.515625 
Q 12.796875 0.390625 7.625 2.203125 
L 7.625 11.71875 
Q 11.71875 9.328125 16.59375 8.109375 
Q 21.484375 6.890625 26.8125 6.890625 
Q 36.078125 6.890625 40.9375 10.546875 
Q 45.796875 14.203125 45.796875 21.1875 
Q 45.796875 27.640625 41.28125 31.265625 
Q 36.765625 34.90625 28.71875 34.90625 
L 20.21875 34.90625 
L 20.21875 43.015625 
L 29.109375 43.015625 
Q 36.375 43.015625 40.234375 45.921875 
Q 44.09375 48.828125 44.09375 54.296875 
Q 44.09375 59.90625 40.109375 62.90625 
Q 36.140625 65.921875 28.71875 65.921875 
Q 24.65625 65.921875 20.015625 65.03125 
Q 15.375 64.15625 9.8125 62.3125 
L 9.8125 71.09375 
Q 15.4375 72.65625 20.34375 73.4375 
Q 25.25 74.21875 29.59375 74.21875 
Q 40.828125 74.21875 47.359375 69.109375 
Q 53.90625 64.015625 53.90625 55.328125 
Q 53.90625 49.265625 50.4375 45.09375 
Q 46.96875 40.921875 40.578125 39.3125 
z
" id="DejaVuSans-51"/>
      </defs>
      <g transform="translate(12.55 125.469886)scale(0.1 -0.1)">
       <use xlink:href="#DejaVuSans-51"/>
       <use x="63.623047" xlink:href="#DejaVuSans-48"/>
       <use x="127.246094" xlink:href="#DejaVuSans-48"/>
       <use x="190.869141" xlink:href="#DejaVuSans-48"/>
      </g>
     </g>
    </g>
    <g id="ytick_5">
     <g id="line2d_11">
      <g>
       <use style="stroke:#000000;stroke-width:0.8;" x="45" xlink:href="#m036d7df737" y="61.345739"/>
      </g>
     </g>
     <g id="text_12">
      <!-- 4000 -->
      <g transform="translate(12.55 65.144957)scale(0.1 -0.1)">
       <use xlink:href="#DejaVuSans-52"/>
       <use x="63.623047" xlink:href="#DejaVuSans-48"/>
       <use x="127.246094" xlink:href="#DejaVuSans-48"/>
       <use x="190.869141" xlink:href="#DejaVuSans-48"/>
      </g>
     </g>
    </g>
    <g id="text_13">
     <!-- Number of Designs -->
     <defs>
      <path d="M 9.8125 72.90625 
L 23.09375 72.90625 
L 55.421875 11.921875 
L 55.421875 72.90625 
L 64.984375 72.90625 
L 64.984375 0 
L 51.703125 0 
L 19.390625 60.984375 
L 19.390625 0 
L 9.8125 0 
z
" id="DejaVuSans-78"/>
      <path d="M 52 44.1875 
Q 55.375 50.25 60.0625 53.125 
Q 64.75 56 71.09375 56 
Q 79.640625 56 84.28125 50.015625 
Q 88.921875 44.046875 88.921875 33.015625 
L 88.921875 0 
L 79.890625 0 
L 79.890625 32.71875 
Q 79.890625 40.578125 77.09375 44.375 
Q 74.3125 48.1875 68.609375 48.1875 
Q 61.625 48.1875 57.5625 43.546875 
Q 53.515625 38.921875 53.515625 30.90625 
L 53.515625 0 
L 44.484375 0 
L 44.484375 32.71875 
Q 44.484375 40.625 41.703125 44.40625 
Q 38.921875 48.1875 33.109375 48.1875 
Q 26.21875 48.1875 22.15625 43.53125 
Q 18.109375 38.875 18.109375 30.90625 
L 18.109375 0 
L 9.078125 0 
L 9.078125 54.6875 
L 18.109375 54.6875 
L 18.109375 46.1875 
Q 21.1875 51.21875 25.484375 53.609375 
Q 29.78125 56 35.6875 56 
Q 41.65625 56 45.828125 52.96875 
Q 50 49.953125 52 44.1875 
z
" id="DejaVuSans-109"/>
      <path d="M 48.6875 27.296875 
Q 48.6875 37.203125 44.609375 42.84375 
Q 40.53125 48.484375 33.40625 48.484375 
Q 26.265625 48.484375 22.1875 42.84375 
Q 18.109375 37.203125 18.109375 27.296875 
Q 18.109375 17.390625 22.1875 11.75 
Q 26.265625 6.109375 33.40625 6.109375 
Q 40.53125 6.109375 44.609375 11.75 
Q 48.6875 17.390625 48.6875 27.296875 
z
M 18.109375 46.390625 
Q 20.953125 51.265625 25.265625 53.625 
Q 29.59375 56 35.59375 56 
Q 45.5625 56 51.78125 48.09375 
Q 58.015625 40.1875 58.015625 27.296875 
Q 58.015625 14.40625 51.78125 6.484375 
Q 45.5625 -1.421875 35.59375 -1.421875 
Q 29.59375 -1.421875 25.265625 0.953125 
Q 20.953125 3.328125 18.109375 8.203125 
L 18.109375 0 
L 9.078125 0 
L 9.078125 75.984375 
L 18.109375 75.984375 
z
" id="DejaVuSans-98"/>
      <path d="M 56.203125 29.59375 
L 56.203125 25.203125 
L 14.890625 25.203125 
Q 15.484375 15.921875 20.484375 11.0625 
Q 25.484375 6.203125 34.421875 6.203125 
Q 39.59375 6.203125 44.453125 7.46875 
Q 49.3125 8.734375 54.109375 11.28125 
L 54.109375 2.78125 
Q 49.265625 0.734375 44.1875 -0.34375 
Q 39.109375 -1.421875 33.890625 -1.421875 
Q 20.796875 -1.421875 13.15625 6.1875 
Q 5.515625 13.8125 5.515625 26.8125 
Q 5.515625 40.234375 12.765625 48.109375 
Q 20.015625 56 32.328125 56 
Q 43.359375 56 49.78125 48.890625 
Q 56.203125 41.796875 56.203125 29.59375 
z
M 47.21875 32.234375 
Q 47.125 39.59375 43.09375 43.984375 
Q 39.0625 48.390625 32.421875 48.390625 
Q 24.90625 48.390625 20.390625 44.140625 
Q 15.875 39.890625 15.1875 32.171875 
z
" id="DejaVuSans-101"/>
      <path id="DejaVuSans-32"/>
      <path d="M 37.109375 75.984375 
L 37.109375 68.5 
L 28.515625 68.5 
Q 23.6875 68.5 21.796875 66.546875 
Q 19.921875 64.59375 19.921875 59.515625 
L 19.921875 54.6875 
L 34.71875 54.6875 
L 34.71875 47.703125 
L 19.921875 47.703125 
L 19.921875 0 
L 10.890625 0 
L 10.890625 47.703125 
L 2.296875 47.703125 
L 2.296875 54.6875 
L 10.890625 54.6875 
L 10.890625 58.5 
Q 10.890625 67.625 15.140625 71.796875 
Q 19.390625 75.984375 28.609375 75.984375 
z
" id="DejaVuSans-102"/>
      <path d="M 19.671875 64.796875 
L 19.671875 8.109375 
L 31.59375 8.109375 
Q 46.6875 8.109375 53.6875 14.9375 
Q 60.6875 21.78125 60.6875 36.53125 
Q 60.6875 51.171875 53.6875 57.984375 
Q 46.6875 64.796875 31.59375 64.796875 
z
M 9.8125 72.90625 
L 30.078125 72.90625 
Q 51.265625 72.90625 61.171875 64.09375 
Q 71.09375 55.28125 71.09375 36.53125 
Q 71.09375 17.671875 61.125 8.828125 
Q 51.171875 0 30.078125 0 
L 9.8125 0 
z
" id="DejaVuSans-68"/>
      <path d="M 44.28125 53.078125 
L 44.28125 44.578125 
Q 40.484375 46.53125 36.375 47.5 
Q 32.28125 48.484375 27.875 48.484375 
Q 21.1875 48.484375 17.84375 46.4375 
Q 14.5 44.390625 14.5 40.28125 
Q 14.5 37.15625 16.890625 35.375 
Q 19.28125 33.59375 26.515625 31.984375 
L 29.59375 31.296875 
Q 39.15625 29.25 43.1875 25.515625 
Q 47.21875 21.78125 47.21875 15.09375 
Q 47.21875 7.46875 41.1875 3.015625 
Q 35.15625 -1.421875 24.609375 -1.421875 
Q 20.21875 -1.421875 15.453125 -0.5625 
Q 10.6875 0.296875 5.421875 2 
L 5.421875 11.28125 
Q 10.40625 8.6875 15.234375 7.390625 
Q 20.0625 6.109375 24.8125 6.109375 
Q 31.15625 6.109375 34.5625 8.28125 
Q 37.984375 10.453125 37.984375 14.40625 
Q 37.984375 18.0625 35.515625 20.015625 
Q 33.0625 21.96875 24.703125 23.78125 
L 21.578125 24.515625 
Q 13.234375 26.265625 9.515625 29.90625 
Q 5.8125 33.546875 5.8125 39.890625 
Q 5.8125 47.609375 11.28125 51.796875 
Q 16.75 56 26.8125 56 
Q 31.78125 56 36.171875 55.265625 
Q 40.578125 54.546875 44.28125 53.078125 
z
" id="DejaVuSans-115"/>
      <path d="M 9.421875 54.6875 
L 18.40625 54.6875 
L 18.40625 0 
L 9.421875 0 
z
M 9.421875 75.984375 
L 18.40625 75.984375 
L 18.40625 64.59375 
L 9.421875 64.59375 
z
" id="DejaVuSans-105"/>
      <path d="M 54.890625 33.015625 
L 54.890625 0 
L 45.90625 0 
L 45.90625 32.71875 
Q 45.90625 40.484375 42.875 44.328125 
Q 39.84375 48.1875 33.796875 48.1875 
Q 26.515625 48.1875 22.3125 43.546875 
Q 18.109375 38.921875 18.109375 30.90625 
L 18.109375 0 
L 9.078125 0 
L 9.078125 54.6875 
L 18.109375 54.6875 
L 18.109375 46.1875 
Q 21.34375 51.125 25.703125 53.5625 
Q 30.078125 56 35.796875 56 
Q 45.21875 56 50.046875 50.171875 
Q 54.890625 44.34375 54.890625 33.015625 
z
" id="DejaVuSans-110"/>
     </defs>
     <g transform="translate(6.470312 227.051562)rotate(-90)scale(0.1 -0.1)">
      <use xlink:href="#DejaVuSans-78"/>
      <use x="74.804688" xlink:href="#DejaVuSans-117"/>
      <use x="138.183594" xlink:href="#DejaVuSans-109"/>
      <use x="235.595703" xlink:href="#DejaVuSans-98"/>
      <use x="299.072266" xlink:href="#DejaVuSans-101"/>
      <use x="360.595703" xlink:href="#DejaVuSans-114"/>
      <use x="401.708984" xlink:href="#DejaVuSans-32"/>
      <use x="433.496094" xlink:href="#DejaVuSans-111"/>
      <use x="494.677734" xlink:href="#DejaVuSans-102"/>
      <use x="529.882812" xlink:href="#DejaVuSans-32"/>
      <use x="561.669922" xlink:href="#DejaVuSans-68"/>
      <use x="638.671875" xlink:href="#DejaVuSans-101"/>
      <use x="700.195312" xlink:href="#DejaVuSans-115"/>
      <use x="752.294922" xlink:href="#DejaVuSans-105"/>
      <use x="780.078125" xlink:href="#DejaVuSans-103"/>
      <use x="843.554688" xlink:href="#DejaVuSans-110"/>
      <use x="906.933594" xlink:href="#DejaVuSans-115"/>
     </g>
    </g>
   </g>
   <g id="line2d_12">
    <path clip-path="url(#p131d2a75b2)" d="M 57.681818 302.645455 
L 57.681818 302.58513 
L 63.603363 302.524805 
L 63.603363 302.46448 
L 70.51031 302.404155 
L 70.51031 302.34383 
L 84.866965 302.283505 
L 84.866965 302.22318 
L 85.655293 302.162855 
L 85.684933 302.042205 
L 89.633771 301.98188 
L 89.633771 301.921555 
L 95.160433 301.86123 
L 95.160433 301.800906 
L 101.543363 301.740581 
L 101.543363 301.680256 
L 101.731417 301.619931 
L 101.731417 301.559606 
L 103.338137 301.499281 
L 103.338137 301.438956 
L 106.87595 301.378631 
L 106.87595 301.318306 
L 107.984905 301.257981 
L 107.984905 301.197656 
L 109.501872 301.137331 
L 109.501872 301.077006 
L 111.430422 301.016681 
L 111.430422 300.956357 
L 114.302211 300.896032 
L 114.302211 300.835707 
L 117.816763 300.775382 
L 117.816763 300.715057 
L 121.215895 300.654732 
L 121.215895 300.594407 
L 121.784693 300.534082 
L 121.784693 300.473757 
L 123.174104 300.413432 
L 123.174104 300.353107 
L 124.558972 300.292782 
L 124.558972 300.232457 
L 126.137438 300.172132 
L 126.137438 300.111808 
L 127.574976 300.051483 
L 127.630169 299.930833 
L 127.856658 299.870508 
L 127.870092 299.749858 
L 129.097438 299.689533 
L 129.097438 299.629208 
L 129.836069 299.568883 
L 129.836069 299.508558 
L 131.442825 299.448233 
L 131.463843 299.327583 
L 131.793466 299.267259 
L 131.793466 299.206934 
L 132.525181 299.146609 
L 132.625814 299.025959 
L 133.724146 298.965634 
L 133.724146 298.905309 
L 134.523336 298.844984 
L 134.625728 298.724334 
L 135.525504 298.664009 
L 135.559659 298.543359 
L 136.944526 298.483034 
L 136.944526 298.42271 
L 137.721923 298.362385 
L 137.74606 298.241735 
L 138.106682 298.18141 
L 138.106682 298.121085 
L 138.491886 298.06076 
L 138.525057 297.94011 
L 139.0257 297.879785 
L 139.0257 297.81946 
L 139.328711 297.759135 
L 139.411374 297.638485 
L 140.452244 297.578161 
L 140.452244 297.517836 
L 140.795076 297.457511 
L 140.795076 297.397186 
L 141.075493 297.336861 
L 141.113163 297.216211 
L 141.833002 297.155886 
L 141.909478 297.035236 
L 142.362387 296.974911 
L 142.362387 296.914586 
L 142.576551 296.854261 
L 142.673195 296.733612 
L 142.916469 296.673287 
L 143.003489 296.492312 
L 143.171069 296.431987 
L 143.220541 296.311337 
L 143.474691 296.251012 
L 143.56862 296.130362 
L 144.175117 296.070037 
L 144.26113 295.889062 
L 144.482657 295.828738 
L 144.482657 295.768413 
L 145.030059 295.708088 
L 145.030059 295.647763 
L 145.255181 295.587438 
L 145.285937 295.466788 
L 145.415796 295.406463 
L 145.415796 295.346138 
L 146.156545 295.285813 
L 146.156545 295.225488 
L 146.403422 295.165163 
L 146.425701 295.044513 
L 146.535492 294.984189 
L 146.535492 294.923864 
L 146.877094 294.863539 
L 146.877094 294.803214 
L 147.111347 294.742889 
L 147.111347 294.682564 
L 147.695701 294.622239 
L 147.695701 294.561914 
L 148.12555 294.501589 
L 148.139371 294.380939 
L 148.528615 294.320614 
L 148.631259 294.13964 
L 148.772735 294.079315 
L 148.836781 293.958665 
L 148.906732 293.89834 
L 149.008883 293.65704 
L 149.356019 293.596715 
L 149.384318 293.476065 
L 150.055768 293.41574 
L 150.163449 293.295091 
L 150.292036 293.234766 
L 150.397677 293.114116 
L 150.459651 293.053791 
L 150.471428 292.933141 
L 150.766891 292.872816 
L 150.863267 292.752166 
L 151.428445 292.691841 
L 151.504943 292.571191 
L 151.626143 292.510866 
L 151.626143 292.450542 
L 151.788368 292.390217 
L 151.897249 292.269567 
L 152.05955 292.209242 
L 152.096417 292.088592 
L 152.398469 292.028267 
L 152.456422 291.847292 
L 152.7197 291.786967 
L 152.780585 291.545668 
L 153.055303 291.485343 
L 153.092757 291.364693 
L 153.561672 291.304368 
L 153.561672 291.244043 
L 153.847385 291.183718 
L 153.874906 291.063068 
L 154.008247 291.002743 
L 154.008247 290.942418 
L 154.815404 290.882093 
L 154.815404 290.821768 
L 155.06087 290.761444 
L 155.06087 290.701119 
L 155.24297 290.640794 
L 155.24297 290.580469 
L 155.414644 290.520144 
L 155.492765 290.399494 
L 155.821758 290.339169 
L 155.903316 290.097869 
L 156.197122 290.037544 
L 156.197122 289.977219 
L 156.600183 289.916895 
L 156.600183 289.85657 
L 156.784066 289.796245 
L 156.784066 289.73592 
L 157.126934 289.675595 
L 157.196245 289.49462 
L 157.247724 289.434295 
L 157.354483 289.25332 
L 157.663252 289.192995 
L 157.710108 289.072346 
L 157.919926 289.012021 
L 157.919926 288.951696 
L 158.401616 288.891371 
L 158.401616 288.831046 
L 159.027119 288.770721 
L 159.075834 288.650071 
L 159.490588 288.589746 
L 159.490588 288.529421 
L 159.762228 288.469096 
L 159.762228 288.408771 
L 160.183506 288.348446 
L 160.258354 288.227797 
L 160.512563 288.167472 
L 160.573075 287.986497 
L 160.646491 287.926172 
L 160.709085 287.745197 
L 160.901705 287.684872 
L 160.974484 287.503897 
L 161.617812 287.443572 
L 161.6905 287.202273 
L 162.148228 287.141948 
L 162.207257 286.960973 
L 162.31134 286.900648 
L 162.370668 286.779998 
L 162.502751 286.719673 
L 162.502751 286.659348 
L 162.63704 286.599023 
L 162.714811 286.478374 
L 162.856621 286.418049 
L 162.856621 286.357724 
L 163.143141 286.297399 
L 163.226003 285.935449 
L 163.530165 285.875124 
L 163.530165 285.814799 
L 163.8024 285.754474 
L 163.901069 285.45285 
L 164.097436 285.392525 
L 164.140125 285.21155 
L 164.271718 285.151225 
L 164.271718 285.0909 
L 164.617878 285.030575 
L 164.712048 284.728951 
L 164.823282 284.668626 
L 164.887437 284.427326 
L 165.13559 284.367001 
L 165.230037 284.186026 
L 165.295881 284.125701 
L 165.366975 284.005051 
L 165.531611 283.944727 
L 165.642566 283.763752 
L 166.084339 283.703427 
L 166.137358 283.401802 
L 166.308216 283.341477 
L 166.308216 283.281152 
L 166.564137 283.220827 
L 166.564137 283.160502 
L 166.791933 283.100178 
L 166.791933 283.039853 
L 166.999732 282.979528 
L 167.104376 282.677903 
L 167.250217 282.617578 
L 167.350329 282.376278 
L 167.433631 282.315953 
L 167.468927 282.195304 
L 167.563822 282.134979 
L 167.618445 281.954004 
L 167.762591 281.893679 
L 167.773284 281.773029 
L 168.090089 281.712704 
L 168.167065 281.531729 
L 168.734677 281.471404 
L 168.734728 281.350755 
L 168.915467 281.29043 
L 169.008699 281.04913 
L 169.27363 280.988805 
L 169.27363 280.92848 
L 169.511957 280.868155 
L 169.543897 280.747505 
L 169.8752 280.68718 
L 169.980477 280.204581 
L 170.198988 280.144256 
L 170.292791 279.902956 
L 170.531713 279.842631 
L 170.602115 279.661657 
L 170.706435 279.601332 
L 170.789474 279.360032 
L 170.881636 279.299707 
L 170.970867 278.998082 
L 171.254309 278.937757 
L 171.356179 278.575808 
L 171.412851 278.515483 
L 171.484475 278.394833 
L 171.629406 278.334508 
L 171.654922 278.213858 
L 172.044548 278.153533 
L 172.136737 277.912234 
L 172.239833 277.851909 
L 172.344179 277.670934 
L 172.534196 277.610609 
L 172.625962 277.369309 
L 172.755167 277.308984 
L 172.83122 277.188335 
L 172.894171 277.12801 
L 172.966388 276.88671 
L 173.399879 276.826385 
L 173.427313 276.705735 
L 173.734731 276.64541 
L 173.801441 276.52476 
L 173.865672 276.464435 
L 173.865672 276.40411 
L 174.004542 276.343786 
L 174.016659 276.223136 
L 174.19982 276.162811 
L 174.303057 275.921511 
L 174.350093 275.861186 
L 174.410907 275.680211 
L 174.503004 275.619886 
L 174.573457 275.378587 
L 174.703802 275.318262 
L 174.703802 275.257937 
L 174.869081 275.257937 
L 174.869081 275.197612 
L 174.965403 275.016637 
L 175.048642 274.956312 
L 175.152207 274.775337 
L 175.268189 274.715012 
L 175.299905 274.594363 
L 175.424562 274.534038 
L 175.524076 274.172088 
L 175.598246 274.111763 
L 175.598246 274.051438 
L 175.879715 273.991113 
L 175.9846 273.508514 
L 176.054627 273.448189 
L 176.0859 273.327539 
L 176.328023 273.267214 
L 176.356909 273.146564 
L 176.569728 273.086239 
L 176.656621 272.84494 
L 176.762591 272.784615 
L 176.794251 272.60364 
L 176.904812 272.543315 
L 176.947909 272.302015 
L 177.15382 272.24169 
L 177.219248 272.12104 
L 177.425147 272.060716 
L 177.425147 272.000391 
L 177.619184 271.940066 
L 177.729021 271.759091 
L 177.835189 271.698766 
L 177.889177 271.578116 
L 177.98978 271.517791 
L 178.094017 271.276491 
L 178.227124 271.216167 
L 178.332245 270.854217 
L 178.402484 270.793892 
L 178.507492 270.552592 
L 178.570087 270.492267 
L 178.660081 270.190643 
L 178.703969 270.130318 
L 178.789525 269.889018 
L 178.875657 269.828693 
L 178.977072 269.647718 
L 179.015668 269.587393 
L 179.080531 269.406419 
L 179.16911 269.346094 
L 179.276226 268.984144 
L 179.30042 268.923819 
L 179.367643 268.68252 
L 179.437043 268.622195 
L 179.518097 268.501545 
L 179.675301 268.44122 
L 179.770152 268.018945 
L 179.868126 267.95862 
L 179.928489 267.717321 
L 180.147992 267.656996 
L 180.23671 267.415696 
L 180.279518 267.355371 
L 180.373924 266.872772 
L 180.416006 266.812447 
L 180.505503 266.450497 
L 180.57777 266.390172 
L 180.611722 266.269522 
L 180.704998 266.209197 
L 180.775393 266.028223 
L 180.910568 265.967898 
L 180.982995 265.847248 
L 181.055396 265.786923 
L 181.116802 265.485298 
L 181.197621 265.424973 
L 181.241413 265.243999 
L 181.389112 265.183674 
L 181.468691 264.821724 
L 181.534426 264.761399 
L 181.626428 264.640749 
L 181.701697 264.580424 
L 181.798688 264.2788 
L 181.8194 264.218475 
L 181.917271 263.856525 
L 181.955016 263.7962 
L 182.014212 263.494576 
L 182.13823 263.434251 
L 182.234904 263.192951 
L 182.325507 263.132626 
L 182.406912 263.011976 
L 182.478725 262.951651 
L 182.576289 262.469052 
L 182.636287 262.408727 
L 182.648497 262.227752 
L 182.79053 262.167427 
L 182.897469 261.865803 
L 182.926147 261.805478 
L 183.033384 261.202228 
L 183.134535 261.141903 
L 183.243595 260.779954 
L 183.25189 260.719629 
L 183.324032 260.297354 
L 183.384162 260.237029 
L 183.471974 259.87508 
L 183.521425 259.814755 
L 183.60022 259.271831 
L 183.678664 259.211506 
L 183.754607 258.789231 
L 183.879246 258.728906 
L 183.984278 258.005007 
L 184.035851 257.944682 
L 184.144174 257.643058 
L 184.190491 257.582733 
L 184.29592 256.979483 
L 184.305422 256.919158 
L 184.415063 256.376234 
L 184.448731 256.315909 
L 184.494184 256.074609 
L 184.625683 256.014284 
L 184.710596 255.83331 
L 184.751572 255.772985 
L 184.793443 255.47136 
L 184.951098 255.411035 
L 185.059345 254.928436 
L 185.075931 254.868111 
L 185.148618 254.747461 
L 185.208564 254.687136 
L 185.247207 254.506161 
L 185.385963 254.445836 
L 185.465775 254.144212 
L 185.500078 254.083887 
L 185.598965 253.420312 
L 185.693005 253.359988 
L 185.702634 253.239338 
L 185.822291 253.179013 
L 185.918115 252.756738 
L 185.961476 252.696413 
L 186.059491 252.394789 
L 186.163584 252.334464 
L 186.253388 252.093164 
L 186.368091 252.032839 
L 186.474368 251.369265 
L 186.549223 251.30894 
L 186.630094 250.886665 
L 186.663045 250.826341 
L 186.755328 250.464391 
L 186.786789 250.404066 
L 186.894481 249.921467 
L 186.929552 249.861142 
L 186.929552 249.800817 
L 187.069004 249.740492 
L 187.159579 249.318217 
L 187.229771 249.257892 
L 187.311273 248.895943 
L 187.373265 248.835618 
L 187.475956 248.353018 
L 187.577018 248.292694 
L 187.685615 247.629119 
L 187.778403 247.568794 
L 187.881148 247.327495 
L 187.911729 247.26717 
L 188.017703 246.90522 
L 188.085341 246.844895 
L 188.1891 246.422621 
L 188.299407 246.362296 
L 188.401025 245.698722 
L 188.465695 245.638397 
L 188.575147 245.216122 
L 188.60454 245.155797 
L 188.708587 244.371573 
L 188.734947 244.311248 
L 188.838386 243.587349 
L 188.854518 243.527024 
L 188.957513 242.7428 
L 188.98657 242.682475 
L 189.090885 242.139551 
L 189.108853 242.079226 
L 189.216581 241.596626 
L 189.249252 241.536301 
L 189.343893 240.993377 
L 189.379765 240.933052 
L 189.490261 240.209153 
L 189.522355 240.148828 
L 189.627421 239.907528 
L 189.643052 239.847203 
L 189.729247 239.605904 
L 189.780437 239.545579 
L 189.889119 239.062979 
L 189.910579 239.002654 
L 189.986759 238.640705 
L 190.037905 238.58038 
L 190.139725 238.33908 
L 190.208586 238.278755 
L 190.282035 237.796156 
L 190.344101 237.735831 
L 190.45465 237.253232 
L 190.483539 237.192907 
L 190.594455 236.529332 
L 190.599426 236.469007 
L 190.702064 236.046733 
L 190.753404 235.986408 
L 190.86013 235.021209 
L 190.893487 234.960884 
L 190.984606 234.478285 
L 191.054691 234.41796 
L 191.127381 234.236985 
L 191.198724 234.17666 
L 191.308913 233.633736 
L 191.320956 233.573411 
L 191.395642 233.332111 
L 191.43707 233.271786 
L 191.461805 233.030487 
L 191.556585 232.970162 
L 191.661869 232.547887 
L 191.731172 232.487562 
L 191.808262 231.944638 
L 191.863871 231.884313 
L 191.970362 231.522363 
L 192.023255 231.462038 
L 192.121772 230.979439 
L 192.151781 230.919114 
L 192.223568 230.37619 
L 192.312157 230.315865 
L 192.41019 229.712615 
L 192.449359 229.65229 
L 192.545212 229.230016 
L 192.572516 229.169691 
L 192.678135 228.626767 
L 192.736773 228.566442 
L 192.846876 227.963192 
L 192.870755 227.902868 
L 192.955424 226.997994 
L 193.000318 226.937669 
L 193.101891 226.696369 
L 193.129044 226.636044 
L 193.221184 226.153445 
L 193.287755 226.09312 
L 193.388379 225.550195 
L 193.417835 225.48987 
L 193.524968 225.007271 
L 193.599306 224.946946 
L 193.700095 224.283372 
L 193.71415 224.223047 
L 193.790595 223.981747 
L 193.835106 223.921422 
L 193.933927 223.438823 
L 193.967537 223.378498 
L 194.066543 222.835574 
L 194.133759 222.775249 
L 194.176137 222.654599 
L 194.253235 222.594274 
L 194.360314 221.4481 
L 194.37296 221.387775 
L 194.47964 220.905176 
L 194.498242 220.844851 
L 194.582004 220.362251 
L 194.637379 220.301926 
L 194.700126 219.879652 
L 194.775799 219.819327 
L 194.880659 219.276403 
L 194.918411 219.216078 
L 195.022297 218.914453 
L 195.065926 218.854128 
L 195.173696 218.311204 
L 195.189732 218.250879 
L 195.272743 217.52698 
L 195.312974 217.466655 
L 195.404124 216.803081 
L 195.456515 216.742756 
L 195.558582 216.139506 
L 195.57594 216.079181 
L 195.681651 215.355282 
L 195.724433 215.294957 
L 195.827817 214.933008 
L 195.881028 214.872683 
L 195.978914 214.209109 
L 196.031814 214.148784 
L 196.136659 213.605859 
L 196.150129 213.545534 
L 196.215551 212.821635 
L 196.270812 212.76131 
L 196.380145 212.339036 
L 196.461847 212.278711 
L 196.554194 211.675462 
L 196.582432 211.615137 
L 196.691766 210.951562 
L 196.709345 210.891238 
L 196.785935 210.408638 
L 196.896389 210.348313 
L 196.935544 210.227663 
L 197.081664 210.167338 
L 197.181465 209.443439 
L 197.250256 209.383114 
L 197.342924 208.417915 
L 197.379506 208.357591 
L 197.48734 207.694016 
L 197.513167 207.633691 
L 197.621254 206.849467 
L 197.636962 206.789142 
L 197.728511 206.185893 
L 197.786998 206.125568 
L 197.897494 205.341344 
L 197.91649 205.281019 
L 198.014765 204.858745 
L 198.054089 204.79842 
L 198.150532 204.255495 
L 198.174724 204.19517 
L 198.228173 203.953871 
L 198.346597 203.893546 
L 198.443246 203.471271 
L 198.458605 203.410946 
L 198.560731 203.048997 
L 198.636869 202.988672 
L 198.738433 202.325098 
L 198.790308 202.264773 
L 198.880676 201.782173 
L 198.978489 201.721848 
L 199.063152 201.601199 
L 199.137935 201.540874 
L 199.203902 201.299574 
L 199.254886 201.239249 
L 199.364013 200.816974 
L 199.395656 200.75665 
L 199.501151 200.213725 
L 199.525035 200.1534 
L 199.599997 199.670801 
L 199.661329 199.610476 
L 199.769786 198.826252 
L 199.798319 198.765927 
L 199.903074 198.102353 
L 199.965582 198.042028 
L 200.044256 197.257804 
L 200.124343 197.197479 
L 200.183379 196.714879 
L 200.264846 196.654554 
L 200.36835 196.11163 
L 200.397392 196.051305 
L 200.502472 195.74968 
L 200.556928 195.689355 
L 200.659385 195.206756 
L 200.705695 195.146431 
L 200.81534 194.362207 
L 200.850597 194.301882 
L 200.954535 193.819283 
L 200.989214 193.758958 
L 201.091959 193.276358 
L 201.139459 193.216033 
L 201.232439 192.793759 
L 201.281363 192.733434 
L 201.3784 192.250835 
L 201.417567 192.19051 
L 201.523624 191.58726 
L 201.549088 191.526935 
L 201.651525 190.803036 
L 201.692563 190.742711 
L 201.779691 190.380762 
L 201.84208 190.320437 
L 201.939216 189.837837 
L 201.96625 189.777512 
L 202.074851 189.174263 
L 202.107667 189.113938 
L 202.214707 188.691664 
L 202.287132 188.631339 
L 202.372098 188.390039 
L 202.423556 188.329714 
L 202.515633 187.847115 
L 202.619431 187.78679 
L 202.728152 187.42484 
L 202.739594 187.364515 
L 202.843145 186.881916 
L 202.871402 186.821591 
L 202.967772 186.459641 
L 203.054254 186.399316 
L 203.165292 186.037367 
L 203.177735 185.977042 
L 203.248749 185.675417 
L 203.316248 185.615092 
L 203.422732 185.011843 
L 203.465122 184.951518 
L 203.56197 184.529244 
L 203.617105 184.468919 
L 203.716597 184.106969 
L 203.778079 184.046644 
L 203.851698 183.322745 
L 203.922774 183.26242 
L 204.029834 182.900471 
L 204.054831 182.840146 
L 204.144492 182.417871 
L 204.19967 182.357546 
L 204.292464 181.693972 
L 204.361798 181.633647 
L 204.448346 181.151048 
L 204.508706 181.090723 
L 204.575413 180.789098 
L 204.634952 180.728773 
L 204.72617 180.246174 
L 204.780282 180.185849 
L 204.877413 179.823899 
L 204.910888 179.763574 
L 205.01929 179.3413 
L 205.092761 179.280975 
L 205.19054 178.798375 
L 205.222836 178.73805 
L 205.313588 178.315776 
L 205.369774 178.255451 
L 205.461951 177.893501 
L 205.51571 177.833176 
L 205.594741 177.410902 
L 205.664783 177.350577 
L 205.752773 176.807653 
L 205.846057 176.747328 
L 205.944521 176.023429 
L 206.004725 176.023429 
L 206.004725 175.963104 
L 206.10946 175.661479 
L 206.150824 175.601154 
L 206.245165 175.05823 
L 206.274041 174.997905 
L 206.384995 174.57563 
L 206.400497 174.515305 
L 206.509103 174.153356 
L 206.525296 174.093031 
L 206.578478 173.791406 
L 206.662655 173.731081 
L 206.717862 173.188157 
L 206.805888 173.127832 
L 206.894701 172.705558 
L 206.95277 172.645233 
L 207.038414 172.283283 
L 207.11731 172.222958 
L 207.214046 171.800684 
L 207.30653 171.740359 
L 207.415762 171.257759 
L 207.424675 171.197434 
L 207.520501 170.594185 
L 207.556424 170.53386 
L 207.641831 169.990936 
L 207.683705 169.930611 
L 207.788587 169.689311 
L 207.894398 169.628986 
L 208.002517 169.086062 
L 208.01177 169.025737 
L 208.084365 168.663787 
L 208.132964 168.603462 
L 208.239774 168.301838 
L 208.258238 168.241513 
L 208.334368 167.879563 
L 208.429195 167.819238 
L 208.535851 167.517614 
L 208.584687 167.457289 
L 208.675871 167.336639 
L 208.702531 167.276314 
L 208.779334 166.914364 
L 208.924487 166.854039 
L 209.023116 166.311115 
L 209.234485 166.25079 
L 209.320997 165.587216 
L 209.365809 165.526891 
L 209.443436 165.225266 
L 209.631616 165.164941 
L 209.739489 164.682342 
L 209.774303 164.682342 
L 209.774303 164.622017 
L 209.846537 164.079093 
L 209.896202 164.018768 
L 209.962735 163.837793 
L 210.064724 163.777468 
L 210.16923 163.415518 
L 210.227067 163.355194 
L 210.311292 162.993244 
L 210.374611 162.932919 
L 210.467317 162.570969 
L 210.546388 162.510645 
L 210.638034 162.269345 
L 210.673006 162.20902 
L 210.712484 162.08837 
L 210.790385 162.028045 
L 210.86597 161.84707 
L 210.942408 161.786745 
L 211.03887 161.485121 
L 211.119058 161.424796 
L 211.227614 161.183496 
L 211.26288 161.123171 
L 211.372723 160.761222 
L 211.415519 160.700897 
L 211.492741 160.399272 
L 211.545554 160.338947 
L 211.637915 159.796023 
L 211.693633 159.735698 
L 211.801865 159.373748 
L 211.812251 159.313423 
L 211.917487 158.770499 
L 212.037068 158.710174 
L 212.101448 158.589524 
L 212.163104 158.589524 
L 212.163104 158.529199 
L 212.26993 157.986275 
L 212.326974 157.92595 
L 212.37266 157.68465 
L 212.526533 157.624325 
L 212.570473 157.322701 
L 212.672461 157.262376 
L 212.733013 156.900426 
L 212.812347 156.840101 
L 212.899401 156.478152 
L 212.998288 156.417827 
L 213.088886 156.055877 
L 213.11454 155.995552 
L 213.156171 155.754252 
L 213.244466 155.693928 
L 213.298643 155.573278 
L 213.558304 155.512953 
L 213.653915 155.271653 
L 213.676426 155.211328 
L 213.785736 154.849379 
L 213.794553 154.789054 
L 213.877785 154.427104 
L 213.920412 154.366779 
L 214.003633 154.246129 
L 214.096813 154.185804 
L 214.203579 153.944505 
L 214.255952 153.88418 
L 214.292272 153.703205 
L 214.400239 153.64288 
L 214.493281 153.160281 
L 214.566208 153.099956 
L 214.620097 152.677681 
L 214.729404 152.617356 
L 214.830814 152.315732 
L 214.850287 152.255407 
L 214.919719 151.953782 
L 214.979011 151.893457 
L 215.084174 151.471183 
L 215.166517 151.410858 
L 215.252718 151.169558 
L 215.360554 151.109233 
L 215.46689 150.867933 
L 215.541145 150.807608 
L 215.621336 150.505984 
L 215.694154 150.445659 
L 215.757378 150.264684 
L 215.859112 150.204359 
L 215.897024 149.963059 
L 216.111361 149.902734 
L 216.179601 149.661435 
L 216.32384 149.60111 
L 216.394043 149.35981 
L 216.549853 149.299485 
L 216.630251 149.058185 
L 216.671703 148.99786 
L 216.770437 148.756561 
L 216.841971 148.696236 
L 216.92608 148.394611 
L 216.962493 148.334286 
L 217.049988 148.092987 
L 217.241262 148.032662 
L 217.336214 147.851687 
L 217.413649 147.791362 
L 217.507764 147.550062 
L 217.560608 147.489737 
L 217.648756 147.248437 
L 217.737664 147.188113 
L 217.843289 146.645188 
L 217.92059 146.584863 
L 218.031305 146.283239 
L 218.08113 146.222914 
L 218.148328 146.102264 
L 218.318593 146.041939 
L 218.419912 145.679989 
L 218.439997 145.619664 
L 218.545461 145.19739 
L 218.666671 145.137065 
L 218.749431 144.775115 
L 218.834402 144.71479 
L 218.924822 144.413166 
L 218.982527 144.352841 
L 219.045796 144.171866 
L 219.141597 144.111541 
L 219.141597 144.051216 
L 219.29517 143.990891 
L 219.397109 143.809917 
L 219.506448 143.749592 
L 219.614455 143.266992 
L 219.751151 143.206667 
L 219.832231 142.965368 
L 220.105012 142.905043 
L 220.108067 142.724068 
L 220.286361 142.663743 
L 220.379289 142.422443 
L 220.418654 142.362118 
L 220.519693 141.939844 
L 220.595556 141.879519 
L 220.68816 141.457244 
L 220.725719 141.396919 
L 220.798393 141.215945 
L 220.957755 141.15562 
L 221.029778 140.79367 
L 221.224702 140.733345 
L 221.271308 140.612695 
L 221.415535 140.55237 
L 221.472412 140.311071 
L 221.608018 140.250746 
L 221.643338 140.069771 
L 221.737757 140.009446 
L 221.81414 139.768146 
L 222.004519 139.707821 
L 222.108357 139.285547 
L 222.243312 139.225222 
L 222.307332 138.863272 
L 222.377952 138.802947 
L 222.475733 138.561648 
L 222.684143 138.501323 
L 222.788259 138.139373 
L 222.929317 138.079048 
L 222.984596 137.958398 
L 223.10106 137.898074 
L 223.208691 137.294824 
L 223.222241 137.234499 
L 223.304036 136.932875 
L 223.377699 136.87255 
L 223.433233 136.691575 
L 223.506942 136.63125 
L 223.613571 136.208975 
L 223.648563 136.148651 
L 223.728635 135.847026 
L 223.849241 135.786701 
L 223.849241 135.726376 
L 224.024529 135.666051 
L 224.120321 135.424751 
L 224.160275 135.364426 
L 224.185065 135.183452 
L 224.395081 135.123127 
L 224.482973 134.700852 
L 224.518588 134.640527 
L 224.611284 134.338903 
L 224.910286 134.278578 
L 225.010911 134.037278 
L 225.059133 134.037278 
L 225.059133 133.976953 
L 225.159695 133.615004 
L 225.208156 133.554679 
L 225.274333 133.313379 
L 225.348772 133.253054 
L 225.455677 133.011754 
L 225.487643 132.951429 
L 225.597553 132.770455 
L 225.65976 132.71013 
L 225.753039 132.408505 
L 225.854759 132.34818 
L 225.95851 131.98623 
L 226.008047 131.925906 
L 226.020416 131.744931 
L 226.153243 131.684606 
L 226.261592 131.202006 
L 226.279313 131.141681 
L 226.382114 130.659082 
L 226.557101 130.598757 
L 226.650786 130.297132 
L 226.778462 130.236808 
L 226.803911 129.995508 
L 226.944724 129.935183 
L 226.996146 129.452583 
L 227.153993 129.392259 
L 227.219832 129.090634 
L 227.314092 129.030309 
L 227.383284 128.728684 
L 227.614689 128.668359 
L 227.7134 128.42706 
L 227.759086 128.366735 
L 227.859659 128.125435 
L 227.932482 128.06511 
L 228.040246 127.82381 
L 228.129149 127.763485 
L 228.205588 127.582511 
L 228.303959 127.522186 
L 228.414128 127.220561 
L 228.570705 127.160236 
L 228.612497 126.918936 
L 228.787299 126.858612 
L 228.839803 126.556987 
L 229.031922 126.496662 
L 229.13998 126.134712 
L 229.171201 126.074387 
L 229.256771 125.772763 
L 229.367723 125.712438 
L 229.367723 125.652113 
L 229.519737 125.591788 
L 229.595786 125.350488 
L 229.729181 125.290163 
L 229.804957 124.928214 
L 229.875053 124.928214 
L 229.875053 124.867889 
L 229.953878 124.626589 
L 230.033708 124.566264 
L 230.033708 124.505939 
L 230.20085 124.445614 
L 230.281263 124.204315 
L 230.337354 124.14399 
L 230.410839 123.842365 
L 230.490285 123.78204 
L 230.580449 123.420091 
L 230.663104 123.359766 
L 230.774178 123.178791 
L 230.847467 123.118466 
L 230.950381 122.756516 
L 230.995033 122.696191 
L 231.092908 122.273917 
L 231.166028 122.213592 
L 231.26146 121.911967 
L 231.333448 121.851642 
L 231.432042 121.550018 
L 231.460311 121.489693 
L 231.563667 120.886444 
L 231.626351 120.826119 
L 231.717217 120.403844 
L 231.806576 120.343519 
L 231.889787 119.921245 
L 231.925991 119.86092 
L 232.026553 119.559295 
L 232.075093 119.49897 
L 232.171151 119.076696 
L 232.231552 119.016371 
L 232.338037 118.714746 
L 232.389115 118.654421 
L 232.479043 118.533771 
L 232.576626 118.473446 
L 232.609986 118.292472 
L 232.728237 118.232147 
L 232.814498 117.930522 
L 232.975466 117.870197 
L 233.077804 117.508248 
L 233.256025 117.447923 
L 233.355739 117.025648 
L 233.42335 116.965323 
L 233.453305 116.844673 
L 233.602077 116.784348 
L 233.709896 116.422399 
L 233.80188 116.362074 
L 233.901569 116.060449 
L 234.02978 116.000124 
L 234.087237 115.57785 
L 234.166738 115.517525 
L 234.27186 115.2159 
L 234.36786 115.155575 
L 234.418366 114.914276 
L 234.486747 114.853951 
L 234.596016 114.612651 
L 234.729851 114.552326 
L 234.811162 114.311026 
L 234.901845 114.250701 
L 234.981724 113.828427 
L 235.054855 113.768102 
L 235.097674 113.587127 
L 235.18134 113.526802 
L 235.267183 113.164853 
L 235.528923 113.104528 
L 235.616338 112.863228 
L 235.723187 112.802903 
L 235.809894 112.561603 
L 235.872207 112.501278 
L 235.972305 112.079004 
L 236.099843 112.018679 
L 236.134053 111.898029 
L 236.221215 111.837704 
L 236.325427 111.475755 
L 236.356154 111.41543 
L 236.443624 111.05348 
L 236.526602 110.993155 
L 236.635709 110.631206 
L 236.683811 110.570881 
L 236.793503 110.329581 
L 236.82214 110.269256 
L 236.871652 110.088281 
L 237.011399 110.027956 
L 237.095969 109.846982 
L 237.228799 109.786657 
L 237.294848 109.666007 
L 237.47493 109.605682 
L 237.581925 109.364382 
L 237.601569 109.364382 
L 237.601569 109.304057 
L 237.67756 108.881783 
L 237.796729 108.821458 
L 237.888555 108.700808 
L 237.926815 108.640483 
L 238.02246 108.338858 
L 238.101714 108.278533 
L 238.203159 108.097559 
L 238.272917 108.037234 
L 238.291175 107.916584 
L 238.430337 107.856259 
L 238.528819 107.554634 
L 238.596217 107.494309 
L 238.690711 107.01171 
L 238.726212 106.951385 
L 238.827228 106.77041 
L 239.037258 106.710085 
L 239.128311 106.408461 
L 239.265764 106.348136 
L 239.306675 106.167161 
L 239.466244 106.106836 
L 239.55369 105.805211 
L 239.64912 105.744886 
L 239.722197 105.563912 
L 239.832444 105.503587 
L 239.888721 105.141637 
L 239.954943 105.081312 
L 240.008622 104.960662 
L 240.121502 104.900337 
L 240.20154 104.598713 
L 240.246287 104.538388 
L 240.332589 104.297088 
L 240.456326 104.236763 
L 240.51533 103.814489 
L 240.666133 103.754164 
L 240.746302 103.512864 
L 240.8859 103.452539 
L 240.922354 103.331889 
L 241.110518 103.271564 
L 241.190706 102.96994 
L 241.246533 102.909615 
L 241.32714 102.60799 
L 241.400646 102.547665 
L 241.427187 102.427015 
L 241.555237 102.36669 
L 241.663856 101.763441 
L 241.70648 101.703116 
L 241.812082 101.280842 
L 241.860629 101.220517 
L 241.956724 101.039542 
L 242.05183 100.979217 
L 242.135027 100.737917 
L 242.242169 100.677592 
L 242.34545 100.436293 
L 242.390129 100.375968 
L 242.484467 100.194993 
L 242.61374 100.134668 
L 242.672896 99.893368 
L 242.848464 99.833043 
L 242.881329 99.652069 
L 243.032842 99.591744 
L 243.11012 99.350444 
L 243.155997 99.290119 
L 243.242588 99.048819 
L 243.307703 98.988494 
L 243.398436 98.505895 
L 243.473767 98.44557 
L 243.557071 98.20427 
L 243.736408 98.143945 
L 243.774984 98.023295 
L 244.149957 97.962971 
L 244.202684 97.842321 
L 244.312574 97.781996 
L 244.312574 97.721671 
L 244.43594 97.661346 
L 244.522525 97.359721 
L 244.60907 97.299396 
L 244.642205 97.058097 
L 244.765983 96.997772 
L 244.824911 96.877122 
L 244.983402 96.816797 
L 245.086734 96.696147 
L 245.129666 96.635822 
L 245.194605 96.334197 
L 245.272661 96.273873 
L 245.383695 96.032573 
L 245.585319 95.972248 
L 245.685114 95.791273 
L 245.731616 95.730948 
L 245.839884 95.429324 
L 245.863 95.368999 
L 245.887245 95.127699 
L 246.028487 95.067374 
L 246.094898 94.886399 
L 246.242742 94.826074 
L 246.283724 94.584775 
L 246.428687 94.52445 
L 246.535722 94.4038 
L 246.575027 94.343475 
L 246.683265 93.860875 
L 246.727193 93.80055 
L 246.833622 93.559251 
L 246.976991 93.498926 
L 247.080825 93.257626 
L 247.190977 93.197301 
L 247.293855 92.895676 
L 247.408272 92.835352 
L 247.502027 92.594052 
L 247.646368 92.533727 
L 247.70775 92.352752 
L 247.819431 92.292427 
L 247.890028 92.111452 
L 248.024544 92.051127 
L 248.134037 91.870153 
L 248.23668 91.809828 
L 248.304528 91.568528 
L 248.454795 91.508203 
L 248.528561 91.266903 
L 248.708867 91.206578 
L 248.78599 90.723979 
L 249.112661 90.663654 
L 249.194348 90.362029 
L 249.251212 90.301705 
L 249.268594 90.181055 
L 249.476449 90.12073 
L 249.560945 89.698455 
L 249.612558 89.63813 
L 249.705586 89.51748 
L 249.781534 89.457156 
L 249.867676 89.155531 
L 249.954847 89.095206 
L 250.034707 88.793581 
L 250.175987 88.733256 
L 250.271323 88.552282 
L 250.336971 88.491957 
L 250.447477 88.130007 
L 250.585879 88.069682 
L 250.689604 87.828382 
L 250.730279 87.768058 
L 250.838449 87.587083 
L 250.849738 87.526758 
L 250.945597 87.104483 
L 251.046418 87.044158 
L 251.157282 86.802859 
L 251.22312 86.742534 
L 251.323837 86.561559 
L 251.387339 86.501234 
L 251.451166 86.320259 
L 251.601531 86.259934 
L 251.625805 86.018635 
L 251.854502 85.95831 
L 251.95906 85.59636 
L 252.046758 85.536035 
L 252.101509 85.35506 
L 252.326295 85.294735 
L 252.437189 85.174086 
L 252.492656 85.113761 
L 252.583818 84.932786 
L 252.64691 84.872461 
L 252.7441 84.691486 
L 252.986525 84.631161 
L 252.986525 84.570836 
L 253.152533 84.510511 
L 253.251731 84.389862 
L 253.34181 84.329537 
L 253.409004 84.208887 
L 253.468991 84.148562 
L 253.533737 83.967587 
L 253.76645 83.907262 
L 253.87628 83.545312 
L 253.977285 83.484988 
L 254.052699 83.183363 
L 254.11746 83.183363 
L 254.11746 83.123038 
L 254.194715 82.881738 
L 254.263574 82.821413 
L 254.344001 82.700763 
L 254.385123 82.640439 
L 254.482067 82.218164 
L 254.541175 82.157839 
L 254.541175 82.097514 
L 254.776203 82.037189 
L 254.877777 81.67524 
L 255.020638 81.614915 
L 255.100793 81.494265 
L 255.229932 81.43394 
L 255.273805 81.19264 
L 255.351544 81.132315 
L 255.456675 80.951341 
L 255.554482 80.891016 
L 255.644563 80.649716 
L 255.672662 80.589391 
L 255.672662 80.529066 
L 255.910073 80.468741 
L 255.95636 80.348091 
L 256.101885 80.287766 
L 256.201079 80.106792 
L 256.226573 80.046467 
L 256.307165 79.805167 
L 256.430315 79.744842 
L 256.430315 79.684517 
L 256.897548 79.624192 
L 256.917044 79.503542 
L 257.058303 79.443217 
L 257.058303 79.382892 
L 257.253797 79.322567 
L 257.311277 79.141593 
L 257.632473 79.081268 
L 257.714686 78.839968 
L 258.07312 78.779643 
L 258.162958 78.658993 
L 258.274988 78.598668 
L 258.353943 78.357369 
L 258.606168 78.297044 
L 258.606168 78.236719 
L 258.875002 78.176394 
L 258.983088 78.055744 
L 259.040458 77.995419 
L 259.132042 77.814444 
L 259.291545 77.754119 
L 259.365354 77.573145 
L 259.575585 77.51282 
L 259.681293 77.331845 
L 259.777457 77.27152 
L 259.861265 77.15087 
L 259.996159 77.090545 
L 259.996159 77.03022 
L 260.24696 76.969895 
L 260.276447 76.849245 
L 260.433642 76.78892 
L 260.454171 76.668271 
L 260.76314 76.607946 
L 260.844827 76.366646 
L 261.060392 76.306321 
L 261.060392 76.245996 
L 261.332918 76.185671 
L 261.443084 75.944371 
L 261.457503 75.884047 
L 261.501007 75.703072 
L 261.617302 75.642747 
L 261.634393 75.522097 
L 261.914801 75.461772 
L 262.014431 75.280797 
L 262.098272 75.220472 
L 262.139638 75.099822 
L 262.322079 75.039498 
L 262.322079 74.979173 
L 262.574524 74.918848 
L 262.672666 74.737873 
L 262.815096 74.677548 
L 262.815096 74.617223 
L 262.978296 74.556898 
L 263.03613 74.375923 
L 263.323084 74.315598 
L 263.429922 74.194949 
L 263.499984 74.134624 
L 263.607476 73.953649 
L 263.982634 73.893324 
L 264.077153 73.712349 
L 264.224225 73.652024 
L 264.243064 73.531374 
L 264.441665 73.471049 
L 264.54144 73.169425 
L 264.640523 73.1091 
L 264.640523 73.048775 
L 264.803987 72.98845 
L 264.86 72.807475 
L 265.050304 72.74715 
L 265.160747 72.566175 
L 265.241588 72.50585 
L 265.307297 72.385201 
L 265.466159 72.324876 
L 265.48953 72.143901 
L 265.64532 72.083576 
L 265.744395 71.842276 
L 265.89428 71.781951 
L 265.980232 71.540652 
L 266.166133 71.480327 
L 266.273089 71.359677 
L 266.640415 71.299352 
L 266.739761 71.178702 
L 266.831891 71.118377 
L 266.861674 70.997727 
L 267.097932 70.937402 
L 267.119407 70.816752 
L 267.413821 70.756428 
L 267.465106 70.635778 
L 267.615635 70.575453 
L 267.722696 70.334153 
L 267.840994 70.273828 
L 267.840994 70.213503 
L 267.961426 70.213503 
L 267.961426 70.153178 
L 268.066576 70.032528 
L 268.400177 69.972203 
L 268.481182 69.851554 
L 268.937421 69.791229 
L 268.937421 69.730904 
L 269.320335 69.670579 
L 269.421858 69.489604 
L 269.703473 69.429279 
L 269.706982 69.308629 
L 269.923212 69.248304 
L 269.927309 69.127654 
L 270.119224 69.06733 
L 270.173213 68.94668 
L 270.361396 68.886355 
L 270.361396 68.82603 
L 270.662208 68.765705 
L 270.662208 68.70538 
L 270.922172 68.645055 
L 270.922172 68.58473 
L 271.093993 68.524405 
L 271.19555 68.403755 
L 271.614778 68.34343 
L 271.614778 68.283105 
L 271.82877 68.222781 
L 271.9277 68.102131 
L 272.003127 68.041806 
L 272.054946 67.860831 
L 272.254986 67.800506 
L 272.317677 67.619531 
L 272.583331 67.559206 
L 272.651189 67.438556 
L 273.22896 67.378232 
L 273.22896 67.317907 
L 273.680645 67.257582 
L 273.735733 67.076607 
L 274.197613 67.016282 
L 274.246008 66.835307 
L 274.552203 66.774982 
L 274.552203 66.714657 
L 274.711729 66.654332 
L 274.793711 66.473358 
L 275.011361 66.413033 
L 275.011361 66.352708 
L 275.409505 66.292383 
L 275.409505 66.232058 
L 275.688177 66.171733 
L 275.688177 66.111408 
L 276.253147 66.051083 
L 276.253147 65.990758 
L 276.511495 65.930433 
L 276.511495 65.870108 
L 276.800801 65.809783 
L 276.800801 65.749458 
L 277.065107 65.689134 
L 277.097541 65.568484 
L 277.42861 65.508159 
L 277.484165 65.327184 
L 277.677026 65.266859 
L 277.736101 65.085884 
L 277.981643 65.025559 
L 277.98502 64.904909 
L 278.234292 64.844585 
L 278.329757 64.723935 
L 278.404959 64.66361 
L 278.4191 64.54296 
L 279.090621 64.482635 
L 279.16607 64.361985 
L 279.249466 64.30166 
L 279.249466 64.241335 
L 279.985914 64.18101 
L 280.013865 64.06036 
L 280.596713 64.000036 
L 280.596713 63.939711 
L 280.920687 63.879386 
L 280.920687 63.819061 
L 281.501668 63.758736 
L 281.501668 63.698411 
L 282.43034 63.638086 
L 282.539365 63.517436 
L 282.866124 63.457111 
L 282.866124 63.396786 
L 283.274193 63.336461 
L 283.274193 63.276136 
L 283.468166 63.215811 
L 283.468166 63.155487 
L 283.763552 63.095162 
L 283.80838 62.914187 
L 284.234274 62.853862 
L 284.323406 62.733212 
L 285.214174 62.672887 
L 285.316096 62.491912 
L 285.602176 62.431587 
L 285.602176 62.371262 
L 285.945393 62.310937 
L 285.945393 62.250613 
L 286.759946 62.190288 
L 286.776307 62.069638 
L 287.043007 62.009313 
L 287.150581 61.828338 
L 287.401658 61.768013 
L 287.500107 61.526713 
L 287.79624 61.466388 
L 287.79624 61.406064 
L 288.015285 61.345739 
L 288.055864 61.225089 
L 288.275328 61.164764 
L 288.344456 61.044114 
L 288.452983 60.983789 
L 288.452983 60.923464 
L 288.626513 60.863139 
L 288.626513 60.802814 
L 288.875072 60.742489 
L 288.948276 60.621839 
L 289.391512 60.561515 
L 289.484241 60.38054 
L 289.985783 60.320215 
L 289.985783 60.25989 
L 290.581538 60.199565 
L 290.581538 60.13924 
L 290.868906 60.078915 
L 290.868906 60.01859 
L 291.399488 59.958265 
L 291.497493 59.837615 
L 291.585355 59.77729 
L 291.585355 59.716966 
L 291.861626 59.656641 
L 291.861626 59.535991 
L 292.339103 59.475666 
L 292.443753 59.234366 
L 292.805085 59.174041 
L 292.908002 59.053391 
L 293.340066 58.993066 
L 293.428606 58.751767 
L 294.043646 58.691442 
L 294.068299 58.570792 
L 294.504683 58.510467 
L 294.504683 58.450142 
L 294.672062 58.450142 
L 294.672062 58.389817 
L 294.755516 58.208842 
L 295.217824 58.148517 
L 295.319448 57.907218 
L 295.470706 57.846893 
L 295.470706 57.786568 
L 296.035005 57.726243 
L 296.035005 57.665918 
L 296.210181 57.605593 
L 296.210181 57.545268 
L 296.560633 57.484943 
L 296.658701 57.303968 
L 297.009898 57.243643 
L 297.009898 57.183319 
L 297.378142 57.122994 
L 297.378142 57.062669 
L 298.001166 57.002344 
L 298.001166 56.942019 
L 298.429045 56.881694 
L 298.429045 56.821369 
L 298.717141 56.761044 
L 298.717141 56.700719 
L 299.682023 56.640394 
L 299.682023 56.580069 
L 301.190755 56.519744 
L 301.257673 56.399094 
L 302.09909 56.33877 
L 302.203441 56.21812 
L 302.717698 56.157795 
L 302.717698 56.09747 
L 304.01841 56.037145 
L 304.01841 55.97682 
L 304.599487 55.916495 
L 304.599487 55.85617 
L 307.108738 55.795845 
L 307.108738 55.73552 
L 307.590346 55.675195 
L 307.590346 55.61487 
L 311.318182 55.61487 
L 311.318182 55.554545 
" style="fill:none;stroke:#1f77b4;stroke-linecap:square;stroke-width:1.5;"/>
   </g>
   <g id="line2d_13">
    <path clip-path="url(#p131d2a75b2)" d="M 57.681818 302.645455 
L 311.318182 55.554545 
" style="fill:none;stroke:#ff0000;stroke-dasharray:5.55,2.4;stroke-dashoffset:0;stroke-width:1.5;"/>
   </g>
   <g id="patch_3">
    <path d="M 45 315 
L 45 43.2 
" style="fill:none;stroke:#000000;stroke-linecap:square;stroke-linejoin:miter;stroke-width:0.8;"/>
   </g>
   <g id="patch_4">
    <path d="M 324 315 
L 324 43.2 
" style="fill:none;stroke:#000000;stroke-linecap:square;stroke-linejoin:miter;stroke-width:0.8;"/>
   </g>
   <g id="patch_5">
    <path d="M 45 315 
L 324 315 
" style="fill:none;stroke:#000000;stroke-linecap:square;stroke-linejoin:miter;stroke-width:0.8;"/>
   </g>
   <g id="patch_6">
    <path d="M 45 43.2 
L 324 43.2 
" style="fill:none;stroke:#000000;stroke-linecap:square;stroke-linejoin:miter;stroke-width:0.8;"/>
   </g>
   <g id="text_14">
    <!-- CDF of throughput -->
    <defs>
     <path d="M 64.40625 67.28125 
L 64.40625 56.890625 
Q 59.421875 61.53125 53.78125 63.8125 
Q 48.140625 66.109375 41.796875 66.109375 
Q 29.296875 66.109375 22.65625 58.46875 
Q 16.015625 50.828125 16.015625 36.375 
Q 16.015625 21.96875 22.65625 14.328125 
Q 29.296875 6.6875 41.796875 6.6875 
Q 48.140625 6.6875 53.78125 8.984375 
Q 59.421875 11.28125 64.40625 15.921875 
L 64.40625 5.609375 
Q 59.234375 2.09375 53.4375 0.328125 
Q 47.65625 -1.421875 41.21875 -1.421875 
Q 24.65625 -1.421875 15.125 8.703125 
Q 5.609375 18.84375 5.609375 36.375 
Q 5.609375 53.953125 15.125 64.078125 
Q 24.65625 74.21875 41.21875 74.21875 
Q 47.75 74.21875 53.53125 72.484375 
Q 59.328125 70.75 64.40625 67.28125 
z
" id="DejaVuSans-67"/>
     <path d="M 9.8125 72.90625 
L 51.703125 72.90625 
L 51.703125 64.59375 
L 19.671875 64.59375 
L 19.671875 43.109375 
L 48.578125 43.109375 
L 48.578125 34.8125 
L 19.671875 34.8125 
L 19.671875 0 
L 9.8125 0 
z
" id="DejaVuSans-70"/>
    </defs>
    <g transform="translate(128.97375 37.2)scale(0.12 -0.12)">
     <use xlink:href="#DejaVuSans-67"/>
     <use x="69.824219" xlink:href="#DejaVuSans-68"/>
     <use x="146.826172" xlink:href="#DejaVuSans-70"/>
     <use x="204.345703" xlink:href="#DejaVuSans-32"/>
     <use x="236.132812" xlink:href="#DejaVuSans-111"/>
     <use x="297.314453" xlink:href="#DejaVuSans-102"/>
     <use x="332.519531" xlink:href="#DejaVuSans-32"/>
     <use x="364.306641" xlink:href="#DejaVuSans-116"/>
     <use x="403.515625" xlink:href="#DejaVuSans-104"/>
     <use x="466.894531" xlink:href="#DejaVuSans-114"/>
     <use x="507.976562" xlink:href="#DejaVuSans-111"/>
     <use x="569.158203" xlink:href="#DejaVuSans-117"/>
     <use x="632.537109" xlink:href="#DejaVuSans-103"/>
     <use x="696.013672" xlink:href="#DejaVuSans-104"/>
     <use x="759.392578" xlink:href="#DejaVuSans-112"/>
     <use x="822.869141" xlink:href="#DejaVuSans-117"/>
     <use x="886.248047" xlink:href="#DejaVuSans-116"/>
    </g>
   </g>
  </g>
 </g>
 <defs>
  <clipPath id="p131d2a75b2">
   <rect height="271.8" width="279" x="45" y="43.2"/>
  </clipPath>
 </defs>
</svg>
