<?xml version="1.0" encoding="utf-8" standalone="no"?>
<!DOCTYPE svg PUBLIC "-//W3C//DTD SVG 1.1//EN"
  "http://www.w3.org/Graphics/SVG/1.1/DTD/svg11.dtd">
<!-- Created with matplotlib (https://matplotlib.org/) -->
<svg height="360pt" version="1.1" viewBox="0 0 360 360" width="360pt" xmlns="http://www.w3.org/2000/svg" xmlns:xlink="http://www.w3.org/1999/xlink">
 <defs>
  <style type="text/css">
*{stroke-linecap:butt;stroke-linejoin:round;}
  </style>
 </defs>
 <g id="figure_1">
  <g id="patch_1">
   <path d="M 0 360 
L 360 360 
L 360 0 
L 0 0 
z
" style="fill:#ffffff;"/>
  </g>
  <g id="axes_1">
   <g id="patch_2">
    <path d="M 45 315 
L 324 315 
L 324 43.2 
L 45 43.2 
z
" style="fill:#ffffff;"/>
   </g>
   <g id="matplotlib.axis_1">
    <g id="xtick_1">
     <g id="line2d_1">
      <defs>
       <path d="M 0 0 
L 0 3.5 
" id="m63c9885d96" style="stroke:#000000;stroke-width:0.8;"/>
      </defs>
      <g>
       <use style="stroke:#000000;stroke-width:0.8;" x="57.4236" xlink:href="#m63c9885d96" y="315"/>
      </g>
     </g>
     <g id="text_1">
      <!-- 0.00 -->
      <defs>
       <path d="M 31.78125 66.40625 
Q 24.171875 66.40625 20.328125 58.90625 
Q 16.5 51.421875 16.5 36.375 
Q 16.5 21.390625 20.328125 13.890625 
Q 24.171875 6.390625 31.78125 6.390625 
Q 39.453125 6.390625 43.28125 13.890625 
Q 47.125 21.390625 47.125 36.375 
Q 47.125 51.421875 43.28125 58.90625 
Q 39.453125 66.40625 31.78125 66.40625 
z
M 31.78125 74.21875 
Q 44.046875 74.21875 50.515625 64.515625 
Q 56.984375 54.828125 56.984375 36.375 
Q 56.984375 17.96875 50.515625 8.265625 
Q 44.046875 -1.421875 31.78125 -1.421875 
Q 19.53125 -1.421875 13.0625 8.265625 
Q 6.59375 17.96875 6.59375 36.375 
Q 6.59375 54.828125 13.0625 64.515625 
Q 19.53125 74.21875 31.78125 74.21875 
z
" id="DejaVuSans-48"/>
       <path d="M 10.6875 12.40625 
L 21 12.40625 
L 21 0 
L 10.6875 0 
z
" id="DejaVuSans-46"/>
      </defs>
      <g transform="translate(46.290788 329.598437)scale(0.1 -0.1)">
       <use xlink:href="#DejaVuSans-48"/>
       <use x="63.623047" xlink:href="#DejaVuSans-46"/>
       <use x="95.410156" xlink:href="#DejaVuSans-48"/>
       <use x="159.033203" xlink:href="#DejaVuSans-48"/>
      </g>
     </g>
    </g>
    <g id="xtick_2">
     <g id="line2d_2">
      <g>
       <use style="stroke:#000000;stroke-width:0.8;" x="100.595942" xlink:href="#m63c9885d96" y="315"/>
      </g>
     </g>
     <g id="text_2">
      <!-- 0.01 -->
      <defs>
       <path d="M 12.40625 8.296875 
L 28.515625 8.296875 
L 28.515625 63.921875 
L 10.984375 60.40625 
L 10.984375 69.390625 
L 28.421875 72.90625 
L 38.28125 72.90625 
L 38.28125 8.296875 
L 54.390625 8.296875 
L 54.390625 0 
L 12.40625 0 
z
" id="DejaVuSans-49"/>
      </defs>
      <g transform="translate(89.46313 329.598437)scale(0.1 -0.1)">
       <use xlink:href="#DejaVuSans-48"/>
       <use x="63.623047" xlink:href="#DejaVuSans-46"/>
       <use x="95.410156" xlink:href="#DejaVuSans-48"/>
       <use x="159.033203" xlink:href="#DejaVuSans-49"/>
      </g>
     </g>
    </g>
    <g id="xtick_3">
     <g id="line2d_3">
      <g>
       <use style="stroke:#000000;stroke-width:0.8;" x="143.768284" xlink:href="#m63c9885d96" y="315"/>
      </g>
     </g>
     <g id="text_3">
      <!-- 0.02 -->
      <defs>
       <path d="M 19.1875 8.296875 
L 53.609375 8.296875 
L 53.609375 0 
L 7.328125 0 
L 7.328125 8.296875 
Q 12.9375 14.109375 22.625 23.890625 
Q 32.328125 33.6875 34.8125 36.53125 
Q 39.546875 41.84375 41.421875 45.53125 
Q 43.3125 49.21875 43.3125 52.78125 
Q 43.3125 58.59375 39.234375 62.25 
Q 35.15625 65.921875 28.609375 65.921875 
Q 23.96875 65.921875 18.8125 64.3125 
Q 13.671875 62.703125 7.8125 59.421875 
L 7.8125 69.390625 
Q 13.765625 71.78125 18.9375 73 
Q 24.125 74.21875 28.421875 74.21875 
Q 39.75 74.21875 46.484375 68.546875 
Q 53.21875 62.890625 53.21875 53.421875 
Q 53.21875 48.921875 51.53125 44.890625 
Q 49.859375 40.875 45.40625 35.40625 
Q 44.1875 33.984375 37.640625 27.21875 
Q 31.109375 20.453125 19.1875 8.296875 
z
" id="DejaVuSans-50"/>
      </defs>
      <g transform="translate(132.635472 329.598437)scale(0.1 -0.1)">
       <use xlink:href="#DejaVuSans-48"/>
       <use x="63.623047" xlink:href="#DejaVuSans-46"/>
       <use x="95.410156" xlink:href="#DejaVuSans-48"/>
       <use x="159.033203" xlink:href="#DejaVuSans-50"/>
      </g>
     </g>
    </g>
    <g id="xtick_4">
     <g id="line2d_4">
      <g>
       <use style="stroke:#000000;stroke-width:0.8;" x="186.940626" xlink:href="#m63c9885d96" y="315"/>
      </g>
     </g>
     <g id="text_4">
      <!-- 0.03 -->
      <defs>
       <path d="M 40.578125 39.3125 
Q 47.65625 37.796875 51.625 33 
Q 55.609375 28.21875 55.609375 21.1875 
Q 55.609375 10.40625 48.1875 4.484375 
Q 40.765625 -1.421875 27.09375 -1.421875 
Q 22.515625 -1.421875 17.65625 -0.515625 
Q 12.796875 0.390625 7.625 2.203125 
L 7.625 11.71875 
Q 11.71875 9.328125 16.59375 8.109375 
Q 21.484375 6.890625 26.8125 6.890625 
Q 36.078125 6.890625 40.9375 10.546875 
Q 45.796875 14.203125 45.796875 21.1875 
Q 45.796875 27.640625 41.28125 31.265625 
Q 36.765625 34.90625 28.71875 34.90625 
L 20.21875 34.90625 
L 20.21875 43.015625 
L 29.109375 43.015625 
Q 36.375 43.015625 40.234375 45.921875 
Q 44.09375 48.828125 44.09375 54.296875 
Q 44.09375 59.90625 40.109375 62.90625 
Q 36.140625 65.921875 28.71875 65.921875 
Q 24.65625 65.921875 20.015625 65.03125 
Q 15.375 64.15625 9.8125 62.3125 
L 9.8125 71.09375 
Q 15.4375 72.65625 20.34375 73.4375 
Q 25.25 74.21875 29.59375 74.21875 
Q 40.828125 74.21875 47.359375 69.109375 
Q 53.90625 64.015625 53.90625 55.328125 
Q 53.90625 49.265625 50.4375 45.09375 
Q 46.96875 40.921875 40.578125 39.3125 
z
" id="DejaVuSans-51"/>
      </defs>
      <g transform="translate(175.807813 329.598437)scale(0.1 -0.1)">
       <use xlink:href="#DejaVuSans-48"/>
       <use x="63.623047" xlink:href="#DejaVuSans-46"/>
       <use x="95.410156" xlink:href="#DejaVuSans-48"/>
       <use x="159.033203" xlink:href="#DejaVuSans-51"/>
      </g>
     </g>
    </g>
    <g id="xtick_5">
     <g id="line2d_5">
      <g>
       <use style="stroke:#000000;stroke-width:0.8;" x="230.112968" xlink:href="#m63c9885d96" y="315"/>
      </g>
     </g>
     <g id="text_5">
      <!-- 0.04 -->
      <defs>
       <path d="M 37.796875 64.3125 
L 12.890625 25.390625 
L 37.796875 25.390625 
z
M 35.203125 72.90625 
L 47.609375 72.90625 
L 47.609375 25.390625 
L 58.015625 25.390625 
L 58.015625 17.1875 
L 47.609375 17.1875 
L 47.609375 0 
L 37.796875 0 
L 37.796875 17.1875 
L 4.890625 17.1875 
L 4.890625 26.703125 
z
" id="DejaVuSans-52"/>
      </defs>
      <g transform="translate(218.980155 329.598437)scale(0.1 -0.1)">
       <use xlink:href="#DejaVuSans-48"/>
       <use x="63.623047" xlink:href="#DejaVuSans-46"/>
       <use x="95.410156" xlink:href="#DejaVuSans-48"/>
       <use x="159.033203" xlink:href="#DejaVuSans-52"/>
      </g>
     </g>
    </g>
    <g id="xtick_6">
     <g id="line2d_6">
      <g>
       <use style="stroke:#000000;stroke-width:0.8;" x="273.28531" xlink:href="#m63c9885d96" y="315"/>
      </g>
     </g>
     <g id="text_6">
      <!-- 0.05 -->
      <defs>
       <path d="M 10.796875 72.90625 
L 49.515625 72.90625 
L 49.515625 64.59375 
L 19.828125 64.59375 
L 19.828125 46.734375 
Q 21.96875 47.46875 24.109375 47.828125 
Q 26.265625 48.1875 28.421875 48.1875 
Q 40.625 48.1875 47.75 41.5 
Q 54.890625 34.8125 54.890625 23.390625 
Q 54.890625 11.625 47.5625 5.09375 
Q 40.234375 -1.421875 26.90625 -1.421875 
Q 22.3125 -1.421875 17.546875 -0.640625 
Q 12.796875 0.140625 7.71875 1.703125 
L 7.71875 11.625 
Q 12.109375 9.234375 16.796875 8.0625 
Q 21.484375 6.890625 26.703125 6.890625 
Q 35.15625 6.890625 40.078125 11.328125 
Q 45.015625 15.765625 45.015625 23.390625 
Q 45.015625 31 40.078125 35.4375 
Q 35.15625 39.890625 26.703125 39.890625 
Q 22.75 39.890625 18.8125 39.015625 
Q 14.890625 38.140625 10.796875 36.28125 
z
" id="DejaVuSans-53"/>
      </defs>
      <g transform="translate(262.152497 329.598437)scale(0.1 -0.1)">
       <use xlink:href="#DejaVuSans-48"/>
       <use x="63.623047" xlink:href="#DejaVuSans-46"/>
       <use x="95.410156" xlink:href="#DejaVuSans-48"/>
       <use x="159.033203" xlink:href="#DejaVuSans-53"/>
      </g>
     </g>
    </g>
    <g id="xtick_7">
     <g id="line2d_7">
      <g>
       <use style="stroke:#000000;stroke-width:0.8;" x="316.457652" xlink:href="#m63c9885d96" y="315"/>
      </g>
     </g>
     <g id="text_7">
      <!-- 0.06 -->
      <defs>
       <path d="M 33.015625 40.375 
Q 26.375 40.375 22.484375 35.828125 
Q 18.609375 31.296875 18.609375 23.390625 
Q 18.609375 15.53125 22.484375 10.953125 
Q 26.375 6.390625 33.015625 6.390625 
Q 39.65625 6.390625 43.53125 10.953125 
Q 47.40625 15.53125 47.40625 23.390625 
Q 47.40625 31.296875 43.53125 35.828125 
Q 39.65625 40.375 33.015625 40.375 
z
M 52.59375 71.296875 
L 52.59375 62.3125 
Q 48.875 64.0625 45.09375 64.984375 
Q 41.3125 65.921875 37.59375 65.921875 
Q 27.828125 65.921875 22.671875 59.328125 
Q 17.53125 52.734375 16.796875 39.40625 
Q 19.671875 43.65625 24.015625 45.921875 
Q 28.375 48.1875 33.59375 48.1875 
Q 44.578125 48.1875 50.953125 41.515625 
Q 57.328125 34.859375 57.328125 23.390625 
Q 57.328125 12.15625 50.6875 5.359375 
Q 44.046875 -1.421875 33.015625 -1.421875 
Q 20.359375 -1.421875 13.671875 8.265625 
Q 6.984375 17.96875 6.984375 36.375 
Q 6.984375 53.65625 15.1875 63.9375 
Q 23.390625 74.21875 37.203125 74.21875 
Q 40.921875 74.21875 44.703125 73.484375 
Q 48.484375 72.75 52.59375 71.296875 
z
" id="DejaVuSans-54"/>
      </defs>
      <g transform="translate(305.324839 329.598437)scale(0.1 -0.1)">
       <use xlink:href="#DejaVuSans-48"/>
       <use x="63.623047" xlink:href="#DejaVuSans-46"/>
       <use x="95.410156" xlink:href="#DejaVuSans-48"/>
       <use x="159.033203" xlink:href="#DejaVuSans-54"/>
      </g>
     </g>
    </g>
    <g id="text_8">
     <!-- MDPF -->
     <defs>
      <path d="M 9.8125 72.90625 
L 24.515625 72.90625 
L 43.109375 23.296875 
L 61.8125 72.90625 
L 76.515625 72.90625 
L 76.515625 0 
L 66.890625 0 
L 66.890625 64.015625 
L 48.09375 14.015625 
L 38.1875 14.015625 
L 19.390625 64.015625 
L 19.390625 0 
L 9.8125 0 
z
" id="DejaVuSans-77"/>
      <path d="M 19.671875 64.796875 
L 19.671875 8.109375 
L 31.59375 8.109375 
Q 46.6875 8.109375 53.6875 14.9375 
Q 60.6875 21.78125 60.6875 36.53125 
Q 60.6875 51.171875 53.6875 57.984375 
Q 46.6875 64.796875 31.59375 64.796875 
z
M 9.8125 72.90625 
L 30.078125 72.90625 
Q 51.265625 72.90625 61.171875 64.09375 
Q 71.09375 55.28125 71.09375 36.53125 
Q 71.09375 17.671875 61.125 8.828125 
Q 51.171875 0 30.078125 0 
L 9.8125 0 
z
" id="DejaVuSans-68"/>
      <path d="M 19.671875 64.796875 
L 19.671875 37.40625 
L 32.078125 37.40625 
Q 38.96875 37.40625 42.71875 40.96875 
Q 46.484375 44.53125 46.484375 51.125 
Q 46.484375 57.671875 42.71875 61.234375 
Q 38.96875 64.796875 32.078125 64.796875 
z
M 9.8125 72.90625 
L 32.078125 72.90625 
Q 44.34375 72.90625 50.609375 67.359375 
Q 56.890625 61.8125 56.890625 51.125 
Q 56.890625 40.328125 50.609375 34.8125 
Q 44.34375 29.296875 32.078125 29.296875 
L 19.671875 29.296875 
L 19.671875 0 
L 9.8125 0 
z
" id="DejaVuSans-80"/>
      <path d="M 9.8125 72.90625 
L 51.703125 72.90625 
L 51.703125 64.59375 
L 19.671875 64.59375 
L 19.671875 43.109375 
L 48.578125 43.109375 
L 48.578125 34.8125 
L 19.671875 34.8125 
L 19.671875 0 
L 9.8125 0 
z
" id="DejaVuSans-70"/>
     </defs>
     <g transform="translate(170.445312 343.276563)scale(0.1 -0.1)">
      <use xlink:href="#DejaVuSans-77"/>
      <use x="86.279297" xlink:href="#DejaVuSans-68"/>
      <use x="163.28125" xlink:href="#DejaVuSans-80"/>
      <use x="223.583984" xlink:href="#DejaVuSans-70"/>
     </g>
    </g>
   </g>
   <g id="matplotlib.axis_2">
    <g id="ytick_1">
     <g id="line2d_8">
      <defs>
       <path d="M 0 0 
L -3.5 0 
" id="m544ac5e11f" style="stroke:#000000;stroke-width:0.8;"/>
      </defs>
      <g>
       <use style="stroke:#000000;stroke-width:0.8;" x="45" xlink:href="#m544ac5e11f" y="302.645455"/>
      </g>
     </g>
     <g id="text_9">
      <!-- 0 -->
      <g transform="translate(31.6375 306.444673)scale(0.1 -0.1)">
       <use xlink:href="#DejaVuSans-48"/>
      </g>
     </g>
    </g>
    <g id="ytick_2">
     <g id="line2d_9">
      <g>
       <use style="stroke:#000000;stroke-width:0.8;" x="45" xlink:href="#m544ac5e11f" y="272.372126"/>
      </g>
     </g>
     <g id="text_10">
      <!-- 500 -->
      <g transform="translate(18.9125 276.171345)scale(0.1 -0.1)">
       <use xlink:href="#DejaVuSans-53"/>
       <use x="63.623047" xlink:href="#DejaVuSans-48"/>
       <use x="127.246094" xlink:href="#DejaVuSans-48"/>
      </g>
     </g>
    </g>
    <g id="ytick_3">
     <g id="line2d_10">
      <g>
       <use style="stroke:#000000;stroke-width:0.8;" x="45" xlink:href="#m544ac5e11f" y="242.098797"/>
      </g>
     </g>
     <g id="text_11">
      <!-- 1000 -->
      <g transform="translate(12.55 245.898016)scale(0.1 -0.1)">
       <use xlink:href="#DejaVuSans-49"/>
       <use x="63.623047" xlink:href="#DejaVuSans-48"/>
       <use x="127.246094" xlink:href="#DejaVuSans-48"/>
       <use x="190.869141" xlink:href="#DejaVuSans-48"/>
      </g>
     </g>
    </g>
    <g id="ytick_4">
     <g id="line2d_11">
      <g>
       <use style="stroke:#000000;stroke-width:0.8;" x="45" xlink:href="#m544ac5e11f" y="211.825468"/>
      </g>
     </g>
     <g id="text_12">
      <!-- 1500 -->
      <g transform="translate(12.55 215.624687)scale(0.1 -0.1)">
       <use xlink:href="#DejaVuSans-49"/>
       <use x="63.623047" xlink:href="#DejaVuSans-53"/>
       <use x="127.246094" xlink:href="#DejaVuSans-48"/>
       <use x="190.869141" xlink:href="#DejaVuSans-48"/>
      </g>
     </g>
    </g>
    <g id="ytick_5">
     <g id="line2d_12">
      <g>
       <use style="stroke:#000000;stroke-width:0.8;" x="45" xlink:href="#m544ac5e11f" y="181.55214"/>
      </g>
     </g>
     <g id="text_13">
      <!-- 2000 -->
      <g transform="translate(12.55 185.351358)scale(0.1 -0.1)">
       <use xlink:href="#DejaVuSans-50"/>
       <use x="63.623047" xlink:href="#DejaVuSans-48"/>
       <use x="127.246094" xlink:href="#DejaVuSans-48"/>
       <use x="190.869141" xlink:href="#DejaVuSans-48"/>
      </g>
     </g>
    </g>
    <g id="ytick_6">
     <g id="line2d_13">
      <g>
       <use style="stroke:#000000;stroke-width:0.8;" x="45" xlink:href="#m544ac5e11f" y="151.278811"/>
      </g>
     </g>
     <g id="text_14">
      <!-- 2500 -->
      <g transform="translate(12.55 155.07803)scale(0.1 -0.1)">
       <use xlink:href="#DejaVuSans-50"/>
       <use x="63.623047" xlink:href="#DejaVuSans-53"/>
       <use x="127.246094" xlink:href="#DejaVuSans-48"/>
       <use x="190.869141" xlink:href="#DejaVuSans-48"/>
      </g>
     </g>
    </g>
    <g id="ytick_7">
     <g id="line2d_14">
      <g>
       <use style="stroke:#000000;stroke-width:0.8;" x="45" xlink:href="#m544ac5e11f" y="121.005482"/>
      </g>
     </g>
     <g id="text_15">
      <!-- 3000 -->
      <g transform="translate(12.55 124.804701)scale(0.1 -0.1)">
       <use xlink:href="#DejaVuSans-51"/>
       <use x="63.623047" xlink:href="#DejaVuSans-48"/>
       <use x="127.246094" xlink:href="#DejaVuSans-48"/>
       <use x="190.869141" xlink:href="#DejaVuSans-48"/>
      </g>
     </g>
    </g>
    <g id="ytick_8">
     <g id="line2d_15">
      <g>
       <use style="stroke:#000000;stroke-width:0.8;" x="45" xlink:href="#m544ac5e11f" y="90.732153"/>
      </g>
     </g>
     <g id="text_16">
      <!-- 3500 -->
      <g transform="translate(12.55 94.531372)scale(0.1 -0.1)">
       <use xlink:href="#DejaVuSans-51"/>
       <use x="63.623047" xlink:href="#DejaVuSans-53"/>
       <use x="127.246094" xlink:href="#DejaVuSans-48"/>
       <use x="190.869141" xlink:href="#DejaVuSans-48"/>
      </g>
     </g>
    </g>
    <g id="ytick_9">
     <g id="line2d_16">
      <g>
       <use style="stroke:#000000;stroke-width:0.8;" x="45" xlink:href="#m544ac5e11f" y="60.458825"/>
      </g>
     </g>
     <g id="text_17">
      <!-- 4000 -->
      <g transform="translate(12.55 64.258043)scale(0.1 -0.1)">
       <use xlink:href="#DejaVuSans-52"/>
       <use x="63.623047" xlink:href="#DejaVuSans-48"/>
       <use x="127.246094" xlink:href="#DejaVuSans-48"/>
       <use x="190.869141" xlink:href="#DejaVuSans-48"/>
      </g>
     </g>
    </g>
    <g id="text_18">
     <!-- Number of Designs -->
     <defs>
      <path d="M 9.8125 72.90625 
L 23.09375 72.90625 
L 55.421875 11.921875 
L 55.421875 72.90625 
L 64.984375 72.90625 
L 64.984375 0 
L 51.703125 0 
L 19.390625 60.984375 
L 19.390625 0 
L 9.8125 0 
z
" id="DejaVuSans-78"/>
      <path d="M 8.5 21.578125 
L 8.5 54.6875 
L 17.484375 54.6875 
L 17.484375 21.921875 
Q 17.484375 14.15625 20.5 10.265625 
Q 23.53125 6.390625 29.59375 6.390625 
Q 36.859375 6.390625 41.078125 11.03125 
Q 45.3125 15.671875 45.3125 23.6875 
L 45.3125 54.6875 
L 54.296875 54.6875 
L 54.296875 0 
L 45.3125 0 
L 45.3125 8.40625 
Q 42.046875 3.421875 37.71875 1 
Q 33.40625 -1.421875 27.6875 -1.421875 
Q 18.265625 -1.421875 13.375 4.4375 
Q 8.5 10.296875 8.5 21.578125 
z
M 31.109375 56 
z
" id="DejaVuSans-117"/>
      <path d="M 52 44.1875 
Q 55.375 50.25 60.0625 53.125 
Q 64.75 56 71.09375 56 
Q 79.640625 56 84.28125 50.015625 
Q 88.921875 44.046875 88.921875 33.015625 
L 88.921875 0 
L 79.890625 0 
L 79.890625 32.71875 
Q 79.890625 40.578125 77.09375 44.375 
Q 74.3125 48.1875 68.609375 48.1875 
Q 61.625 48.1875 57.5625 43.546875 
Q 53.515625 38.921875 53.515625 30.90625 
L 53.515625 0 
L 44.484375 0 
L 44.484375 32.71875 
Q 44.484375 40.625 41.703125 44.40625 
Q 38.921875 48.1875 33.109375 48.1875 
Q 26.21875 48.1875 22.15625 43.53125 
Q 18.109375 38.875 18.109375 30.90625 
L 18.109375 0 
L 9.078125 0 
L 9.078125 54.6875 
L 18.109375 54.6875 
L 18.109375 46.1875 
Q 21.1875 51.21875 25.484375 53.609375 
Q 29.78125 56 35.6875 56 
Q 41.65625 56 45.828125 52.96875 
Q 50 49.953125 52 44.1875 
z
" id="DejaVuSans-109"/>
      <path d="M 48.6875 27.296875 
Q 48.6875 37.203125 44.609375 42.84375 
Q 40.53125 48.484375 33.40625 48.484375 
Q 26.265625 48.484375 22.1875 42.84375 
Q 18.109375 37.203125 18.109375 27.296875 
Q 18.109375 17.390625 22.1875 11.75 
Q 26.265625 6.109375 33.40625 6.109375 
Q 40.53125 6.109375 44.609375 11.75 
Q 48.6875 17.390625 48.6875 27.296875 
z
M 18.109375 46.390625 
Q 20.953125 51.265625 25.265625 53.625 
Q 29.59375 56 35.59375 56 
Q 45.5625 56 51.78125 48.09375 
Q 58.015625 40.1875 58.015625 27.296875 
Q 58.015625 14.40625 51.78125 6.484375 
Q 45.5625 -1.421875 35.59375 -1.421875 
Q 29.59375 -1.421875 25.265625 0.953125 
Q 20.953125 3.328125 18.109375 8.203125 
L 18.109375 0 
L 9.078125 0 
L 9.078125 75.984375 
L 18.109375 75.984375 
z
" id="DejaVuSans-98"/>
      <path d="M 56.203125 29.59375 
L 56.203125 25.203125 
L 14.890625 25.203125 
Q 15.484375 15.921875 20.484375 11.0625 
Q 25.484375 6.203125 34.421875 6.203125 
Q 39.59375 6.203125 44.453125 7.46875 
Q 49.3125 8.734375 54.109375 11.28125 
L 54.109375 2.78125 
Q 49.265625 0.734375 44.1875 -0.34375 
Q 39.109375 -1.421875 33.890625 -1.421875 
Q 20.796875 -1.421875 13.15625 6.1875 
Q 5.515625 13.8125 5.515625 26.8125 
Q 5.515625 40.234375 12.765625 48.109375 
Q 20.015625 56 32.328125 56 
Q 43.359375 56 49.78125 48.890625 
Q 56.203125 41.796875 56.203125 29.59375 
z
M 47.21875 32.234375 
Q 47.125 39.59375 43.09375 43.984375 
Q 39.0625 48.390625 32.421875 48.390625 
Q 24.90625 48.390625 20.390625 44.140625 
Q 15.875 39.890625 15.1875 32.171875 
z
" id="DejaVuSans-101"/>
      <path d="M 41.109375 46.296875 
Q 39.59375 47.171875 37.8125 47.578125 
Q 36.03125 48 33.890625 48 
Q 26.265625 48 22.1875 43.046875 
Q 18.109375 38.09375 18.109375 28.8125 
L 18.109375 0 
L 9.078125 0 
L 9.078125 54.6875 
L 18.109375 54.6875 
L 18.109375 46.1875 
Q 20.953125 51.171875 25.484375 53.578125 
Q 30.03125 56 36.53125 56 
Q 37.453125 56 38.578125 55.875 
Q 39.703125 55.765625 41.0625 55.515625 
z
" id="DejaVuSans-114"/>
      <path id="DejaVuSans-32"/>
      <path d="M 30.609375 48.390625 
Q 23.390625 48.390625 19.1875 42.75 
Q 14.984375 37.109375 14.984375 27.296875 
Q 14.984375 17.484375 19.15625 11.84375 
Q 23.34375 6.203125 30.609375 6.203125 
Q 37.796875 6.203125 41.984375 11.859375 
Q 46.1875 17.53125 46.1875 27.296875 
Q 46.1875 37.015625 41.984375 42.703125 
Q 37.796875 48.390625 30.609375 48.390625 
z
M 30.609375 56 
Q 42.328125 56 49.015625 48.375 
Q 55.71875 40.765625 55.71875 27.296875 
Q 55.71875 13.875 49.015625 6.21875 
Q 42.328125 -1.421875 30.609375 -1.421875 
Q 18.84375 -1.421875 12.171875 6.21875 
Q 5.515625 13.875 5.515625 27.296875 
Q 5.515625 40.765625 12.171875 48.375 
Q 18.84375 56 30.609375 56 
z
" id="DejaVuSans-111"/>
      <path d="M 37.109375 75.984375 
L 37.109375 68.5 
L 28.515625 68.5 
Q 23.6875 68.5 21.796875 66.546875 
Q 19.921875 64.59375 19.921875 59.515625 
L 19.921875 54.6875 
L 34.71875 54.6875 
L 34.71875 47.703125 
L 19.921875 47.703125 
L 19.921875 0 
L 10.890625 0 
L 10.890625 47.703125 
L 2.296875 47.703125 
L 2.296875 54.6875 
L 10.890625 54.6875 
L 10.890625 58.5 
Q 10.890625 67.625 15.140625 71.796875 
Q 19.390625 75.984375 28.609375 75.984375 
z
" id="DejaVuSans-102"/>
      <path d="M 44.28125 53.078125 
L 44.28125 44.578125 
Q 40.484375 46.53125 36.375 47.5 
Q 32.28125 48.484375 27.875 48.484375 
Q 21.1875 48.484375 17.84375 46.4375 
Q 14.5 44.390625 14.5 40.28125 
Q 14.5 37.15625 16.890625 35.375 
Q 19.28125 33.59375 26.515625 31.984375 
L 29.59375 31.296875 
Q 39.15625 29.25 43.1875 25.515625 
Q 47.21875 21.78125 47.21875 15.09375 
Q 47.21875 7.46875 41.1875 3.015625 
Q 35.15625 -1.421875 24.609375 -1.421875 
Q 20.21875 -1.421875 15.453125 -0.5625 
Q 10.6875 0.296875 5.421875 2 
L 5.421875 11.28125 
Q 10.40625 8.6875 15.234375 7.390625 
Q 20.0625 6.109375 24.8125 6.109375 
Q 31.15625 6.109375 34.5625 8.28125 
Q 37.984375 10.453125 37.984375 14.40625 
Q 37.984375 18.0625 35.515625 20.015625 
Q 33.0625 21.96875 24.703125 23.78125 
L 21.578125 24.515625 
Q 13.234375 26.265625 9.515625 29.90625 
Q 5.8125 33.546875 5.8125 39.890625 
Q 5.8125 47.609375 11.28125 51.796875 
Q 16.75 56 26.8125 56 
Q 31.78125 56 36.171875 55.265625 
Q 40.578125 54.546875 44.28125 53.078125 
z
" id="DejaVuSans-115"/>
      <path d="M 9.421875 54.6875 
L 18.40625 54.6875 
L 18.40625 0 
L 9.421875 0 
z
M 9.421875 75.984375 
L 18.40625 75.984375 
L 18.40625 64.59375 
L 9.421875 64.59375 
z
" id="DejaVuSans-105"/>
      <path d="M 45.40625 27.984375 
Q 45.40625 37.75 41.375 43.109375 
Q 37.359375 48.484375 30.078125 48.484375 
Q 22.859375 48.484375 18.828125 43.109375 
Q 14.796875 37.75 14.796875 27.984375 
Q 14.796875 18.265625 18.828125 12.890625 
Q 22.859375 7.515625 30.078125 7.515625 
Q 37.359375 7.515625 41.375 12.890625 
Q 45.40625 18.265625 45.40625 27.984375 
z
M 54.390625 6.78125 
Q 54.390625 -7.171875 48.1875 -13.984375 
Q 42 -20.796875 29.203125 -20.796875 
Q 24.46875 -20.796875 20.265625 -20.09375 
Q 16.0625 -19.390625 12.109375 -17.921875 
L 12.109375 -9.1875 
Q 16.0625 -11.328125 19.921875 -12.34375 
Q 23.78125 -13.375 27.78125 -13.375 
Q 36.625 -13.375 41.015625 -8.765625 
Q 45.40625 -4.15625 45.40625 5.171875 
L 45.40625 9.625 
Q 42.625 4.78125 38.28125 2.390625 
Q 33.9375 0 27.875 0 
Q 17.828125 0 11.671875 7.65625 
Q 5.515625 15.328125 5.515625 27.984375 
Q 5.515625 40.671875 11.671875 48.328125 
Q 17.828125 56 27.875 56 
Q 33.9375 56 38.28125 53.609375 
Q 42.625 51.21875 45.40625 46.390625 
L 45.40625 54.6875 
L 54.390625 54.6875 
z
" id="DejaVuSans-103"/>
      <path d="M 54.890625 33.015625 
L 54.890625 0 
L 45.90625 0 
L 45.90625 32.71875 
Q 45.90625 40.484375 42.875 44.328125 
Q 39.84375 48.1875 33.796875 48.1875 
Q 26.515625 48.1875 22.3125 43.546875 
Q 18.109375 38.921875 18.109375 30.90625 
L 18.109375 0 
L 9.078125 0 
L 9.078125 54.6875 
L 18.109375 54.6875 
L 18.109375 46.1875 
Q 21.34375 51.125 25.703125 53.5625 
Q 30.078125 56 35.796875 56 
Q 45.21875 56 50.046875 50.171875 
Q 54.890625 44.34375 54.890625 33.015625 
z
" id="DejaVuSans-110"/>
     </defs>
     <g transform="translate(6.470312 227.051562)rotate(-90)scale(0.1 -0.1)">
      <use xlink:href="#DejaVuSans-78"/>
      <use x="74.804688" xlink:href="#DejaVuSans-117"/>
      <use x="138.183594" xlink:href="#DejaVuSans-109"/>
      <use x="235.595703" xlink:href="#DejaVuSans-98"/>
      <use x="299.072266" xlink:href="#DejaVuSans-101"/>
      <use x="360.595703" xlink:href="#DejaVuSans-114"/>
      <use x="401.708984" xlink:href="#DejaVuSans-32"/>
      <use x="433.496094" xlink:href="#DejaVuSans-111"/>
      <use x="494.677734" xlink:href="#DejaVuSans-102"/>
      <use x="529.882812" xlink:href="#DejaVuSans-32"/>
      <use x="561.669922" xlink:href="#DejaVuSans-68"/>
      <use x="638.671875" xlink:href="#DejaVuSans-101"/>
      <use x="700.195312" xlink:href="#DejaVuSans-115"/>
      <use x="752.294922" xlink:href="#DejaVuSans-105"/>
      <use x="780.078125" xlink:href="#DejaVuSans-103"/>
      <use x="843.554688" xlink:href="#DejaVuSans-110"/>
      <use x="906.933594" xlink:href="#DejaVuSans-115"/>
     </g>
    </g>
   </g>
   <g id="line2d_17">
    <path clip-path="url(#p4f7e613d9a)" d="M 57.681818 302.645455 
L 57.772509 302.342721 
L 57.8278 302.282175 
L 57.924165 302.039988 
L 58.003221 301.979441 
L 58.107331 301.797801 
L 58.154892 301.737255 
L 58.251149 301.495068 
L 58.299003 301.434521 
L 58.371365 301.313428 
L 58.472738 301.252881 
L 58.578978 300.889601 
L 58.648687 300.829055 
L 58.740968 300.284135 
L 58.776485 300.223588 
L 58.832982 300.041948 
L 58.911976 299.981402 
L 58.992036 299.375935 
L 59.110915 299.315388 
L 59.217431 298.952108 
L 59.228659 298.891562 
L 59.31679 298.286095 
L 59.393927 298.225549 
L 59.494429 297.498989 
L 59.527291 297.438442 
L 59.634925 296.954069 
L 59.650836 296.893522 
L 59.706618 296.227509 
L 59.768627 296.166962 
L 59.865704 295.743136 
L 59.896413 295.682589 
L 60.002702 294.532202 
L 60.018088 294.471656 
L 60.109141 293.624003 
L 60.157802 293.563456 
L 60.268013 292.897443 
L 60.279277 292.836896 
L 60.381914 291.928696 
L 60.401233 291.86815 
L 60.50851 290.657216 
L 60.515714 290.59667 
L 60.619179 289.68847 
L 60.656699 289.627923 
L 60.762337 288.477537 
L 60.777296 288.41699 
L 60.875774 287.206057 
L 60.890696 287.14551 
L 60.99203 285.631844 
L 61.014858 285.571297 
L 61.124825 284.420911 
L 61.140146 284.360364 
L 61.248331 282.967791 
L 61.25942 282.907244 
L 61.37026 281.333031 
L 61.39173 281.272484 
L 61.489356 280.182645 
L 61.506665 280.122098 
L 61.610472 278.971711 
L 61.622417 278.911165 
L 61.727015 277.458045 
L 61.740917 277.397498 
L 61.842594 275.944379 
L 61.853283 275.883832 
L 61.963622 274.793992 
L 61.976128 274.733445 
L 62.08493 273.159232 
L 62.096557 273.098686 
L 62.185924 271.524473 
L 62.21681 271.463926 
L 62.327498 269.829166 
L 62.330354 269.76862 
L 62.436109 268.3155 
L 62.442045 268.254953 
L 62.518986 266.86238 
L 62.571171 266.801833 
L 62.672777 265.348714 
L 62.691673 265.288167 
L 62.795185 264.077234 
L 62.804918 264.016687 
L 62.913465 263.047941 
L 62.922105 262.987394 
L 63.03022 261.655367 
L 63.037705 261.594821 
L 63.14875 259.717874 
L 63.153189 259.657328 
L 63.263958 258.022568 
L 63.279601 257.962021 
L 63.390185 256.932728 
L 63.409896 256.872182 
L 63.520387 255.419062 
L 63.538106 255.358515 
L 63.643753 254.026489 
L 63.657004 253.965942 
L 63.756897 251.907356 
L 63.77081 251.846809 
L 63.881653 249.848769 
L 63.888818 249.788223 
L 63.996432 248.395649 
L 64.0043 248.335103 
L 64.110144 246.700343 
L 64.122002 246.639796 
L 64.228859 244.883943 
L 64.242255 244.823397 
L 64.349027 243.49137 
L 64.363933 243.430824 
L 64.471026 242.462077 
L 64.481547 242.40153 
L 64.586014 240.766771 
L 64.599956 240.706224 
L 64.710065 238.829278 
L 64.72446 238.768731 
L 64.834015 237.073425 
L 64.849017 237.012878 
L 64.957779 235.135931 
L 64.972978 235.075385 
L 65.070003 233.440625 
L 65.100618 233.380078 
L 65.209186 231.382039 
L 65.219474 231.321492 
L 65.326369 229.686732 
L 65.337166 229.626186 
L 65.447628 228.354706 
L 65.448945 228.294159 
L 65.55885 226.659399 
L 65.585646 226.598853 
L 65.693662 224.843 
L 65.71003 224.782453 
L 65.819128 223.20824 
L 65.841354 223.147693 
L 65.943993 221.39184 
L 65.96829 221.331294 
L 66.072533 219.575441 
L 66.091247 219.514894 
L 66.19859 218.364507 
L 66.205248 218.303961 
L 66.31507 216.790294 
L 66.319051 216.729748 
L 66.426968 214.973895 
L 66.445036 214.913348 
L 66.548302 213.460228 
L 66.57023 213.399681 
L 66.671664 211.946562 
L 66.685347 211.886015 
L 66.795432 210.856722 
L 66.803154 210.796175 
L 66.907892 209.524695 
L 66.918315 209.464149 
L 67.029185 207.889936 
L 67.042922 207.829389 
L 67.148874 206.194629 
L 67.161245 206.134083 
L 67.270096 205.104789 
L 67.293097 205.044243 
L 67.382738 204.19659 
L 67.40749 204.136043 
L 67.510067 202.864563 
L 67.52288 202.804016 
L 67.633278 201.714177 
L 67.641116 201.65363 
L 67.748635 200.139963 
L 67.771315 200.079417 
L 67.879378 198.74739 
L 67.891536 198.686844 
L 68.001248 197.475911 
L 68.008279 197.415364 
L 68.114627 196.688804 
L 68.126994 196.628257 
L 68.232562 195.114591 
L 68.261413 195.054044 
L 68.364463 193.722018 
L 68.378781 193.661471 
L 68.485646 192.874365 
L 68.497155 192.813818 
L 68.607626 191.723978 
L 68.611706 191.663431 
L 68.719214 190.452498 
L 68.739604 190.391952 
L 68.845269 189.181018 
L 68.865164 189.120472 
L 68.975046 187.425165 
L 68.984039 187.364619 
L 69.093169 185.669312 
L 69.101338 185.608766 
L 69.211386 184.458379 
L 69.216047 184.397833 
L 69.321334 183.610726 
L 69.334726 183.550179 
L 69.444545 182.520886 
L 69.472075 182.460339 
L 69.57878 181.431046 
L 69.605439 181.3705 
L 69.71292 180.220113 
L 69.728434 180.159567 
L 69.827203 179.675193 
L 69.857556 179.614647 
L 69.963823 178.343167 
L 69.99381 178.28262 
L 70.100395 177.616607 
L 70.127627 177.55606 
L 70.227028 176.890047 
L 70.249883 176.8295 
L 70.35909 175.860754 
L 70.37189 175.800207 
L 70.482649 174.892007 
L 70.509182 174.831461 
L 70.618633 173.741621 
L 70.644658 173.681074 
L 70.754163 172.349048 
L 70.763902 172.288501 
L 70.871404 171.198661 
L 70.882666 171.138115 
L 70.986858 169.624448 
L 70.997764 169.563901 
L 71.107231 168.413515 
L 71.113781 168.352968 
L 71.220661 167.263128 
L 71.260422 167.202582 
L 71.36487 166.415475 
L 71.389104 166.354929 
L 71.498873 165.083449 
L 71.516585 165.022902 
L 71.617788 164.054156 
L 71.633319 163.993609 
L 71.729255 163.388142 
L 71.80101 163.327596 
L 71.893506 162.661582 
L 71.933517 162.601036 
L 72.039098 161.753383 
L 72.056313 161.692836 
L 72.162971 161.147916 
L 72.231905 161.087369 
L 72.341998 160.542449 
L 72.347107 160.481903 
L 72.44312 159.755343 
L 72.468403 159.694796 
L 72.576677 159.028783 
L 72.609605 158.968236 
L 72.71505 158.54441 
L 72.738727 158.483863 
L 72.821086 157.99949 
L 72.872163 157.938943 
L 72.978373 157.333477 
L 73.034036 157.27293 
L 73.128564 156.54637 
L 73.148954 156.485823 
L 73.250804 155.759264 
L 73.275665 155.698717 
L 73.384704 154.427237 
L 73.393263 154.36669 
L 73.491477 153.821771 
L 73.508578 153.761224 
L 73.594685 152.913571 
L 73.632183 152.853024 
L 73.729076 152.489744 
L 73.752142 152.429197 
L 73.853327 152.065917 
L 73.879455 152.005371 
L 73.989734 151.763184 
L 73.995233 151.702637 
L 74.091567 151.157718 
L 74.127877 151.097171 
L 74.205443 150.733891 
L 74.260248 150.673344 
L 74.370617 149.946784 
L 74.400709 149.886238 
L 74.510921 149.099131 
L 74.514954 149.038585 
L 74.620329 148.069838 
L 74.659949 148.009291 
L 74.770111 147.646011 
L 74.807736 147.585465 
L 74.90941 146.979998 
L 74.927121 146.919452 
L 75.031339 145.829612 
L 75.079217 145.769065 
L 75.181623 145.163598 
L 75.201505 145.103052 
L 75.302437 144.437039 
L 75.341377 144.376492 
L 75.449197 143.710479 
L 75.460383 143.649932 
L 75.570565 142.862826 
L 75.589352 142.802279 
L 75.697432 141.954626 
L 75.740204 141.894079 
L 75.839952 141.349159 
L 75.862194 141.288612 
L 75.964752 140.440959 
L 75.993354 140.380413 
L 76.100541 139.532759 
L 76.129477 139.472213 
L 76.220225 138.927293 
L 76.248689 138.866746 
L 76.352989 138.382373 
L 76.402913 138.321826 
L 76.498254 137.595266 
L 76.539805 137.53472 
L 76.646436 137.231986 
L 76.680201 137.17144 
L 76.789442 136.747613 
L 76.801674 136.687066 
L 76.896343 136.202693 
L 76.931606 136.142147 
L 77.041896 135.839413 
L 77.078799 135.778867 
L 77.169726 135.294493 
L 77.29916 135.233947 
L 77.406764 134.870667 
L 77.429449 134.81012 
L 77.540405 134.567933 
L 77.544724 134.507387 
L 77.650175 133.90192 
L 77.737557 133.841374 
L 77.84325 133.659734 
L 77.882638 133.599187 
L 77.973038 133.296454 
L 78.024923 133.235907 
L 78.118326 132.751534 
L 78.186505 132.690987 
L 78.294256 132.327707 
L 78.347768 132.26716 
L 78.347768 132.206614 
L 78.477035 132.146067 
L 78.525133 132.024974 
L 78.593823 131.964427 
L 78.698003 131.601147 
L 78.741709 131.540601 
L 78.850061 130.995681 
L 78.917104 130.935134 
L 79.01238 130.753494 
L 79.102026 130.692947 
L 79.145639 130.269121 
L 79.2361 130.208574 
L 79.337148 129.966387 
L 79.370628 129.905841 
L 79.461057 129.542561 
L 79.549489 129.482014 
L 79.660004 128.937094 
L 79.738084 128.876548 
L 79.82778 128.452721 
L 79.896331 128.392174 
L 79.986953 128.089441 
L 80.086745 128.028894 
L 80.144966 127.726161 
L 80.316803 127.665614 
L 80.361816 127.423428 
L 80.45778 127.362881 
L 80.559596 127.060148 
L 80.583649 126.999601 
L 80.65929 126.757415 
L 80.716988 126.696868 
L 80.795518 125.970308 
L 80.841546 125.909761 
L 80.886092 125.728121 
L 81.026684 125.667575 
L 81.104332 125.425388 
L 81.213924 125.364842 
L 81.316285 125.183202 
L 81.428451 125.122655 
L 81.480588 124.880468 
L 81.640296 124.819922 
L 81.73362 124.517188 
L 81.76926 124.456642 
L 81.813228 124.214455 
L 81.889532 124.153908 
L 81.998432 123.548442 
L 82.051861 123.487895 
L 82.161372 123.245708 
L 82.209986 123.185162 
L 82.307119 122.882429 
L 82.323702 122.821882 
L 82.427786 122.458602 
L 82.466624 122.398055 
L 82.575474 122.155869 
L 82.596139 122.095322 
L 82.675006 121.732042 
L 82.786941 121.671495 
L 82.870095 121.368762 
L 82.995866 121.308215 
L 83.101832 120.823842 
L 83.219493 120.763296 
L 83.238019 120.642202 
L 83.392226 120.581656 
L 83.494196 120.339469 
L 83.696379 120.278922 
L 83.773402 119.976189 
L 83.832028 119.915642 
L 83.919544 119.552362 
L 83.989437 119.491816 
L 84.09534 119.249629 
L 84.142155 119.189082 
L 84.244782 118.946896 
L 84.337504 118.886349 
L 84.404884 118.523069 
L 84.498199 118.462523 
L 84.608069 118.159789 
L 84.639482 118.099243 
L 84.73354 117.735963 
L 84.824969 117.675416 
L 84.925032 117.372683 
L 84.966686 117.312136 
L 85.056036 117.009403 
L 85.081213 116.948856 
L 85.177767 116.706669 
L 85.215656 116.646123 
L 85.301933 116.222296 
L 85.336396 116.16175 
L 85.43405 115.79847 
L 85.456491 115.737923 
L 85.557949 115.011363 
L 85.691211 114.950816 
L 85.744929 114.648083 
L 85.839241 114.587536 
L 85.926202 114.224257 
L 86.001856 114.16371 
L 86.101737 113.739883 
L 86.130344 113.679337 
L 86.218889 113.25551 
L 86.329748 113.194963 
L 86.431267 112.71059 
L 86.462571 112.650043 
L 86.568627 112.407857 
L 86.596378 112.34731 
L 86.692068 112.044577 
L 86.804386 111.98403 
L 86.894319 111.681297 
L 87.001064 111.62075 
L 87.110049 111.25747 
L 87.172192 111.196924 
L 87.220928 111.07583 
L 87.297442 111.015284 
L 87.343694 110.89419 
L 87.495916 110.833644 
L 87.569649 110.71255 
L 87.673121 110.652004 
L 87.774161 110.409817 
L 87.817227 110.34927 
L 87.865944 110.107084 
L 87.961538 110.046537 
L 88.059353 109.622711 
L 88.118538 109.562164 
L 88.223842 109.380524 
L 88.522863 109.319977 
L 88.588805 108.835604 
L 88.694287 108.775057 
L 88.789575 108.532871 
L 88.842007 108.472324 
L 88.936487 108.230137 
L 88.959447 108.169591 
L 88.999392 108.048497 
L 89.241015 107.987951 
L 89.298777 107.806311 
L 89.416414 107.745764 
L 89.50469 107.443031 
L 89.598808 107.382484 
L 89.680554 107.200844 
L 89.714425 107.140298 
L 89.824271 106.837564 
L 89.828863 106.777018 
L 89.828863 106.716471 
L 90.046913 106.655924 
L 90.10113 106.413738 
L 90.288025 106.353191 
L 90.338487 105.989911 
L 90.543572 105.929364 
L 90.641157 105.687178 
L 90.660138 105.626631 
L 90.750062 105.444991 
L 90.902031 105.384445 
L 91.009802 105.081711 
L 91.135355 105.021165 
L 91.205099 104.718431 
L 91.266634 104.657885 
L 91.356469 104.476245 
L 91.402431 104.415698 
L 91.498284 104.234058 
L 91.623187 104.173511 
L 91.709748 103.931325 
L 91.839269 103.870778 
L 91.938414 103.568045 
L 92.00432 103.507498 
L 92.106064 103.325858 
L 92.148808 103.265312 
L 92.240777 102.902032 
L 92.286891 102.841485 
L 92.380146 102.659845 
L 92.416461 102.599298 
L 92.508361 102.478205 
L 92.66224 102.417658 
L 92.771314 102.236018 
L 92.964043 102.175472 
L 93.066127 101.872738 
L 93.164418 101.812192 
L 93.262828 101.388365 
L 93.329716 101.327818 
L 93.42682 101.085632 
L 93.475087 101.025085 
L 93.557307 100.903992 
L 93.622583 100.843445 
L 93.732466 100.540712 
L 93.873788 100.480165 
L 93.934006 100.177432 
L 93.987807 100.116885 
L 94.06721 99.814152 
L 94.22783 99.753605 
L 94.334748 99.329779 
L 94.421687 99.269232 
L 94.50022 98.845406 
L 94.571642 98.784859 
L 94.676488 98.421579 
L 94.843525 98.361032 
L 94.843525 98.300486 
L 95.016774 98.239939 
L 95.125952 97.816112 
L 95.149355 97.755566 
L 95.151083 97.634472 
L 95.342815 97.573926 
L 95.419995 97.271192 
L 95.464499 97.210646 
L 95.49777 97.089552 
L 95.611558 97.029006 
L 95.715034 96.786819 
L 95.913312 96.726273 
L 96.017936 96.484086 
L 96.048508 96.423539 
L 96.153563 96.181353 
L 96.227155 96.120806 
L 96.337331 95.878619 
L 96.397956 95.818073 
L 96.47094 95.515339 
L 96.667376 95.454793 
L 96.774705 95.273153 
L 96.843009 95.212606 
L 96.92068 94.970419 
L 97.179105 94.909873 
L 97.185195 94.788779 
L 97.330823 94.728233 
L 97.41636 94.486046 
L 97.480102 94.4255 
L 97.590188 94.24386 
L 97.614512 94.183313 
L 97.694674 94.001673 
L 97.891224 93.941126 
L 97.944548 93.759486 
L 98.040674 93.69894 
L 98.135815 93.456753 
L 98.384757 93.396206 
L 98.445834 93.214566 
L 98.661482 93.15402 
L 98.762707 92.851286 
L 98.956656 92.79074 
L 99.019964 92.6091 
L 99.10812 92.548553 
L 99.167972 92.366913 
L 99.328077 92.306367 
L 99.381779 92.124727 
L 99.449449 92.06418 
L 99.449449 92.003633 
L 99.590421 91.943087 
L 99.684171 91.821993 
L 99.725787 91.761447 
L 99.828989 91.579807 
L 99.921476 91.51926 
L 100.024159 91.15598 
L 100.076396 91.095433 
L 100.134897 90.7927 
L 100.496988 90.732153 
L 100.521651 90.550513 
L 100.81791 90.489967 
L 100.81791 90.42942 
L 101.022826 90.368873 
L 101.082573 90.24778 
L 101.258898 90.187234 
L 101.341869 90.06614 
L 101.419335 90.005594 
L 101.526348 89.70286 
L 101.587824 89.642314 
L 101.682344 89.400127 
L 101.950721 89.33958 
L 102.034348 89.218487 
L 102.147506 89.15794 
L 102.214907 89.036847 
L 102.305227 88.9763 
L 102.394531 88.79466 
L 102.505025 88.734114 
L 102.59436 88.491927 
L 102.773352 88.43138 
L 102.838742 88.310287 
L 103.091621 88.24974 
L 103.194225 88.007554 
L 103.246194 87.947007 
L 103.350107 87.644274 
L 103.379379 87.583727 
L 103.455178 87.402087 
L 103.506856 87.341541 
L 103.506856 87.280994 
L 103.660439 87.220447 
L 103.736332 87.038807 
L 103.894042 86.978261 
L 103.954007 86.857167 
L 104.254609 86.796621 
L 104.254609 86.736074 
L 104.383491 86.675527 
L 104.383491 86.614981 
L 104.60542 86.554434 
L 104.713962 86.372794 
L 104.871152 86.312247 
L 104.884114 86.191154 
L 105.477708 86.130607 
L 105.532984 85.948967 
L 105.982523 85.888421 
L 105.982523 85.827874 
L 106.221325 85.767328 
L 106.262035 85.646234 
L 106.413977 85.585688 
L 106.428466 85.464594 
L 106.571824 85.404048 
L 106.659513 85.161861 
L 107.131019 85.101314 
L 107.131019 85.040768 
L 107.325462 84.980221 
L 107.424929 84.798581 
L 107.504911 84.738034 
L 107.514838 84.556394 
L 107.65585 84.495848 
L 107.65585 84.435301 
L 107.99888 84.374754 
L 108.042576 84.253661 
L 108.201992 84.193114 
L 108.262708 83.890381 
L 108.669029 83.829834 
L 108.694372 83.587648 
L 108.886573 83.527101 
L 108.97286 83.406008 
L 109.064162 83.345461 
L 109.166942 83.224368 
L 109.771713 83.163821 
L 109.843815 83.042728 
L 110.006551 82.982181 
L 110.075273 82.800541 
L 110.244167 82.739995 
L 110.333552 82.558355 
L 110.391594 82.497808 
L 110.499425 82.134528 
L 110.589911 82.073981 
L 110.589911 82.013435 
L 110.968918 81.952888 
L 110.968918 81.892341 
L 111.298611 81.831795 
L 111.357683 81.710701 
L 111.571318 81.650155 
L 111.571318 81.589608 
L 112.045428 81.529062 
L 112.045428 81.468515 
L 112.41516 81.407968 
L 112.41516 81.347422 
L 112.647202 81.286875 
L 112.647202 81.226328 
L 112.87043 81.165782 
L 112.933496 81.044688 
L 113.102967 80.984142 
L 113.213139 80.802502 
L 113.25716 80.741955 
L 113.25716 80.681408 
L 113.640215 80.620862 
L 113.744347 80.499768 
L 114.010275 80.439222 
L 114.119556 80.318128 
L 114.162874 80.257582 
L 114.162874 80.197035 
L 114.764046 80.136488 
L 114.770223 80.015395 
L 115.164684 79.954848 
L 115.187052 79.833755 
L 115.518461 79.773208 
L 115.62128 79.652115 
L 115.868275 79.591568 
L 115.868275 79.531022 
L 115.982753 79.470475 
L 116.056314 79.228289 
L 116.186279 79.167742 
L 116.215301 78.986102 
L 116.595242 78.925555 
L 116.666014 78.683369 
L 116.970468 78.622822 
L 117.061913 78.259542 
L 117.498947 78.198995 
L 117.498947 78.138449 
L 117.807495 78.077902 
L 117.807495 78.017355 
L 117.993802 77.956809 
L 118.066308 77.775169 
L 118.247077 77.714622 
L 118.252199 77.593529 
L 118.493108 77.532982 
L 118.493108 77.472435 
L 118.819656 77.411889 
L 118.819656 77.351342 
L 119.294301 77.290795 
L 119.294301 77.230249 
L 119.547656 77.169702 
L 119.564147 77.048609 
L 119.844401 76.988062 
L 119.844401 76.927516 
L 120.140122 76.866969 
L 120.140122 76.806422 
L 120.837766 76.745876 
L 120.879504 76.624782 
L 121.407901 76.564236 
L 121.407901 76.503689 
L 121.626167 76.443142 
L 121.703403 76.261502 
L 122.001257 76.200956 
L 122.001257 76.140409 
L 122.170051 76.079862 
L 122.273105 75.837676 
L 122.37069 75.777129 
L 122.37069 75.716582 
L 122.552423 75.656036 
L 122.660503 75.474396 
L 122.819006 75.413849 
L 122.819006 75.353302 
L 123.195671 75.292756 
L 123.230561 75.171662 
L 123.952984 75.111116 
L 123.979512 74.990022 
L 124.263371 74.929476 
L 124.263371 74.868929 
L 124.417348 74.808383 
L 124.441629 74.687289 
L 124.994872 74.626743 
L 124.994872 74.566196 
L 125.280399 74.505649 
L 125.37444 74.384556 
L 125.551014 74.324009 
L 125.551014 74.263463 
L 125.941037 74.202916 
L 126.040738 73.960729 
L 126.318431 73.900183 
L 126.318431 73.839636 
L 126.610936 73.779089 
L 126.711966 73.597449 
L 126.908376 73.536903 
L 127.017179 73.415809 
L 127.043644 73.355263 
L 127.106522 73.234169 
L 127.669856 73.173623 
L 127.739596 73.052529 
L 127.889199 72.991983 
L 127.889199 72.931436 
L 128.047346 72.870889 
L 128.059852 72.749796 
L 128.597312 72.68925 
L 128.701521 72.568156 
L 128.772021 72.50761 
L 128.85135 72.386516 
L 129.32153 72.32597 
L 129.32153 72.265423 
L 129.543589 72.204876 
L 129.543589 72.14433 
L 129.693336 72.083783 
L 129.762868 71.902143 
L 130.060752 71.841596 
L 130.060752 71.78105 
L 130.331164 71.720503 
L 130.331164 71.659956 
L 130.591182 71.59941 
L 130.633628 71.478316 
L 131.019028 71.41777 
L 131.105997 71.23613 
L 131.438845 71.175583 
L 131.475575 71.05449 
L 132.02198 70.993943 
L 132.032614 70.87285 
L 133.00363 70.812303 
L 133.029298 70.69121 
L 133.33444 70.630663 
L 133.33444 70.570117 
L 133.674504 70.50957 
L 133.783455 70.32793 
L 133.922135 70.267383 
L 133.922135 70.206837 
L 134.310827 70.14629 
L 134.310827 70.085743 
L 134.534425 70.025197 
L 134.587176 69.904103 
L 135.536688 69.843557 
L 135.646248 69.722463 
L 136.025913 69.661917 
L 136.025913 69.60137 
L 136.504556 69.540823 
L 136.504556 69.480277 
L 137.52338 69.41973 
L 137.52338 69.359183 
L 138.374855 69.298637 
L 138.374855 69.23809 
L 138.762059 69.177543 
L 138.762059 69.116997 
L 139.289521 69.05645 
L 139.293457 68.935357 
L 139.791692 68.87481 
L 139.868757 68.753717 
L 140.030978 68.69317 
L 140.047807 68.51153 
L 140.578786 68.450983 
L 140.578786 68.390437 
L 141.120371 68.32989 
L 141.120371 68.269344 
L 141.902805 68.208797 
L 142.011035 67.96661 
L 142.491653 67.906064 
L 142.4939 67.78497 
L 142.845362 67.724424 
L 142.845362 67.663877 
L 143.405614 67.60333 
L 143.477786 67.482237 
L 143.628184 67.42169 
L 143.628184 67.361144 
L 145.240897 67.300597 
L 145.240897 67.24005 
L 145.659356 67.179504 
L 145.710992 66.997864 
L 146.740171 66.937317 
L 146.802868 66.816224 
L 147.132829 66.755677 
L 147.179069 66.634584 
L 147.453023 66.574037 
L 147.510438 66.452944 
L 147.879624 66.392397 
L 147.925756 66.210757 
L 148.480949 66.150211 
L 148.480949 66.089664 
L 148.629429 66.029117 
L 148.629429 65.968571 
L 149.211316 65.908024 
L 149.283377 65.786931 
L 149.417986 65.726384 
L 149.47008 65.605291 
L 150.266065 65.544744 
L 150.266065 65.484197 
L 150.796385 65.423651 
L 150.796385 65.363104 
L 151.140197 65.302557 
L 151.140197 65.242011 
L 151.374112 65.181464 
L 151.429899 65.060371 
L 151.686389 64.999824 
L 151.773662 64.878731 
L 152.670472 64.818184 
L 152.670472 64.757637 
L 153.398569 64.697091 
L 153.448271 64.575997 
L 153.811083 64.515451 
L 153.908487 64.333811 
L 154.086775 64.273264 
L 154.152167 64.152171 
L 154.526872 64.091624 
L 154.526872 64.031077 
L 155.012232 63.970531 
L 155.012232 63.909984 
L 155.321829 63.849438 
L 155.426392 63.728344 
L 156.223402 63.667798 
L 156.223402 63.607251 
L 157.050459 63.546704 
L 157.050459 63.486158 
L 157.611132 63.425611 
L 157.611132 63.365064 
L 158.034869 63.304518 
L 158.124852 63.183424 
L 158.298729 63.122878 
L 158.298729 63.062331 
L 158.686529 63.001784 
L 158.686529 62.941238 
L 160.069043 62.880691 
L 160.136845 62.759598 
L 160.30918 62.699051 
L 160.30918 62.638504 
L 160.898004 62.577958 
L 160.898004 62.517411 
L 161.631898 62.456864 
L 161.631898 62.396318 
L 162.041221 62.335771 
L 162.041221 62.275224 
L 162.236562 62.214678 
L 162.236562 62.154131 
L 163.188555 62.093584 
L 163.26391 61.972491 
L 163.966024 61.911944 
L 164.0597 61.790851 
L 164.201265 61.730305 
L 164.201265 61.669758 
L 164.372722 61.609211 
L 164.372722 61.548665 
L 164.692165 61.488118 
L 164.692165 61.427571 
L 165.160805 61.367025 
L 165.265612 61.245931 
L 166.058097 61.185385 
L 166.058097 61.124838 
L 166.459556 61.064291 
L 166.459556 61.003745 
L 167.535697 60.943198 
L 167.535697 60.882651 
L 167.834207 60.822105 
L 167.834207 60.761558 
L 168.538331 60.701011 
L 168.538331 60.640465 
L 170.270873 60.579918 
L 170.270873 60.519371 
L 170.637837 60.458825 
L 170.637837 60.398278 
L 171.367422 60.337731 
L 171.367422 60.277185 
L 171.999677 60.216638 
L 172.059302 60.095545 
L 172.741849 60.034998 
L 172.741849 59.974451 
L 173.339791 59.913905 
L 173.339791 59.853358 
L 174.523385 59.792811 
L 174.523385 59.732265 
L 177.168118 59.671718 
L 177.275149 59.550625 
L 178.731806 59.490078 
L 178.795402 59.368985 
L 180.086434 59.308438 
L 180.086434 59.247892 
L 182.140651 59.187345 
L 182.140651 59.126798 
L 183.121304 59.066252 
L 183.121304 59.005705 
L 183.876128 58.945158 
L 183.876128 58.884612 
L 184.092243 58.824065 
L 184.092243 58.763518 
L 186.766722 58.702972 
L 186.766722 58.642425 
L 188.256834 58.581878 
L 188.256834 58.521332 
L 190.152502 58.460785 
L 190.152502 58.400238 
L 190.40756 58.339692 
L 190.40756 58.279145 
L 190.883768 58.218598 
L 190.883768 58.158052 
L 193.455587 58.097505 
L 193.455587 58.036958 
L 196.037387 57.976412 
L 196.037387 57.915865 
L 198.56927 57.855318 
L 198.56927 57.794772 
L 200.750719 57.734225 
L 200.750719 57.673678 
L 201.588895 57.613132 
L 201.588895 57.552585 
L 207.657502 57.492038 
L 207.657502 57.431492 
L 213.729077 57.370945 
L 213.729077 57.310399 
L 218.598585 57.249852 
L 218.598585 57.189305 
L 222.059719 57.128759 
L 222.059719 57.068212 
L 224.637812 57.007665 
L 224.637812 56.947119 
L 226.497678 56.886572 
L 226.497678 56.826025 
L 232.619388 56.765479 
L 232.619388 56.704932 
L 235.367214 56.644385 
L 235.385497 56.523292 
L 244.444616 56.462745 
L 244.444616 56.402199 
L 255.193745 56.341652 
L 255.193745 56.281105 
L 258.015867 56.220559 
L 258.015867 56.160012 
L 263.124619 56.099465 
L 263.214566 55.978372 
L 280.610885 55.917825 
L 280.610885 55.857279 
L 299.277767 55.796732 
L 299.277767 55.736185 
L 305.109512 55.675639 
L 305.109512 55.615092 
L 311.318182 55.615092 
L 311.318182 55.554545 
" style="fill:none;stroke:#1f77b4;stroke-linecap:square;stroke-width:1.5;"/>
   </g>
   <g id="patch_3">
    <path d="M 45 315 
L 45 43.2 
" style="fill:none;stroke:#000000;stroke-linecap:square;stroke-linejoin:miter;stroke-width:0.8;"/>
   </g>
   <g id="patch_4">
    <path d="M 324 315 
L 324 43.2 
" style="fill:none;stroke:#000000;stroke-linecap:square;stroke-linejoin:miter;stroke-width:0.8;"/>
   </g>
   <g id="patch_5">
    <path d="M 45 315 
L 324 315 
" style="fill:none;stroke:#000000;stroke-linecap:square;stroke-linejoin:miter;stroke-width:0.8;"/>
   </g>
   <g id="patch_6">
    <path d="M 45 43.2 
L 324 43.2 
" style="fill:none;stroke:#000000;stroke-linecap:square;stroke-linejoin:miter;stroke-width:0.8;"/>
   </g>
   <g id="text_19">
    <!-- CDF of MDPF:Vivado -->
    <defs>
     <path d="M 64.40625 67.28125 
L 64.40625 56.890625 
Q 59.421875 61.53125 53.78125 63.8125 
Q 48.140625 66.109375 41.796875 66.109375 
Q 29.296875 66.109375 22.65625 58.46875 
Q 16.015625 50.828125 16.015625 36.375 
Q 16.015625 21.96875 22.65625 14.328125 
Q 29.296875 6.6875 41.796875 6.6875 
Q 48.140625 6.6875 53.78125 8.984375 
Q 59.421875 11.28125 64.40625 15.921875 
L 64.40625 5.609375 
Q 59.234375 2.09375 53.4375 0.328125 
Q 47.65625 -1.421875 41.21875 -1.421875 
Q 24.65625 -1.421875 15.125 8.703125 
Q 5.609375 18.84375 5.609375 36.375 
Q 5.609375 53.953125 15.125 64.078125 
Q 24.65625 74.21875 41.21875 74.21875 
Q 47.75 74.21875 53.53125 72.484375 
Q 59.328125 70.75 64.40625 67.28125 
z
" id="DejaVuSans-67"/>
     <path d="M 11.71875 12.40625 
L 22.015625 12.40625 
L 22.015625 0 
L 11.71875 0 
z
M 11.71875 51.703125 
L 22.015625 51.703125 
L 22.015625 39.3125 
L 11.71875 39.3125 
z
" id="DejaVuSans-58"/>
     <path d="M 28.609375 0 
L 0.78125 72.90625 
L 11.078125 72.90625 
L 34.1875 11.53125 
L 57.328125 72.90625 
L 67.578125 72.90625 
L 39.796875 0 
z
" id="DejaVuSans-86"/>
     <path d="M 2.984375 54.6875 
L 12.5 54.6875 
L 29.59375 8.796875 
L 46.6875 54.6875 
L 56.203125 54.6875 
L 35.6875 0 
L 23.484375 0 
z
" id="DejaVuSans-118"/>
     <path d="M 34.28125 27.484375 
Q 23.390625 27.484375 19.1875 25 
Q 14.984375 22.515625 14.984375 16.5 
Q 14.984375 11.71875 18.140625 8.90625 
Q 21.296875 6.109375 26.703125 6.109375 
Q 34.1875 6.109375 38.703125 11.40625 
Q 43.21875 16.703125 43.21875 25.484375 
L 43.21875 27.484375 
z
M 52.203125 31.203125 
L 52.203125 0 
L 43.21875 0 
L 43.21875 8.296875 
Q 40.140625 3.328125 35.546875 0.953125 
Q 30.953125 -1.421875 24.3125 -1.421875 
Q 15.921875 -1.421875 10.953125 3.296875 
Q 6 8.015625 6 15.921875 
Q 6 25.140625 12.171875 29.828125 
Q 18.359375 34.515625 30.609375 34.515625 
L 43.21875 34.515625 
L 43.21875 35.40625 
Q 43.21875 41.609375 39.140625 45 
Q 35.0625 48.390625 27.6875 48.390625 
Q 23 48.390625 18.546875 47.265625 
Q 14.109375 46.140625 10.015625 43.890625 
L 10.015625 52.203125 
Q 14.9375 54.109375 19.578125 55.046875 
Q 24.21875 56 28.609375 56 
Q 40.484375 56 46.34375 49.84375 
Q 52.203125 43.703125 52.203125 31.203125 
z
" id="DejaVuSans-97"/>
     <path d="M 45.40625 46.390625 
L 45.40625 75.984375 
L 54.390625 75.984375 
L 54.390625 0 
L 45.40625 0 
L 45.40625 8.203125 
Q 42.578125 3.328125 38.25 0.953125 
Q 33.9375 -1.421875 27.875 -1.421875 
Q 17.96875 -1.421875 11.734375 6.484375 
Q 5.515625 14.40625 5.515625 27.296875 
Q 5.515625 40.1875 11.734375 48.09375 
Q 17.96875 56 27.875 56 
Q 33.9375 56 38.25 53.625 
Q 42.578125 51.265625 45.40625 46.390625 
z
M 14.796875 27.296875 
Q 14.796875 17.390625 18.875 11.75 
Q 22.953125 6.109375 30.078125 6.109375 
Q 37.203125 6.109375 41.296875 11.75 
Q 45.40625 17.390625 45.40625 27.296875 
Q 45.40625 37.203125 41.296875 42.84375 
Q 37.203125 48.484375 30.078125 48.484375 
Q 22.953125 48.484375 18.875 42.84375 
Q 14.796875 37.203125 14.796875 27.296875 
z
" id="DejaVuSans-100"/>
    </defs>
    <g transform="translate(123.284063 37.2)scale(0.12 -0.12)">
     <use xlink:href="#DejaVuSans-67"/>
     <use x="69.824219" xlink:href="#DejaVuSans-68"/>
     <use x="146.826172" xlink:href="#DejaVuSans-70"/>
     <use x="204.345703" xlink:href="#DejaVuSans-32"/>
     <use x="236.132812" xlink:href="#DejaVuSans-111"/>
     <use x="297.314453" xlink:href="#DejaVuSans-102"/>
     <use x="332.519531" xlink:href="#DejaVuSans-32"/>
     <use x="364.306641" xlink:href="#DejaVuSans-77"/>
     <use x="450.585938" xlink:href="#DejaVuSans-68"/>
     <use x="527.587891" xlink:href="#DejaVuSans-80"/>
     <use x="587.890625" xlink:href="#DejaVuSans-70"/>
     <use x="645.300781" xlink:href="#DejaVuSans-58"/>
     <use x="678.992188" xlink:href="#DejaVuSans-86"/>
     <use x="747.369141" xlink:href="#DejaVuSans-105"/>
     <use x="775.152344" xlink:href="#DejaVuSans-118"/>
     <use x="834.332031" xlink:href="#DejaVuSans-97"/>
     <use x="895.611328" xlink:href="#DejaVuSans-100"/>
     <use x="959.087891" xlink:href="#DejaVuSans-111"/>
    </g>
   </g>
  </g>
 </g>
 <defs>
  <clipPath id="p4f7e613d9a">
   <rect height="271.8" width="279" x="45" y="43.2"/>
  </clipPath>
 </defs>
</svg>
