<?xml version="1.0" encoding="utf-8" standalone="no"?>
<!DOCTYPE svg PUBLIC "-//W3C//DTD SVG 1.1//EN"
  "http://www.w3.org/Graphics/SVG/1.1/DTD/svg11.dtd">
<!-- Created with matplotlib (https://matplotlib.org/) -->
<svg height="360pt" version="1.1" viewBox="0 0 360 360" width="360pt" xmlns="http://www.w3.org/2000/svg" xmlns:xlink="http://www.w3.org/1999/xlink">
 <defs>
  <style type="text/css">
*{stroke-linecap:butt;stroke-linejoin:round;}
  </style>
 </defs>
 <g id="figure_1">
  <g id="patch_1">
   <path d="M 0 360 
L 360 360 
L 360 0 
L 0 0 
z
" style="fill:#ffffff;"/>
  </g>
  <g id="axes_1">
   <g id="patch_2">
    <path d="M 45 315 
L 324 315 
L 324 43.2 
L 45 43.2 
z
" style="fill:#ffffff;"/>
   </g>
   <g id="matplotlib.axis_1">
    <g id="xtick_1">
     <g id="line2d_1">
      <defs>
       <path d="M 0 0 
L 0 3.5 
" id="mca7b99f2ee" style="stroke:#000000;stroke-width:0.8;"/>
      </defs>
      <g>
       <use style="stroke:#000000;stroke-width:0.8;" x="74.654784" xlink:href="#mca7b99f2ee" y="315"/>
      </g>
     </g>
     <g id="text_1">
      <!-- 0.0005 -->
      <defs>
       <path d="M 31.78125 66.40625 
Q 24.171875 66.40625 20.328125 58.90625 
Q 16.5 51.421875 16.5 36.375 
Q 16.5 21.390625 20.328125 13.890625 
Q 24.171875 6.390625 31.78125 6.390625 
Q 39.453125 6.390625 43.28125 13.890625 
Q 47.125 21.390625 47.125 36.375 
Q 47.125 51.421875 43.28125 58.90625 
Q 39.453125 66.40625 31.78125 66.40625 
z
M 31.78125 74.21875 
Q 44.046875 74.21875 50.515625 64.515625 
Q 56.984375 54.828125 56.984375 36.375 
Q 56.984375 17.96875 50.515625 8.265625 
Q 44.046875 -1.421875 31.78125 -1.421875 
Q 19.53125 -1.421875 13.0625 8.265625 
Q 6.59375 17.96875 6.59375 36.375 
Q 6.59375 54.828125 13.0625 64.515625 
Q 19.53125 74.21875 31.78125 74.21875 
z
" id="DejaVuSans-48"/>
       <path d="M 10.6875 12.40625 
L 21 12.40625 
L 21 0 
L 10.6875 0 
z
" id="DejaVuSans-46"/>
       <path d="M 10.796875 72.90625 
L 49.515625 72.90625 
L 49.515625 64.59375 
L 19.828125 64.59375 
L 19.828125 46.734375 
Q 21.96875 47.46875 24.109375 47.828125 
Q 26.265625 48.1875 28.421875 48.1875 
Q 40.625 48.1875 47.75 41.5 
Q 54.890625 34.8125 54.890625 23.390625 
Q 54.890625 11.625 47.5625 5.09375 
Q 40.234375 -1.421875 26.90625 -1.421875 
Q 22.3125 -1.421875 17.546875 -0.640625 
Q 12.796875 0.140625 7.71875 1.703125 
L 7.71875 11.625 
Q 12.109375 9.234375 16.796875 8.0625 
Q 21.484375 6.890625 26.703125 6.890625 
Q 35.15625 6.890625 40.078125 11.328125 
Q 45.015625 15.765625 45.015625 23.390625 
Q 45.015625 31 40.078125 35.4375 
Q 35.15625 39.890625 26.703125 39.890625 
Q 22.75 39.890625 18.8125 39.015625 
Q 14.890625 38.140625 10.796875 36.28125 
z
" id="DejaVuSans-53"/>
      </defs>
      <g transform="translate(57.159471 329.598437)scale(0.1 -0.1)">
       <use xlink:href="#DejaVuSans-48"/>
       <use x="63.623047" xlink:href="#DejaVuSans-46"/>
       <use x="95.410156" xlink:href="#DejaVuSans-48"/>
       <use x="159.033203" xlink:href="#DejaVuSans-48"/>
       <use x="222.65625" xlink:href="#DejaVuSans-48"/>
       <use x="286.279297" xlink:href="#DejaVuSans-53"/>
      </g>
     </g>
    </g>
    <g id="xtick_2">
     <g id="line2d_2">
      <g>
       <use style="stroke:#000000;stroke-width:0.8;" x="123.471962" xlink:href="#mca7b99f2ee" y="315"/>
      </g>
     </g>
     <g id="text_2">
      <!-- 0.0010 -->
      <defs>
       <path d="M 12.40625 8.296875 
L 28.515625 8.296875 
L 28.515625 63.921875 
L 10.984375 60.40625 
L 10.984375 69.390625 
L 28.421875 72.90625 
L 38.28125 72.90625 
L 38.28125 8.296875 
L 54.390625 8.296875 
L 54.390625 0 
L 12.40625 0 
z
" id="DejaVuSans-49"/>
      </defs>
      <g transform="translate(105.97665 329.598437)scale(0.1 -0.1)">
       <use xlink:href="#DejaVuSans-48"/>
       <use x="63.623047" xlink:href="#DejaVuSans-46"/>
       <use x="95.410156" xlink:href="#DejaVuSans-48"/>
       <use x="159.033203" xlink:href="#DejaVuSans-48"/>
       <use x="222.65625" xlink:href="#DejaVuSans-49"/>
       <use x="286.279297" xlink:href="#DejaVuSans-48"/>
      </g>
     </g>
    </g>
    <g id="xtick_3">
     <g id="line2d_3">
      <g>
       <use style="stroke:#000000;stroke-width:0.8;" x="172.289141" xlink:href="#mca7b99f2ee" y="315"/>
      </g>
     </g>
     <g id="text_3">
      <!-- 0.0015 -->
      <g transform="translate(154.793828 329.598437)scale(0.1 -0.1)">
       <use xlink:href="#DejaVuSans-48"/>
       <use x="63.623047" xlink:href="#DejaVuSans-46"/>
       <use x="95.410156" xlink:href="#DejaVuSans-48"/>
       <use x="159.033203" xlink:href="#DejaVuSans-48"/>
       <use x="222.65625" xlink:href="#DejaVuSans-49"/>
       <use x="286.279297" xlink:href="#DejaVuSans-53"/>
      </g>
     </g>
    </g>
    <g id="xtick_4">
     <g id="line2d_4">
      <g>
       <use style="stroke:#000000;stroke-width:0.8;" x="221.10632" xlink:href="#mca7b99f2ee" y="315"/>
      </g>
     </g>
     <g id="text_4">
      <!-- 0.0020 -->
      <defs>
       <path d="M 19.1875 8.296875 
L 53.609375 8.296875 
L 53.609375 0 
L 7.328125 0 
L 7.328125 8.296875 
Q 12.9375 14.109375 22.625 23.890625 
Q 32.328125 33.6875 34.8125 36.53125 
Q 39.546875 41.84375 41.421875 45.53125 
Q 43.3125 49.21875 43.3125 52.78125 
Q 43.3125 58.59375 39.234375 62.25 
Q 35.15625 65.921875 28.609375 65.921875 
Q 23.96875 65.921875 18.8125 64.3125 
Q 13.671875 62.703125 7.8125 59.421875 
L 7.8125 69.390625 
Q 13.765625 71.78125 18.9375 73 
Q 24.125 74.21875 28.421875 74.21875 
Q 39.75 74.21875 46.484375 68.546875 
Q 53.21875 62.890625 53.21875 53.421875 
Q 53.21875 48.921875 51.53125 44.890625 
Q 49.859375 40.875 45.40625 35.40625 
Q 44.1875 33.984375 37.640625 27.21875 
Q 31.109375 20.453125 19.1875 8.296875 
z
" id="DejaVuSans-50"/>
      </defs>
      <g transform="translate(203.611007 329.598437)scale(0.1 -0.1)">
       <use xlink:href="#DejaVuSans-48"/>
       <use x="63.623047" xlink:href="#DejaVuSans-46"/>
       <use x="95.410156" xlink:href="#DejaVuSans-48"/>
       <use x="159.033203" xlink:href="#DejaVuSans-48"/>
       <use x="222.65625" xlink:href="#DejaVuSans-50"/>
       <use x="286.279297" xlink:href="#DejaVuSans-48"/>
      </g>
     </g>
    </g>
    <g id="xtick_5">
     <g id="line2d_5">
      <g>
       <use style="stroke:#000000;stroke-width:0.8;" x="269.923498" xlink:href="#mca7b99f2ee" y="315"/>
      </g>
     </g>
     <g id="text_5">
      <!-- 0.0025 -->
      <g transform="translate(252.428186 329.598437)scale(0.1 -0.1)">
       <use xlink:href="#DejaVuSans-48"/>
       <use x="63.623047" xlink:href="#DejaVuSans-46"/>
       <use x="95.410156" xlink:href="#DejaVuSans-48"/>
       <use x="159.033203" xlink:href="#DejaVuSans-48"/>
       <use x="222.65625" xlink:href="#DejaVuSans-50"/>
       <use x="286.279297" xlink:href="#DejaVuSans-53"/>
      </g>
     </g>
    </g>
    <g id="xtick_6">
     <g id="line2d_6">
      <g>
       <use style="stroke:#000000;stroke-width:0.8;" x="318.740677" xlink:href="#mca7b99f2ee" y="315"/>
      </g>
     </g>
     <g id="text_6">
      <!-- 0.0030 -->
      <defs>
       <path d="M 40.578125 39.3125 
Q 47.65625 37.796875 51.625 33 
Q 55.609375 28.21875 55.609375 21.1875 
Q 55.609375 10.40625 48.1875 4.484375 
Q 40.765625 -1.421875 27.09375 -1.421875 
Q 22.515625 -1.421875 17.65625 -0.515625 
Q 12.796875 0.390625 7.625 2.203125 
L 7.625 11.71875 
Q 11.71875 9.328125 16.59375 8.109375 
Q 21.484375 6.890625 26.8125 6.890625 
Q 36.078125 6.890625 40.9375 10.546875 
Q 45.796875 14.203125 45.796875 21.1875 
Q 45.796875 27.640625 41.28125 31.265625 
Q 36.765625 34.90625 28.71875 34.90625 
L 20.21875 34.90625 
L 20.21875 43.015625 
L 29.109375 43.015625 
Q 36.375 43.015625 40.234375 45.921875 
Q 44.09375 48.828125 44.09375 54.296875 
Q 44.09375 59.90625 40.109375 62.90625 
Q 36.140625 65.921875 28.71875 65.921875 
Q 24.65625 65.921875 20.015625 65.03125 
Q 15.375 64.15625 9.8125 62.3125 
L 9.8125 71.09375 
Q 15.4375 72.65625 20.34375 73.4375 
Q 25.25 74.21875 29.59375 74.21875 
Q 40.828125 74.21875 47.359375 69.109375 
Q 53.90625 64.015625 53.90625 55.328125 
Q 53.90625 49.265625 50.4375 45.09375 
Q 46.96875 40.921875 40.578125 39.3125 
z
" id="DejaVuSans-51"/>
      </defs>
      <g transform="translate(301.245364 329.598437)scale(0.1 -0.1)">
       <use xlink:href="#DejaVuSans-48"/>
       <use x="63.623047" xlink:href="#DejaVuSans-46"/>
       <use x="95.410156" xlink:href="#DejaVuSans-48"/>
       <use x="159.033203" xlink:href="#DejaVuSans-48"/>
       <use x="222.65625" xlink:href="#DejaVuSans-51"/>
       <use x="286.279297" xlink:href="#DejaVuSans-48"/>
      </g>
     </g>
    </g>
    <g id="text_7">
     <!-- 1/CLB -->
     <defs>
      <path d="M 25.390625 72.90625 
L 33.6875 72.90625 
L 8.296875 -9.28125 
L 0 -9.28125 
z
" id="DejaVuSans-47"/>
      <path d="M 64.40625 67.28125 
L 64.40625 56.890625 
Q 59.421875 61.53125 53.78125 63.8125 
Q 48.140625 66.109375 41.796875 66.109375 
Q 29.296875 66.109375 22.65625 58.46875 
Q 16.015625 50.828125 16.015625 36.375 
Q 16.015625 21.96875 22.65625 14.328125 
Q 29.296875 6.6875 41.796875 6.6875 
Q 48.140625 6.6875 53.78125 8.984375 
Q 59.421875 11.28125 64.40625 15.921875 
L 64.40625 5.609375 
Q 59.234375 2.09375 53.4375 0.328125 
Q 47.65625 -1.421875 41.21875 -1.421875 
Q 24.65625 -1.421875 15.125 8.703125 
Q 5.609375 18.84375 5.609375 36.375 
Q 5.609375 53.953125 15.125 64.078125 
Q 24.65625 74.21875 41.21875 74.21875 
Q 47.75 74.21875 53.53125 72.484375 
Q 59.328125 70.75 64.40625 67.28125 
z
" id="DejaVuSans-67"/>
      <path d="M 9.8125 72.90625 
L 19.671875 72.90625 
L 19.671875 8.296875 
L 55.171875 8.296875 
L 55.171875 0 
L 9.8125 0 
z
" id="DejaVuSans-76"/>
      <path d="M 19.671875 34.8125 
L 19.671875 8.109375 
L 35.5 8.109375 
Q 43.453125 8.109375 47.28125 11.40625 
Q 51.125 14.703125 51.125 21.484375 
Q 51.125 28.328125 47.28125 31.5625 
Q 43.453125 34.8125 35.5 34.8125 
z
M 19.671875 64.796875 
L 19.671875 42.828125 
L 34.28125 42.828125 
Q 41.5 42.828125 45.03125 45.53125 
Q 48.578125 48.25 48.578125 53.8125 
Q 48.578125 59.328125 45.03125 62.0625 
Q 41.5 64.796875 34.28125 64.796875 
z
M 9.8125 72.90625 
L 35.015625 72.90625 
Q 46.296875 72.90625 52.390625 68.21875 
Q 58.5 63.53125 58.5 54.890625 
Q 58.5 48.1875 55.375 44.234375 
Q 52.25 40.28125 46.1875 39.3125 
Q 53.46875 37.75 57.5 32.78125 
Q 61.53125 27.828125 61.53125 20.40625 
Q 61.53125 10.640625 54.890625 5.3125 
Q 48.25 0 35.984375 0 
L 9.8125 0 
z
" id="DejaVuSans-66"/>
     </defs>
     <g transform="translate(169.926562 343.276563)scale(0.1 -0.1)">
      <use xlink:href="#DejaVuSans-49"/>
      <use x="63.623047" xlink:href="#DejaVuSans-47"/>
      <use x="97.314453" xlink:href="#DejaVuSans-67"/>
      <use x="167.138672" xlink:href="#DejaVuSans-76"/>
      <use x="222.851562" xlink:href="#DejaVuSans-66"/>
     </g>
    </g>
   </g>
   <g id="matplotlib.axis_2">
    <g id="ytick_1">
     <g id="line2d_7">
      <defs>
       <path d="M 0 0 
L -3.5 0 
" id="m23d1a5e8cc" style="stroke:#000000;stroke-width:0.8;"/>
      </defs>
      <g>
       <use style="stroke:#000000;stroke-width:0.8;" x="45" xlink:href="#m23d1a5e8cc" y="302.645455"/>
      </g>
     </g>
     <g id="text_8">
      <!-- 0 -->
      <g transform="translate(31.6375 306.444673)scale(0.1 -0.1)">
       <use xlink:href="#DejaVuSans-48"/>
      </g>
     </g>
    </g>
    <g id="ytick_2">
     <g id="line2d_8">
      <g>
       <use style="stroke:#000000;stroke-width:0.8;" x="45" xlink:href="#m23d1a5e8cc" y="242.320526"/>
      </g>
     </g>
     <g id="text_9">
      <!-- 1000 -->
      <g transform="translate(12.55 246.119744)scale(0.1 -0.1)">
       <use xlink:href="#DejaVuSans-49"/>
       <use x="63.623047" xlink:href="#DejaVuSans-48"/>
       <use x="127.246094" xlink:href="#DejaVuSans-48"/>
       <use x="190.869141" xlink:href="#DejaVuSans-48"/>
      </g>
     </g>
    </g>
    <g id="ytick_3">
     <g id="line2d_9">
      <g>
       <use style="stroke:#000000;stroke-width:0.8;" x="45" xlink:href="#m23d1a5e8cc" y="181.995597"/>
      </g>
     </g>
     <g id="text_10">
      <!-- 2000 -->
      <g transform="translate(12.55 185.794815)scale(0.1 -0.1)">
       <use xlink:href="#DejaVuSans-50"/>
       <use x="63.623047" xlink:href="#DejaVuSans-48"/>
       <use x="127.246094" xlink:href="#DejaVuSans-48"/>
       <use x="190.869141" xlink:href="#DejaVuSans-48"/>
      </g>
     </g>
    </g>
    <g id="ytick_4">
     <g id="line2d_10">
      <g>
       <use style="stroke:#000000;stroke-width:0.8;" x="45" xlink:href="#m23d1a5e8cc" y="121.670668"/>
      </g>
     </g>
     <g id="text_11">
      <!-- 3000 -->
      <g transform="translate(12.55 125.469886)scale(0.1 -0.1)">
       <use xlink:href="#DejaVuSans-51"/>
       <use x="63.623047" xlink:href="#DejaVuSans-48"/>
       <use x="127.246094" xlink:href="#DejaVuSans-48"/>
       <use x="190.869141" xlink:href="#DejaVuSans-48"/>
      </g>
     </g>
    </g>
    <g id="ytick_5">
     <g id="line2d_11">
      <g>
       <use style="stroke:#000000;stroke-width:0.8;" x="45" xlink:href="#m23d1a5e8cc" y="61.345739"/>
      </g>
     </g>
     <g id="text_12">
      <!-- 4000 -->
      <defs>
       <path d="M 37.796875 64.3125 
L 12.890625 25.390625 
L 37.796875 25.390625 
z
M 35.203125 72.90625 
L 47.609375 72.90625 
L 47.609375 25.390625 
L 58.015625 25.390625 
L 58.015625 17.1875 
L 47.609375 17.1875 
L 47.609375 0 
L 37.796875 0 
L 37.796875 17.1875 
L 4.890625 17.1875 
L 4.890625 26.703125 
z
" id="DejaVuSans-52"/>
      </defs>
      <g transform="translate(12.55 65.144957)scale(0.1 -0.1)">
       <use xlink:href="#DejaVuSans-52"/>
       <use x="63.623047" xlink:href="#DejaVuSans-48"/>
       <use x="127.246094" xlink:href="#DejaVuSans-48"/>
       <use x="190.869141" xlink:href="#DejaVuSans-48"/>
      </g>
     </g>
    </g>
    <g id="text_13">
     <!-- Number of Designs -->
     <defs>
      <path d="M 9.8125 72.90625 
L 23.09375 72.90625 
L 55.421875 11.921875 
L 55.421875 72.90625 
L 64.984375 72.90625 
L 64.984375 0 
L 51.703125 0 
L 19.390625 60.984375 
L 19.390625 0 
L 9.8125 0 
z
" id="DejaVuSans-78"/>
      <path d="M 8.5 21.578125 
L 8.5 54.6875 
L 17.484375 54.6875 
L 17.484375 21.921875 
Q 17.484375 14.15625 20.5 10.265625 
Q 23.53125 6.390625 29.59375 6.390625 
Q 36.859375 6.390625 41.078125 11.03125 
Q 45.3125 15.671875 45.3125 23.6875 
L 45.3125 54.6875 
L 54.296875 54.6875 
L 54.296875 0 
L 45.3125 0 
L 45.3125 8.40625 
Q 42.046875 3.421875 37.71875 1 
Q 33.40625 -1.421875 27.6875 -1.421875 
Q 18.265625 -1.421875 13.375 4.4375 
Q 8.5 10.296875 8.5 21.578125 
z
M 31.109375 56 
z
" id="DejaVuSans-117"/>
      <path d="M 52 44.1875 
Q 55.375 50.25 60.0625 53.125 
Q 64.75 56 71.09375 56 
Q 79.640625 56 84.28125 50.015625 
Q 88.921875 44.046875 88.921875 33.015625 
L 88.921875 0 
L 79.890625 0 
L 79.890625 32.71875 
Q 79.890625 40.578125 77.09375 44.375 
Q 74.3125 48.1875 68.609375 48.1875 
Q 61.625 48.1875 57.5625 43.546875 
Q 53.515625 38.921875 53.515625 30.90625 
L 53.515625 0 
L 44.484375 0 
L 44.484375 32.71875 
Q 44.484375 40.625 41.703125 44.40625 
Q 38.921875 48.1875 33.109375 48.1875 
Q 26.21875 48.1875 22.15625 43.53125 
Q 18.109375 38.875 18.109375 30.90625 
L 18.109375 0 
L 9.078125 0 
L 9.078125 54.6875 
L 18.109375 54.6875 
L 18.109375 46.1875 
Q 21.1875 51.21875 25.484375 53.609375 
Q 29.78125 56 35.6875 56 
Q 41.65625 56 45.828125 52.96875 
Q 50 49.953125 52 44.1875 
z
" id="DejaVuSans-109"/>
      <path d="M 48.6875 27.296875 
Q 48.6875 37.203125 44.609375 42.84375 
Q 40.53125 48.484375 33.40625 48.484375 
Q 26.265625 48.484375 22.1875 42.84375 
Q 18.109375 37.203125 18.109375 27.296875 
Q 18.109375 17.390625 22.1875 11.75 
Q 26.265625 6.109375 33.40625 6.109375 
Q 40.53125 6.109375 44.609375 11.75 
Q 48.6875 17.390625 48.6875 27.296875 
z
M 18.109375 46.390625 
Q 20.953125 51.265625 25.265625 53.625 
Q 29.59375 56 35.59375 56 
Q 45.5625 56 51.78125 48.09375 
Q 58.015625 40.1875 58.015625 27.296875 
Q 58.015625 14.40625 51.78125 6.484375 
Q 45.5625 -1.421875 35.59375 -1.421875 
Q 29.59375 -1.421875 25.265625 0.953125 
Q 20.953125 3.328125 18.109375 8.203125 
L 18.109375 0 
L 9.078125 0 
L 9.078125 75.984375 
L 18.109375 75.984375 
z
" id="DejaVuSans-98"/>
      <path d="M 56.203125 29.59375 
L 56.203125 25.203125 
L 14.890625 25.203125 
Q 15.484375 15.921875 20.484375 11.0625 
Q 25.484375 6.203125 34.421875 6.203125 
Q 39.59375 6.203125 44.453125 7.46875 
Q 49.3125 8.734375 54.109375 11.28125 
L 54.109375 2.78125 
Q 49.265625 0.734375 44.1875 -0.34375 
Q 39.109375 -1.421875 33.890625 -1.421875 
Q 20.796875 -1.421875 13.15625 6.1875 
Q 5.515625 13.8125 5.515625 26.8125 
Q 5.515625 40.234375 12.765625 48.109375 
Q 20.015625 56 32.328125 56 
Q 43.359375 56 49.78125 48.890625 
Q 56.203125 41.796875 56.203125 29.59375 
z
M 47.21875 32.234375 
Q 47.125 39.59375 43.09375 43.984375 
Q 39.0625 48.390625 32.421875 48.390625 
Q 24.90625 48.390625 20.390625 44.140625 
Q 15.875 39.890625 15.1875 32.171875 
z
" id="DejaVuSans-101"/>
      <path d="M 41.109375 46.296875 
Q 39.59375 47.171875 37.8125 47.578125 
Q 36.03125 48 33.890625 48 
Q 26.265625 48 22.1875 43.046875 
Q 18.109375 38.09375 18.109375 28.8125 
L 18.109375 0 
L 9.078125 0 
L 9.078125 54.6875 
L 18.109375 54.6875 
L 18.109375 46.1875 
Q 20.953125 51.171875 25.484375 53.578125 
Q 30.03125 56 36.53125 56 
Q 37.453125 56 38.578125 55.875 
Q 39.703125 55.765625 41.0625 55.515625 
z
" id="DejaVuSans-114"/>
      <path id="DejaVuSans-32"/>
      <path d="M 30.609375 48.390625 
Q 23.390625 48.390625 19.1875 42.75 
Q 14.984375 37.109375 14.984375 27.296875 
Q 14.984375 17.484375 19.15625 11.84375 
Q 23.34375 6.203125 30.609375 6.203125 
Q 37.796875 6.203125 41.984375 11.859375 
Q 46.1875 17.53125 46.1875 27.296875 
Q 46.1875 37.015625 41.984375 42.703125 
Q 37.796875 48.390625 30.609375 48.390625 
z
M 30.609375 56 
Q 42.328125 56 49.015625 48.375 
Q 55.71875 40.765625 55.71875 27.296875 
Q 55.71875 13.875 49.015625 6.21875 
Q 42.328125 -1.421875 30.609375 -1.421875 
Q 18.84375 -1.421875 12.171875 6.21875 
Q 5.515625 13.875 5.515625 27.296875 
Q 5.515625 40.765625 12.171875 48.375 
Q 18.84375 56 30.609375 56 
z
" id="DejaVuSans-111"/>
      <path d="M 37.109375 75.984375 
L 37.109375 68.5 
L 28.515625 68.5 
Q 23.6875 68.5 21.796875 66.546875 
Q 19.921875 64.59375 19.921875 59.515625 
L 19.921875 54.6875 
L 34.71875 54.6875 
L 34.71875 47.703125 
L 19.921875 47.703125 
L 19.921875 0 
L 10.890625 0 
L 10.890625 47.703125 
L 2.296875 47.703125 
L 2.296875 54.6875 
L 10.890625 54.6875 
L 10.890625 58.5 
Q 10.890625 67.625 15.140625 71.796875 
Q 19.390625 75.984375 28.609375 75.984375 
z
" id="DejaVuSans-102"/>
      <path d="M 19.671875 64.796875 
L 19.671875 8.109375 
L 31.59375 8.109375 
Q 46.6875 8.109375 53.6875 14.9375 
Q 60.6875 21.78125 60.6875 36.53125 
Q 60.6875 51.171875 53.6875 57.984375 
Q 46.6875 64.796875 31.59375 64.796875 
z
M 9.8125 72.90625 
L 30.078125 72.90625 
Q 51.265625 72.90625 61.171875 64.09375 
Q 71.09375 55.28125 71.09375 36.53125 
Q 71.09375 17.671875 61.125 8.828125 
Q 51.171875 0 30.078125 0 
L 9.8125 0 
z
" id="DejaVuSans-68"/>
      <path d="M 44.28125 53.078125 
L 44.28125 44.578125 
Q 40.484375 46.53125 36.375 47.5 
Q 32.28125 48.484375 27.875 48.484375 
Q 21.1875 48.484375 17.84375 46.4375 
Q 14.5 44.390625 14.5 40.28125 
Q 14.5 37.15625 16.890625 35.375 
Q 19.28125 33.59375 26.515625 31.984375 
L 29.59375 31.296875 
Q 39.15625 29.25 43.1875 25.515625 
Q 47.21875 21.78125 47.21875 15.09375 
Q 47.21875 7.46875 41.1875 3.015625 
Q 35.15625 -1.421875 24.609375 -1.421875 
Q 20.21875 -1.421875 15.453125 -0.5625 
Q 10.6875 0.296875 5.421875 2 
L 5.421875 11.28125 
Q 10.40625 8.6875 15.234375 7.390625 
Q 20.0625 6.109375 24.8125 6.109375 
Q 31.15625 6.109375 34.5625 8.28125 
Q 37.984375 10.453125 37.984375 14.40625 
Q 37.984375 18.0625 35.515625 20.015625 
Q 33.0625 21.96875 24.703125 23.78125 
L 21.578125 24.515625 
Q 13.234375 26.265625 9.515625 29.90625 
Q 5.8125 33.546875 5.8125 39.890625 
Q 5.8125 47.609375 11.28125 51.796875 
Q 16.75 56 26.8125 56 
Q 31.78125 56 36.171875 55.265625 
Q 40.578125 54.546875 44.28125 53.078125 
z
" id="DejaVuSans-115"/>
      <path d="M 9.421875 54.6875 
L 18.40625 54.6875 
L 18.40625 0 
L 9.421875 0 
z
M 9.421875 75.984375 
L 18.40625 75.984375 
L 18.40625 64.59375 
L 9.421875 64.59375 
z
" id="DejaVuSans-105"/>
      <path d="M 45.40625 27.984375 
Q 45.40625 37.75 41.375 43.109375 
Q 37.359375 48.484375 30.078125 48.484375 
Q 22.859375 48.484375 18.828125 43.109375 
Q 14.796875 37.75 14.796875 27.984375 
Q 14.796875 18.265625 18.828125 12.890625 
Q 22.859375 7.515625 30.078125 7.515625 
Q 37.359375 7.515625 41.375 12.890625 
Q 45.40625 18.265625 45.40625 27.984375 
z
M 54.390625 6.78125 
Q 54.390625 -7.171875 48.1875 -13.984375 
Q 42 -20.796875 29.203125 -20.796875 
Q 24.46875 -20.796875 20.265625 -20.09375 
Q 16.0625 -19.390625 12.109375 -17.921875 
L 12.109375 -9.1875 
Q 16.0625 -11.328125 19.921875 -12.34375 
Q 23.78125 -13.375 27.78125 -13.375 
Q 36.625 -13.375 41.015625 -8.765625 
Q 45.40625 -4.15625 45.40625 5.171875 
L 45.40625 9.625 
Q 42.625 4.78125 38.28125 2.390625 
Q 33.9375 0 27.875 0 
Q 17.828125 0 11.671875 7.65625 
Q 5.515625 15.328125 5.515625 27.984375 
Q 5.515625 40.671875 11.671875 48.328125 
Q 17.828125 56 27.875 56 
Q 33.9375 56 38.28125 53.609375 
Q 42.625 51.21875 45.40625 46.390625 
L 45.40625 54.6875 
L 54.390625 54.6875 
z
" id="DejaVuSans-103"/>
      <path d="M 54.890625 33.015625 
L 54.890625 0 
L 45.90625 0 
L 45.90625 32.71875 
Q 45.90625 40.484375 42.875 44.328125 
Q 39.84375 48.1875 33.796875 48.1875 
Q 26.515625 48.1875 22.3125 43.546875 
Q 18.109375 38.921875 18.109375 30.90625 
L 18.109375 0 
L 9.078125 0 
L 9.078125 54.6875 
L 18.109375 54.6875 
L 18.109375 46.1875 
Q 21.34375 51.125 25.703125 53.5625 
Q 30.078125 56 35.796875 56 
Q 45.21875 56 50.046875 50.171875 
Q 54.890625 44.34375 54.890625 33.015625 
z
" id="DejaVuSans-110"/>
     </defs>
     <g transform="translate(6.470312 227.051562)rotate(-90)scale(0.1 -0.1)">
      <use xlink:href="#DejaVuSans-78"/>
      <use x="74.804688" xlink:href="#DejaVuSans-117"/>
      <use x="138.183594" xlink:href="#DejaVuSans-109"/>
      <use x="235.595703" xlink:href="#DejaVuSans-98"/>
      <use x="299.072266" xlink:href="#DejaVuSans-101"/>
      <use x="360.595703" xlink:href="#DejaVuSans-114"/>
      <use x="401.708984" xlink:href="#DejaVuSans-32"/>
      <use x="433.496094" xlink:href="#DejaVuSans-111"/>
      <use x="494.677734" xlink:href="#DejaVuSans-102"/>
      <use x="529.882812" xlink:href="#DejaVuSans-32"/>
      <use x="561.669922" xlink:href="#DejaVuSans-68"/>
      <use x="638.671875" xlink:href="#DejaVuSans-101"/>
      <use x="700.195312" xlink:href="#DejaVuSans-115"/>
      <use x="752.294922" xlink:href="#DejaVuSans-105"/>
      <use x="780.078125" xlink:href="#DejaVuSans-103"/>
      <use x="843.554688" xlink:href="#DejaVuSans-110"/>
      <use x="906.933594" xlink:href="#DejaVuSans-115"/>
     </g>
    </g>
   </g>
   <g id="line2d_12">
    <path clip-path="url(#pd05e104d75)" d="M 57.681818 302.645455 
L 57.681818 302.58513 
L 57.922507 302.524805 
L 58.017683 302.404155 
L 58.30663 302.34383 
L 58.393243 302.22318 
L 58.722198 302.162855 
L 58.722198 302.10253 
L 59.285484 302.042205 
L 59.285484 301.98188 
L 61.046533 301.921555 
L 61.046533 301.86123 
L 61.457582 301.800906 
L 61.496611 301.680256 
L 62.038702 301.619931 
L 62.038702 301.559606 
L 62.35008 301.499281 
L 62.35008 301.378631 
L 63.003329 301.318306 
L 63.003329 301.257981 
L 63.346002 301.197656 
L 63.346002 301.137331 
L 63.577983 301.077006 
L 63.592577 300.956357 
L 64.020772 300.896032 
L 64.020772 300.835707 
L 64.306619 300.775382 
L 64.306619 300.715057 
L 64.891348 300.654732 
L 64.985302 300.473757 
L 65.623407 300.413432 
L 65.623407 300.292782 
L 65.868092 300.232457 
L 65.917391 300.051483 
L 66.569502 299.991158 
L 66.569502 299.930833 
L 66.964125 299.870508 
L 66.998801 299.689533 
L 67.508265 299.629208 
L 67.597382 299.508558 
L 67.668949 299.448233 
L 67.668949 299.387908 
L 68.30579 299.327583 
L 68.398354 299.146609 
L 68.454086 299.086284 
L 68.454086 299.025959 
L 68.867291 298.965634 
L 68.924259 298.784659 
L 69.076913 298.724334 
L 69.172872 298.603684 
L 69.482825 298.603684 
L 69.482825 298.543359 
L 69.482825 298.483034 
L 69.757694 298.42271 
L 69.836865 298.30206 
L 70.056064 298.241735 
L 70.056064 298.18141 
L 70.17655 298.18141 
L 70.17655 298.121085 
L 70.17655 298.06076 
L 70.501081 298.000435 
L 70.521521 297.879785 
L 70.624008 297.879785 
L 70.624008 297.81946 
L 70.624008 297.69881 
L 70.871903 297.638485 
L 70.955145 297.457511 
L 71.397268 297.397186 
L 71.439827 297.276536 
L 71.610862 297.216211 
L 71.610862 297.095561 
L 71.826469 297.035236 
L 71.935035 296.914586 
L 72.175696 296.854261 
L 72.175696 296.793936 
L 72.463373 296.733612 
L 72.463373 296.673287 
L 72.61976 296.612962 
L 72.61976 296.552637 
L 73.026758 296.492312 
L 73.072418 296.371662 
L 73.278984 296.311337 
L 73.278984 296.251012 
L 73.464121 296.190687 
L 73.464121 296.130362 
L 73.721056 296.070037 
L 73.721056 296.009712 
L 74.028305 295.949387 
L 74.075924 295.768413 
L 74.14753 295.768413 
L 74.14753 295.708088 
L 74.14753 295.647763 
L 74.679205 295.587438 
L 74.70365 295.466788 
L 75.023679 295.406463 
L 75.122995 295.285813 
L 75.574924 295.225488 
L 75.676481 295.044513 
L 76.009423 294.984189 
L 76.009423 294.923864 
L 76.164593 294.863539 
L 76.268575 294.682564 
L 76.609502 294.622239 
L 76.715332 294.501589 
L 76.821604 294.441264 
L 76.928321 294.260289 
L 77.523342 294.199964 
L 77.605557 294.01899 
L 78.020586 294.01899 
L 78.020586 293.958665 
L 78.048491 293.838015 
L 78.329195 293.77769 
L 78.329195 293.717365 
L 78.641476 293.65704 
L 78.641476 293.596715 
L 78.755956 293.596715 
L 78.755956 293.53639 
L 78.784654 293.234766 
L 79.01536 293.174441 
L 79.073351 293.053791 
L 79.335883 292.993466 
L 79.394576 292.872816 
L 79.630639 292.812491 
L 79.719701 292.691841 
L 80.018713 292.631516 
L 80.048797 292.510866 
L 80.169468 292.450542 
L 80.169468 292.390217 
L 80.473507 292.329892 
L 80.473507 292.269567 
L 80.780969 292.209242 
L 80.780969 292.148917 
L 80.904924 292.148917 
L 80.904924 292.088592 
L 80.936001 291.967942 
L 81.09191 291.907617 
L 81.18588 291.786967 
L 81.248705 291.726642 
L 81.343209 291.485343 
L 81.469718 291.425018 
L 81.564978 291.244043 
L 81.660565 291.244043 
L 81.660565 291.183718 
L 81.692501 291.063068 
L 81.949305 291.002743 
L 82.046216 290.761444 
L 82.143463 290.701119 
L 82.143463 290.640794 
L 82.502931 290.580469 
L 82.601766 290.399494 
L 82.667848 290.339169 
L 82.767259 290.097869 
L 82.867019 290.037544 
L 82.867019 290.037544 
L 82.93372 289.916895 
L 83.235816 289.85657 
L 83.337227 289.73592 
L 83.507042 289.675595 
L 83.507042 289.61527 
L 83.918722 289.554945 
L 84.022562 289.37397 
L 84.196456 289.313645 
L 84.196456 289.25332 
L 84.618073 289.192995 
L 84.724431 289.012021 
L 84.759969 289.012021 
L 84.759969 288.951696 
L 84.831174 288.831046 
L 85.045827 288.770721 
L 85.117725 288.589746 
L 85.262047 288.529421 
L 85.37075 288.408771 
L 85.516308 288.408771 
L 85.516308 288.348446 
L 85.625944 288.227797 
L 85.699259 288.227797 
L 85.699259 288.167472 
L 85.699259 288.107147 
L 85.883335 288.046822 
L 85.883335 287.926172 
L 86.105727 287.926172 
L 86.105727 287.865847 
L 86.105727 287.805522 
L 86.367275 287.745197 
L 86.367275 287.684872 
L 86.480063 287.684872 
L 86.480063 287.624547 
L 86.517753 287.503897 
L 86.859078 287.443572 
L 86.935451 287.202273 
L 87.08877 287.141948 
L 87.12722 286.960973 
L 87.242861 286.960973 
L 87.242861 286.900648 
L 87.320198 286.719673 
L 87.397729 286.659348 
L 87.475457 286.478374 
L 87.709821 286.418049 
L 87.749055 286.237074 
L 87.827673 286.237074 
L 87.827673 286.176749 
L 87.827673 286.056099 
L 87.985509 285.995774 
L 88.025094 285.875124 
L 88.303605 285.814799 
L 88.303605 285.754474 
L 88.463877 285.69415 
L 88.504073 285.5735 
L 88.827513 285.513175 
L 88.908895 285.3322 
L 89.195397 285.271875 
L 89.236538 285.0909 
L 89.40164 285.030575 
L 89.40164 284.909925 
L 89.692646 284.8496 
L 89.734436 284.608301 
L 89.860134 284.547976 
L 89.860134 284.487651 
L 90.155364 284.427326 
L 90.240215 284.125701 
L 90.325292 284.125701 
L 90.325292 284.065376 
L 90.325292 283.944727 
L 90.453328 283.944727 
L 90.453328 283.884402 
L 90.538968 283.643102 
L 90.883812 283.582777 
L 90.883812 283.522452 
L 91.057617 283.522452 
L 91.057617 283.462127 
L 91.101213 283.220827 
L 91.276182 283.160502 
L 91.320071 282.979528 
L 91.452093 282.919203 
L 91.452093 282.858878 
L 91.717738 282.798553 
L 91.806765 282.677903 
L 91.940758 282.617578 
L 91.940758 282.436603 
L 92.165293 282.376278 
L 92.210384 282.195304 
L 92.346023 282.195304 
L 92.346023 282.134979 
L 92.436757 281.954004 
L 92.52774 281.954004 
L 92.52774 281.893679 
L 92.573324 281.712704 
L 92.710453 281.652379 
L 92.802185 281.350755 
L 92.894169 281.29043 
L 92.986407 280.80783 
L 93.311245 280.747505 
L 93.404634 280.566531 
L 93.59219 280.506206 
L 93.59219 280.445881 
L 93.733542 280.445881 
L 93.733542 280.385556 
L 93.78079 280.264906 
L 93.922931 280.204581 
L 94.018022 280.023606 
L 94.161158 279.963281 
L 94.256916 279.721982 
L 94.304896 279.721982 
L 94.304896 279.661657 
L 94.352944 279.541007 
L 94.449241 279.541007 
L 94.449241 279.480682 
L 94.545809 279.239382 
L 94.594195 279.239382 
L 94.594195 279.179057 
L 94.594195 279.118732 
L 94.788422 279.058407 
L 94.885948 278.817108 
L 94.98375 278.756783 
L 95.08183 278.575808 
L 95.229472 278.515483 
L 95.229472 278.455158 
L 95.476947 278.394833 
L 95.526654 278.213858 
L 95.676201 278.153533 
L 95.726193 277.972559 
L 95.876599 277.912234 
L 95.97723 277.550284 
L 96.07815 277.489959 
L 96.07815 277.429634 
L 96.280864 277.429634 
L 96.280864 277.369309 
L 96.382661 277.188335 
L 96.43367 277.188335 
L 96.43367 277.12801 
L 96.535909 276.705735 
L 96.638444 276.64541 
L 96.638444 276.585085 
L 96.896089 276.52476 
L 96.999673 276.283461 
L 97.155616 276.223136 
L 97.259959 276.042161 
L 97.417046 275.981836 
L 97.522155 275.861186 
L 97.786284 275.800861 
L 97.892481 275.619886 
L 98.052366 275.559561 
L 98.052366 275.499237 
L 98.266654 275.438912 
L 98.266654 275.378587 
L 98.428205 275.378587 
L 98.428205 275.318262 
L 98.482216 275.197612 
L 98.753481 275.137287 
L 98.862554 274.835662 
L 99.081684 274.775337 
L 99.191743 274.413388 
L 99.468342 274.353063 
L 99.523912 274.111763 
L 99.635305 274.051438 
L 99.691128 273.930788 
L 99.859104 273.870463 
L 99.859104 273.689489 
L 100.084265 273.629164 
L 100.140769 273.327539 
L 100.197359 273.327539 
L 100.197359 273.267214 
L 100.254036 273.146564 
L 100.367649 273.086239 
L 100.424585 272.905265 
L 100.481609 272.905265 
L 100.481609 272.84494 
L 100.53872 272.663965 
L 100.653205 272.663965 
L 100.653205 272.60364 
L 100.653205 272.543315 
L 100.883229 272.48299 
L 100.940957 272.24169 
L 101.114673 272.181365 
L 101.172757 272.060716 
L 101.230931 272.060716 
L 101.230931 272.000391 
L 101.289195 271.879741 
L 101.464528 271.819416 
L 101.523153 271.578116 
L 101.81765 271.517791 
L 101.81765 271.397141 
L 101.99545 271.336816 
L 102.054902 271.035192 
L 102.114447 271.035192 
L 102.114447 270.974867 
L 102.174085 270.793892 
L 102.233816 270.793892 
L 102.233816 270.733567 
L 102.293641 270.552592 
L 102.473678 270.492267 
L 102.533879 270.371618 
L 102.715052 270.311293 
L 102.775633 270.190643 
L 102.83631 270.190643 
L 102.83631 270.130318 
L 102.897082 270.009668 
L 103.018915 269.949343 
L 103.018915 269.889018 
L 103.141134 269.889018 
L 103.141134 269.828693 
L 103.202389 269.466744 
L 103.263741 269.466744 
L 103.263741 269.406419 
L 103.263741 269.346094 
L 103.386737 269.346094 
L 103.386737 269.285769 
L 103.386737 269.225444 
L 103.571966 269.165119 
L 103.571966 268.984144 
L 103.758082 268.923819 
L 103.758082 268.863494 
L 103.882655 268.863494 
L 103.882655 268.803169 
L 103.945091 268.622195 
L 104.070263 268.622195 
L 104.070263 268.56187 
L 104.133 268.44122 
L 104.258776 268.44122 
L 104.258776 268.380895 
L 104.321815 268.19992 
L 104.384956 268.19992 
L 104.384956 268.139595 
L 104.448199 268.018945 
L 104.638539 267.95862 
L 104.702191 267.777646 
L 104.765946 267.777646 
L 104.765946 267.717321 
L 104.829804 267.596671 
L 104.95783 267.536346 
L 104.95783 267.415696 
L 105.150649 267.355371 
L 105.215131 267.174396 
L 105.344411 267.174396 
L 105.344411 267.114071 
L 105.409208 266.993422 
L 105.604237 266.933097 
L 105.669459 266.812447 
L 105.734788 266.812447 
L 105.734788 266.752122 
L 105.800224 266.631472 
L 105.931417 266.571147 
L 105.997176 266.329847 
L 106.261293 266.269522 
L 106.327595 265.967898 
L 106.394005 265.967898 
L 106.394005 265.907573 
L 106.460526 265.605948 
L 106.593897 265.605948 
L 106.593897 265.545623 
L 106.660749 265.424973 
L 106.861968 265.364648 
L 106.929264 265.123349 
L 106.996672 265.123349 
L 106.996672 265.063024 
L 106.996672 265.002699 
L 107.199569 264.942374 
L 107.267428 264.761399 
L 107.471683 264.701074 
L 107.539996 264.580424 
L 107.608424 264.580424 
L 107.608424 264.520099 
L 107.676966 264.39945 
L 107.745623 264.39945 
L 107.745623 264.339125 
L 107.814395 264.097825 
L 107.883283 264.097825 
L 107.883283 264.0375 
L 107.952287 263.856525 
L 108.021408 263.856525 
L 108.021408 263.7962 
L 108.090644 263.494576 
L 108.159997 263.494576 
L 108.159997 263.434251 
L 108.159997 263.313601 
L 108.299055 263.313601 
L 108.299055 263.253276 
L 108.368761 262.951651 
L 108.438584 262.951651 
L 108.438584 262.891326 
L 108.508526 262.529377 
L 108.648765 262.469052 
L 108.719063 262.227752 
L 108.860018 262.167427 
L 108.930675 261.805478 
L 109.072351 261.745153 
L 109.143371 261.624503 
L 109.214511 261.624503 
L 109.214511 261.564178 
L 109.285774 261.443528 
L 109.357158 261.443528 
L 109.357158 261.383203 
L 109.428664 261.202228 
L 109.572045 261.141903 
L 109.64392 260.900604 
L 109.715919 260.900604 
L 109.715919 260.840279 
L 109.788041 260.719629 
L 109.932659 260.719629 
L 109.932659 260.659304 
L 110.005154 260.418004 
L 110.223394 260.357679 
L 110.296392 260.176705 
L 110.442767 260.11638 
L 110.442767 259.99573 
L 110.589651 259.99573 
L 110.589651 259.935405 
L 110.663285 259.63378 
L 110.884955 259.63378 
L 110.884955 259.573455 
L 110.959102 259.39248 
L 111.107786 259.39248 
L 111.107786 259.332156 
L 111.182323 259.151181 
L 111.25699 259.151181 
L 111.25699 259.090856 
L 111.331788 258.849556 
L 111.481778 258.789231 
L 111.481778 258.728906 
L 111.632295 258.728906 
L 111.632295 258.668581 
L 111.707752 258.487607 
L 111.859065 258.427282 
L 111.859065 258.366957 
L 112.010912 258.366957 
L 112.010912 258.306632 
L 112.087037 258.185982 
L 112.239691 258.125657 
L 112.316221 257.643058 
L 112.392886 257.643058 
L 112.392886 257.582733 
L 112.469688 257.462083 
L 112.6237 257.401758 
L 112.700912 257.220783 
L 112.855749 257.160458 
L 112.933374 256.979483 
L 113.167084 256.919158 
L 113.245266 256.617534 
L 113.323588 256.617534 
L 113.323588 256.557209 
L 113.402051 256.436559 
L 113.638286 256.436559 
L 113.638286 256.376234 
L 113.638286 256.074609 
L 113.796486 256.074609 
L 113.796486 256.014284 
L 113.875799 255.59201 
L 113.955256 255.59201 
L 113.955256 255.531685 
L 114.034856 255.290385 
L 114.354701 255.23006 
L 114.435025 254.928436 
L 114.515495 254.928436 
L 114.515495 254.868111 
L 114.596112 254.506161 
L 114.757785 254.445836 
L 114.838842 254.264862 
L 115.001402 254.204537 
L 115.082904 253.963237 
L 115.246357 253.902912 
L 115.246357 253.842587 
L 115.41041 253.842587 
L 115.41041 253.782262 
L 115.41041 253.661612 
L 115.575066 253.661612 
L 115.575066 253.601287 
L 115.575066 253.480637 
L 115.9062 253.420312 
L 115.989366 253.058363 
L 116.156159 252.998038 
L 116.239788 252.817063 
L 116.575855 252.756738 
L 116.660263 252.394789 
L 116.744828 252.394789 
L 116.744828 252.334464 
L 116.82955 252.032839 
L 116.914431 252.032839 
L 116.914431 251.972514 
L 116.99947 251.67089 
L 117.084668 251.67089 
L 117.084668 251.610565 
L 117.170025 251.248615 
L 117.427058 251.248615 
L 117.427058 251.18829 
L 117.513058 251.007315 
L 117.599219 251.007315 
L 117.599219 250.94699 
L 117.685542 250.826341 
L 117.772028 250.826341 
L 117.772028 250.766016 
L 117.858677 250.524716 
L 117.945489 250.524716 
L 117.945489 250.464391 
L 117.945489 250.102441 
L 118.119606 250.102441 
L 118.119606 250.042116 
L 118.206912 249.861142 
L 118.294383 249.861142 
L 118.294383 249.800817 
L 118.38202 249.499192 
L 118.557792 249.499192 
L 118.557792 249.438867 
L 118.645929 249.257892 
L 118.734234 249.257892 
L 118.734234 249.197567 
L 118.822707 249.016593 
L 118.911349 249.016593 
L 118.911349 248.956268 
L 119.00016 248.714968 
L 119.08914 248.714968 
L 119.08914 248.654643 
L 119.178291 248.473668 
L 119.536604 248.413343 
L 119.626613 248.111719 
L 119.80715 248.051394 
L 119.89768 247.629119 
L 120.079263 247.629119 
L 120.079263 247.568794 
L 120.170317 247.38782 
L 120.352956 247.38782 
L 120.352956 247.327495 
L 120.44454 247.14652 
L 120.628243 247.086195 
L 120.720362 246.66392 
L 120.812661 246.66392 
L 120.812661 246.603596 
L 120.905139 246.241646 
L 120.997797 246.241646 
L 120.997797 246.181321 
L 120.997797 246.060671 
L 121.183657 246.060671 
L 121.183657 246.000346 
L 121.27686 245.638397 
L 121.370244 245.638397 
L 121.370244 245.578072 
L 121.463812 245.276447 
L 121.651498 245.216122 
L 121.745618 244.733523 
L 121.839923 244.733523 
L 121.839923 244.673198 
L 121.934413 244.250923 
L 122.02909 244.250923 
L 122.02909 244.190598 
L 122.123953 244.009624 
L 122.219004 244.009624 
L 122.219004 243.949299 
L 122.314243 243.707999 
L 122.40967 243.707999 
L 122.40967 243.647674 
L 122.505286 243.406374 
L 122.601091 243.406374 
L 122.601091 243.346049 
L 122.697087 242.9841 
L 122.793273 242.9841 
L 122.793273 242.923775 
L 122.793273 242.86345 
L 123.082981 242.803125 
L 123.179935 242.441175 
L 123.277083 242.441175 
L 123.277083 242.38085 
L 123.374426 242.139551 
L 123.471962 242.139551 
L 123.471962 242.079226 
L 123.569694 241.777601 
L 123.667622 241.777601 
L 123.667622 241.717276 
L 123.765747 241.355327 
L 123.864068 241.355327 
L 123.864068 241.295002 
L 123.962587 240.812402 
L 124.061305 240.812402 
L 124.061305 240.752077 
L 124.061305 240.510778 
L 124.259336 240.510778 
L 124.259336 240.450453 
L 124.358652 240.269478 
L 124.458168 240.269478 
L 124.458168 240.209153 
L 124.557885 239.907528 
L 124.657805 239.907528 
L 124.657805 239.847203 
L 124.757927 239.485254 
L 124.858251 239.424929 
L 124.858251 239.424929 
L 124.95878 239.183629 
L 125.059513 239.183629 
L 125.059513 239.123304 
L 125.160451 238.94233 
L 125.261594 238.94233 
L 125.261594 238.882005 
L 125.362944 238.399405 
L 125.566264 238.399405 
L 125.566264 238.33908 
L 125.668236 237.916806 
L 125.770417 237.856481 
L 125.770417 237.856481 
L 125.872807 237.615181 
L 125.975407 237.615181 
L 125.975407 237.554856 
L 126.078218 237.192907 
L 126.181241 237.192907 
L 126.181241 237.132582 
L 126.284475 236.649982 
L 126.387922 236.649982 
L 126.387922 236.589657 
L 126.491582 236.348358 
L 126.595456 236.348358 
L 126.595456 236.288033 
L 126.595456 236.046733 
L 126.803848 236.046733 
L 126.803848 235.986408 
L 126.908368 235.443484 
L 127.118059 235.383159 
L 127.22323 234.779909 
L 127.328621 234.779909 
L 127.328621 234.719585 
L 127.434231 234.29731 
L 127.540061 234.29731 
L 127.540061 234.236985 
L 127.646111 233.995685 
L 127.752383 233.995685 
L 127.752383 233.93536 
L 127.858877 233.694061 
L 127.965594 233.694061 
L 127.965594 233.633736 
L 128.072534 233.211461 
L 128.179699 233.211461 
L 128.179699 233.151136 
L 128.287088 232.728862 
L 128.394703 232.728862 
L 128.394703 232.668537 
L 128.502544 232.427237 
L 128.610613 232.366912 
L 128.610613 232.366912 
L 128.718909 231.703338 
L 128.936187 231.703338 
L 128.936187 231.643013 
L 129.045171 231.401713 
L 129.154385 231.401713 
L 129.154385 231.341388 
L 129.263831 231.100089 
L 129.373509 231.100089 
L 129.373509 231.039764 
L 129.48342 230.677814 
L 129.593564 230.677814 
L 129.593564 230.617489 
L 129.703943 230.195215 
L 129.814556 230.195215 
L 129.814556 230.13489 
L 129.925406 229.77294 
L 130.036492 229.77294 
L 130.036492 229.712615 
L 130.036492 229.65229 
L 130.147816 229.65229 
L 130.147816 229.591966 
L 130.147816 229.410991 
L 130.259378 229.410991 
L 130.259378 229.350666 
L 130.259378 229.290341 
L 130.371178 229.290341 
L 130.371178 229.230016 
L 130.371178 228.988716 
L 130.483218 228.988716 
L 130.483218 228.928391 
L 130.483218 228.506117 
L 130.708021 228.445792 
L 130.708021 228.144167 
L 130.820785 228.144167 
L 130.820785 228.083842 
L 130.820785 227.963192 
L 131.047042 227.902868 
L 131.047042 227.661568 
L 131.160536 227.661568 
L 131.160536 227.601243 
L 131.160536 227.239293 
L 131.274276 227.239293 
L 131.274276 227.178968 
L 131.274276 226.937669 
L 131.388262 226.877344 
L 131.388262 226.877344 
L 131.388262 226.696369 
L 131.502494 226.636044 
L 131.502494 226.636044 
L 131.502494 226.334419 
L 131.731702 226.334419 
L 131.731702 226.274094 
L 131.731702 226.153445 
L 131.846679 226.153445 
L 131.846679 226.09312 
L 131.846679 225.791495 
L 131.961906 225.73117 
L 131.961906 225.73117 
L 131.961906 225.48987 
L 132.077384 225.48987 
L 132.077384 225.429545 
L 132.077384 225.248571 
L 132.193114 225.248571 
L 132.193114 225.188246 
L 132.193114 225.127921 
L 132.309096 225.127921 
L 132.309096 225.067596 
L 132.309096 224.826296 
L 132.425331 224.826296 
L 132.425331 224.765971 
L 132.425331 224.584996 
L 132.541821 224.584996 
L 132.541821 224.524672 
L 132.541821 224.283372 
L 132.658565 224.283372 
L 132.658565 224.223047 
L 132.658565 223.921422 
L 132.775565 223.921422 
L 132.775565 223.861097 
L 132.775565 223.619798 
L 132.892821 223.619798 
L 132.892821 223.559473 
L 132.892821 223.378498 
L 133.010335 223.378498 
L 133.010335 223.318173 
L 133.010335 223.076873 
L 133.128108 223.076873 
L 133.128108 223.016548 
L 133.128108 222.775249 
L 133.246139 222.775249 
L 133.246139 222.714924 
L 133.246139 222.533949 
L 133.36443 222.533949 
L 133.36443 222.473624 
L 133.36443 222.232324 
L 133.482982 222.232324 
L 133.482982 222.171999 
L 133.482982 221.870375 
L 133.601796 221.870375 
L 133.601796 221.81005 
L 133.601796 221.4481 
L 133.840213 221.387775 
L 133.840213 221.267125 
L 133.959817 221.267125 
L 133.959817 221.2068 
L 133.959817 221.025826 
L 134.079686 221.025826 
L 134.079686 220.965501 
L 134.079686 220.844851 
L 134.199822 220.844851 
L 134.199822 220.784526 
L 134.199822 220.543226 
L 134.320224 220.543226 
L 134.320224 220.482901 
L 134.320224 220.422576 
L 134.440895 220.422576 
L 134.440895 220.362251 
L 134.440895 220.241602 
L 134.561834 220.241602 
L 134.561834 220.181277 
L 134.561834 220.000302 
L 134.683042 220.000302 
L 134.683042 219.939977 
L 134.683042 219.879652 
L 134.804522 219.879652 
L 134.804522 219.819327 
L 134.804522 219.457377 
L 134.926272 219.457377 
L 134.926272 219.397053 
L 134.926272 219.155753 
L 135.048296 219.155753 
L 135.048296 219.095428 
L 135.048296 218.854128 
L 135.170592 218.854128 
L 135.170592 218.793803 
L 135.170592 218.552504 
L 135.293163 218.552504 
L 135.293163 218.492179 
L 135.293163 218.431854 
L 135.416008 218.431854 
L 135.416008 218.371529 
L 135.416008 218.250879 
L 135.53913 218.250879 
L 135.53913 218.190554 
L 135.53913 218.009579 
L 135.662529 217.949254 
L 135.662529 217.949254 
L 135.662529 217.64763 
L 135.786206 217.64763 
L 135.786206 217.587305 
L 135.786206 217.28568 
L 135.910161 217.28568 
L 135.910161 217.225355 
L 135.910161 216.92373 
L 136.158913 216.863406 
L 136.158913 216.501456 
L 136.283711 216.501456 
L 136.283711 216.441131 
L 136.283711 216.260156 
L 136.408791 216.260156 
L 136.408791 216.199831 
L 136.408791 215.837882 
L 136.534155 215.837882 
L 136.534155 215.777557 
L 136.534155 215.596582 
L 136.659804 215.596582 
L 136.659804 215.536257 
L 136.659804 215.355282 
L 136.785738 215.355282 
L 136.785738 215.294957 
L 136.785738 215.053658 
L 136.911959 215.053658 
L 136.911959 214.993333 
L 136.911959 214.691708 
L 137.038468 214.691708 
L 137.038468 214.631383 
L 137.038468 214.450408 
L 137.165264 214.450408 
L 137.165264 214.390083 
L 137.165264 214.148784 
L 137.292351 214.148784 
L 137.292351 214.088459 
L 137.292351 214.028134 
L 137.419728 214.028134 
L 137.419728 213.967809 
L 137.419728 213.847159 
L 137.547396 213.847159 
L 137.547396 213.786834 
L 137.547396 213.545534 
L 137.675357 213.545534 
L 137.675357 213.48521 
L 137.675357 213.36456 
L 137.803611 213.36456 
L 137.803611 213.304235 
L 137.803611 213.24391 
L 137.93216 213.24391 
L 137.93216 213.183585 
L 137.93216 212.942285 
L 138.061004 212.942285 
L 138.061004 212.88196 
L 138.061004 212.520011 
L 138.190145 212.520011 
L 138.190145 212.459686 
L 138.190145 212.278711 
L 138.319584 212.278711 
L 138.319584 212.218386 
L 138.319584 212.037411 
L 138.44932 212.037411 
L 138.44932 211.977086 
L 138.44932 211.796112 
L 138.579357 211.796112 
L 138.579357 211.735787 
L 138.579357 211.554812 
L 138.709694 211.554812 
L 138.709694 211.494487 
L 138.709694 211.253187 
L 138.840333 211.253187 
L 138.840333 211.192862 
L 138.840333 210.710263 
L 138.971275 210.710263 
L 138.971275 210.649938 
L 138.971275 210.348313 
L 139.102521 210.348313 
L 139.102521 210.287988 
L 139.102521 209.926039 
L 139.234071 209.926039 
L 139.234071 209.865714 
L 139.234071 209.624414 
L 139.365927 209.624414 
L 139.365927 209.564089 
L 139.365927 209.262464 
L 139.498091 209.262464 
L 139.498091 209.20214 
L 139.498091 208.84019 
L 139.630562 208.84019 
L 139.630562 208.779865 
L 139.630562 208.59889 
L 139.763343 208.59889 
L 139.763343 208.538565 
L 139.763343 208.417915 
L 139.896434 208.417915 
L 139.896434 208.357591 
L 139.896434 208.116291 
L 140.029836 208.116291 
L 140.029836 208.055966 
L 140.029836 207.694016 
L 140.16355 207.694016 
L 140.16355 207.633691 
L 140.16355 207.452717 
L 140.297578 207.452717 
L 140.297578 207.392392 
L 140.297578 207.030442 
L 140.431921 207.030442 
L 140.431921 206.970117 
L 140.431921 206.849467 
L 140.56658 206.849467 
L 140.56658 206.789142 
L 140.56658 206.608168 
L 140.701555 206.608168 
L 140.701555 206.547843 
L 140.701555 206.427193 
L 140.836848 206.427193 
L 140.836848 206.366868 
L 140.836848 206.065243 
L 140.97246 206.065243 
L 140.97246 206.004918 
L 140.97246 205.582644 
L 141.244647 205.522319 
L 141.244647 205.160369 
L 141.381223 205.160369 
L 141.381223 205.100044 
L 141.381223 204.67777 
L 141.518123 204.67777 
L 141.518123 204.617445 
L 141.518123 204.255495 
L 141.655348 204.255495 
L 141.655348 204.19517 
L 141.655348 203.953871 
L 141.792899 203.953871 
L 141.792899 203.893546 
L 141.792899 203.591921 
L 141.930777 203.591921 
L 141.930777 203.531596 
L 141.930777 203.048997 
L 142.068983 203.048997 
L 142.068983 202.988672 
L 142.068983 202.868022 
L 142.207518 202.868022 
L 142.207518 202.807697 
L 142.207518 202.506072 
L 142.346385 202.506072 
L 142.346385 202.445748 
L 142.346385 202.264773 
L 142.485583 202.264773 
L 142.485583 202.204448 
L 142.485583 201.540874 
L 142.625114 201.540874 
L 142.625114 201.480549 
L 142.625114 200.997949 
L 142.764979 200.997949 
L 142.764979 200.937624 
L 142.764979 200.696325 
L 142.90518 200.696325 
L 142.90518 200.636 
L 142.90518 200.213725 
L 143.045717 200.213725 
L 143.045717 200.1534 
L 143.045717 199.670801 
L 143.186592 199.670801 
L 143.186592 199.610476 
L 143.186592 199.127876 
L 143.327806 199.127876 
L 143.327806 199.067551 
L 143.327806 199.007227 
L 143.469361 199.007227 
L 143.469361 198.946902 
L 143.469361 198.765927 
L 143.611257 198.765927 
L 143.611257 198.705602 
L 143.611257 198.524627 
L 143.753495 198.524627 
L 143.753495 198.464302 
L 143.753495 197.981703 
L 143.896078 197.981703 
L 143.896078 197.921378 
L 143.896078 197.499103 
L 144.039006 197.499103 
L 144.039006 197.438778 
L 144.039006 197.257804 
L 144.182281 197.257804 
L 144.182281 197.197479 
L 144.182281 196.835529 
L 144.325903 196.835529 
L 144.325903 196.775204 
L 144.325903 196.47358 
L 144.469874 196.47358 
L 144.469874 196.413255 
L 144.469874 196.23228 
L 144.614195 196.23228 
L 144.614195 196.171955 
L 144.614195 195.810005 
L 144.758868 195.810005 
L 144.758868 195.74968 
L 144.758868 195.448056 
L 144.903894 195.448056 
L 144.903894 195.387731 
L 144.903894 194.965456 
L 145.049275 194.965456 
L 145.049275 194.905131 
L 145.049275 194.603507 
L 145.19501 194.603507 
L 145.19501 194.543182 
L 145.19501 194.241557 
L 145.341102 194.241557 
L 145.341102 194.181232 
L 145.341102 194.000257 
L 145.487553 194.000257 
L 145.487553 193.939933 
L 145.487553 193.397008 
L 145.634362 193.397008 
L 145.634362 193.336683 
L 145.634362 192.974734 
L 145.781533 192.974734 
L 145.781533 192.914409 
L 145.781533 192.552459 
L 145.929065 192.552459 
L 145.929065 192.492134 
L 145.929065 192.250835 
L 146.076961 192.250835 
L 146.076961 192.19051 
L 146.076961 191.888885 
L 146.225222 191.888885 
L 146.225222 191.82856 
L 146.225222 191.58726 
L 146.373849 191.58726 
L 146.373849 191.526935 
L 146.373849 191.345961 
L 146.522843 191.345961 
L 146.522843 191.285636 
L 146.522843 191.164986 
L 146.672206 191.164986 
L 146.672206 191.104661 
L 146.672206 190.561737 
L 146.821939 190.561737 
L 146.821939 190.501412 
L 146.821939 190.079137 
L 146.972043 190.079137 
L 146.972043 190.018812 
L 146.972043 189.898162 
L 147.122521 189.898162 
L 147.122521 189.837837 
L 147.122521 189.717187 
L 147.273373 189.717187 
L 147.273373 189.656863 
L 147.273373 189.234588 
L 147.4246 189.234588 
L 147.4246 189.174263 
L 147.4246 188.691664 
L 147.576205 188.691664 
L 147.576205 188.631339 
L 147.576205 188.329714 
L 147.728188 188.329714 
L 147.728188 188.269389 
L 147.728188 187.726465 
L 147.880552 187.726465 
L 147.880552 187.66614 
L 147.880552 187.42484 
L 148.033296 187.42484 
L 148.033296 187.364515 
L 148.033296 187.062891 
L 148.186424 187.062891 
L 148.186424 187.002566 
L 148.186424 186.942241 
L 148.339935 186.942241 
L 148.339935 186.881916 
L 148.339935 186.519966 
L 148.493833 186.519966 
L 148.493833 186.459641 
L 148.493833 185.796067 
L 148.648117 185.796067 
L 148.648117 185.735742 
L 148.648117 185.373793 
L 148.802791 185.373793 
L 148.802791 185.313468 
L 148.802791 185.132493 
L 148.957854 185.132493 
L 148.957854 185.072168 
L 148.957854 184.529244 
L 149.113309 184.529244 
L 149.113309 184.468919 
L 149.113309 184.408594 
L 149.269157 184.408594 
L 149.269157 184.348269 
L 149.269157 183.986319 
L 149.425399 183.986319 
L 149.425399 183.925994 
L 149.425399 183.50372 
L 149.582038 183.50372 
L 149.582038 183.443395 
L 149.582038 183.322745 
L 149.896509 183.26242 
L 149.896509 182.840146 
L 150.054345 182.840146 
L 150.054345 182.779821 
L 150.054345 182.538521 
L 150.212582 182.538521 
L 150.212582 182.478196 
L 150.212582 182.297221 
L 150.371224 182.297221 
L 150.371224 182.236896 
L 150.371224 181.693972 
L 150.530271 181.633647 
L 150.530271 181.633647 
L 150.530271 181.271697 
L 150.689724 181.271697 
L 150.689724 181.211373 
L 150.689724 181.151048 
L 150.849586 181.151048 
L 150.849586 181.090723 
L 150.849586 180.668448 
L 151.009858 180.668448 
L 151.009858 180.608123 
L 151.009858 180.246174 
L 151.170541 180.246174 
L 151.170541 180.185849 
L 151.170541 180.004874 
L 151.331638 180.004874 
L 151.331638 179.944549 
L 151.331638 179.3413 
L 151.493149 179.3413 
L 151.493149 179.280975 
L 151.493149 178.97935 
L 151.655076 178.97935 
L 151.655076 178.919025 
L 151.655076 178.73805 
L 151.817421 178.73805 
L 151.817421 178.677725 
L 151.817421 178.376101 
L 151.980186 178.376101 
L 151.980186 178.315776 
L 151.980186 178.195126 
L 152.143371 178.195126 
L 152.143371 178.134801 
L 152.143371 177.953826 
L 152.30698 177.953826 
L 152.30698 177.893501 
L 152.30698 177.531552 
L 152.471013 177.531552 
L 152.471013 177.471227 
L 152.471013 177.169602 
L 152.635472 177.169602 
L 152.635472 177.109277 
L 152.635472 177.048952 
L 152.800358 177.048952 
L 152.800358 176.988627 
L 152.800358 176.687003 
L 152.965674 176.687003 
L 152.965674 176.626678 
L 152.965674 176.325053 
L 153.131422 176.325053 
L 153.131422 176.264728 
L 153.131422 176.023429 
L 153.297602 176.023429 
L 153.297602 175.963104 
L 153.297602 175.601154 
L 153.464216 175.601154 
L 153.464216 175.540829 
L 153.464216 175.118555 
L 153.631266 175.118555 
L 153.631266 175.05823 
L 153.631266 174.81693 
L 153.798755 174.81693 
L 153.798755 174.756605 
L 153.798755 174.69628 
L 153.966683 174.69628 
L 153.966683 174.635955 
L 153.966683 174.394656 
L 154.135052 174.394656 
L 154.135052 174.334331 
L 154.135052 173.972381 
L 154.303865 173.972381 
L 154.303865 173.912056 
L 154.303865 173.731081 
L 154.473122 173.731081 
L 154.473122 173.670756 
L 154.473122 173.369132 
L 154.642826 173.369132 
L 154.642826 173.308807 
L 154.642826 173.127832 
L 154.812978 173.127832 
L 154.812978 173.067507 
L 154.812978 172.524583 
L 154.98358 172.524583 
L 154.98358 172.464258 
L 154.98358 171.981658 
L 155.154635 171.981658 
L 155.154635 171.921333 
L 155.154635 171.499059 
L 155.326143 171.499059 
L 155.326143 171.438734 
L 155.326143 171.137109 
L 155.498106 171.137109 
L 155.498106 171.076784 
L 155.498106 170.77516 
L 155.670527 170.77516 
L 155.670527 170.714835 
L 155.670527 170.65451 
L 155.843407 170.65451 
L 155.843407 170.594185 
L 155.843407 170.352885 
L 156.016748 170.352885 
L 156.016748 170.29256 
L 156.016748 170.051261 
L 156.190552 170.051261 
L 156.190552 169.990936 
L 156.190552 169.508336 
L 156.364821 169.508336 
L 156.364821 169.448011 
L 156.364821 169.146387 
L 156.539556 169.146387 
L 156.539556 169.086062 
L 156.539556 168.844762 
L 156.71476 168.844762 
L 156.71476 168.784437 
L 156.71476 168.362163 
L 156.890434 168.362163 
L 156.890434 168.301838 
L 156.890434 168.060538 
L 157.06658 168.060538 
L 157.06658 168.000213 
L 157.06658 167.758913 
L 157.2432 167.758913 
L 157.2432 167.698588 
L 157.2432 167.577939 
L 157.420297 167.577939 
L 157.420297 167.517614 
L 157.420297 167.336639 
L 157.597871 167.336639 
L 157.597871 167.276314 
L 157.597871 167.035014 
L 157.775926 167.035014 
L 157.775926 166.974689 
L 157.775926 166.673065 
L 157.954462 166.673065 
L 157.954462 166.61274 
L 157.954462 166.311115 
L 158.133482 166.311115 
L 158.133482 166.25079 
L 158.133482 165.768191 
L 158.312988 165.768191 
L 158.312988 165.707866 
L 158.312988 165.526891 
L 158.492982 165.526891 
L 158.492982 165.466566 
L 158.492982 165.104616 
L 158.673465 165.104616 
L 158.673465 165.044292 
L 158.673465 164.802992 
L 158.854441 164.802992 
L 158.854441 164.742667 
L 158.854441 164.380717 
L 159.03591 164.380717 
L 159.03591 164.320392 
L 159.03591 163.596493 
L 159.217875 163.596493 
L 159.217875 163.536168 
L 159.217875 163.234544 
L 159.400337 163.234544 
L 159.400337 163.174219 
L 159.400337 162.570969 
L 159.5833 162.570969 
L 159.5833 162.510645 
L 159.5833 162.32967 
L 159.766765 162.32967 
L 159.766765 162.269345 
L 159.766765 161.96772 
L 159.950733 161.96772 
L 159.950733 161.907395 
L 159.950733 161.786745 
L 160.135208 161.786745 
L 160.135208 161.72642 
L 160.135208 161.183496 
L 160.320191 161.183496 
L 160.320191 161.123171 
L 160.320191 160.942196 
L 160.505684 160.942196 
L 160.505684 160.881871 
L 160.505684 160.761222 
L 160.69169 160.761222 
L 160.69169 160.700897 
L 160.69169 160.037322 
L 160.87821 160.037322 
L 160.87821 159.976998 
L 160.87821 159.735698 
L 161.065247 159.735698 
L 161.065247 159.675373 
L 161.065247 159.192773 
L 161.252802 159.192773 
L 161.252802 159.132449 
L 161.252802 159.072124 
L 161.440879 159.072124 
L 161.440879 159.011799 
L 161.440879 158.830824 
L 161.629479 158.830824 
L 161.629479 158.770499 
L 161.629479 158.2879 
L 161.818604 158.2879 
L 161.818604 158.227575 
L 161.818604 157.986275 
L 162.008257 157.986275 
L 162.008257 157.92595 
L 162.008257 157.564 
L 162.198439 157.564 
L 162.198439 157.503675 
L 162.198439 157.081401 
L 162.389154 157.081401 
L 162.389154 157.021076 
L 162.389154 156.719451 
L 162.580402 156.719451 
L 162.580402 156.659126 
L 162.580402 155.995552 
L 162.772187 155.995552 
L 162.772187 155.935227 
L 162.772187 155.331978 
L 162.964511 155.331978 
L 162.964511 155.271653 
L 162.964511 155.030353 
L 163.157376 155.030353 
L 163.157376 154.970028 
L 163.157376 154.547754 
L 163.350784 154.547754 
L 163.350784 154.487429 
L 163.350784 154.065154 
L 163.544738 154.065154 
L 163.544738 154.00483 
L 163.544738 153.703205 
L 163.934291 153.703205 
L 163.934291 153.64288 
L 163.934291 153.582555 
L 164.129896 153.582555 
L 164.129896 153.52223 
L 164.129896 152.979306 
L 164.326055 152.979306 
L 164.326055 152.918981 
L 164.326055 152.738006 
L 164.522772 152.738006 
L 164.522772 152.677681 
L 164.522772 152.195082 
L 164.720048 152.195082 
L 164.720048 152.134757 
L 164.720048 151.471183 
L 164.917886 151.471183 
L 164.917886 151.410858 
L 164.917886 151.169558 
L 165.116289 151.169558 
L 165.116289 151.109233 
L 165.116289 150.747283 
L 165.315258 150.747283 
L 165.315258 150.686958 
L 165.315258 150.566309 
L 165.514797 150.566309 
L 165.514797 150.505984 
L 165.514797 149.963059 
L 165.714908 149.963059 
L 165.714908 149.902734 
L 165.714908 149.72176 
L 165.915593 149.661435 
L 165.915593 149.661435 
L 165.915593 149.11851 
L 166.116854 149.11851 
L 166.116854 149.058185 
L 166.116854 148.515261 
L 166.318695 148.515261 
L 166.318695 148.454936 
L 166.318695 148.032662 
L 166.521117 148.032662 
L 166.521117 147.972337 
L 166.521117 147.550062 
L 166.724123 147.489737 
L 166.724123 147.489737 
L 166.724123 146.946813 
L 166.927717 146.946813 
L 166.927717 146.886488 
L 166.927717 146.464213 
L 167.131899 146.464213 
L 167.131899 146.403888 
L 167.131899 146.041939 
L 167.336674 146.041939 
L 167.336674 145.981614 
L 167.336674 145.43869 
L 167.542042 145.378365 
L 167.542042 145.378365 
L 167.542042 144.83544 
L 167.748008 144.775115 
L 167.748008 144.775115 
L 167.748008 144.413166 
L 167.954573 144.413166 
L 167.954573 144.352841 
L 167.954573 143.990891 
L 168.161741 143.990891 
L 168.161741 143.930566 
L 168.161741 143.628942 
L 168.369513 143.628942 
L 168.369513 143.568617 
L 168.369513 142.844718 
L 168.577893 142.844718 
L 168.577893 142.784393 
L 168.577893 142.724068 
L 168.786884 142.724068 
L 168.786884 142.663743 
L 168.786884 142.301793 
L 168.996487 142.301793 
L 168.996487 142.241468 
L 168.996487 142.120819 
L 169.206705 142.120819 
L 169.206705 142.060494 
L 169.206705 141.879519 
L 169.417542 141.879519 
L 169.417542 141.819194 
L 169.417542 141.27627 
L 169.629 141.27627 
L 169.629 141.215945 
L 169.629 140.733345 
L 169.841082 140.733345 
L 169.841082 140.67302 
L 169.841082 140.311071 
L 170.05379 140.250746 
L 170.05379 140.250746 
L 170.05379 140.009446 
L 170.267128 140.009446 
L 170.267128 139.949121 
L 170.267128 139.587172 
L 170.481097 139.587172 
L 170.481097 139.526847 
L 170.481097 138.802947 
L 170.695702 138.802947 
L 170.695702 138.742623 
L 170.695702 138.139373 
L 170.910944 138.139373 
L 170.910944 138.079048 
L 170.910944 137.596449 
L 171.126827 137.596449 
L 171.126827 137.536124 
L 171.126827 137.053525 
L 171.343354 136.9932 
L 171.343354 136.9932 
L 171.343354 136.570925 
L 171.560526 136.570925 
L 171.560526 136.5106 
L 171.560526 136.208975 
L 171.778348 136.208975 
L 171.778348 136.148651 
L 171.778348 135.605726 
L 171.996823 135.605726 
L 171.996823 135.545401 
L 171.996823 135.062802 
L 172.215952 135.062802 
L 172.215952 135.002477 
L 172.215952 134.761177 
L 172.435739 134.761177 
L 172.435739 134.700852 
L 172.435739 134.580202 
L 172.656187 134.580202 
L 172.656187 134.519877 
L 172.656187 134.037278 
L 172.8773 134.037278 
L 172.8773 133.976953 
L 172.8773 133.675328 
L 173.099079 133.675328 
L 173.099079 133.615004 
L 173.099079 132.951429 
L 173.321528 132.951429 
L 173.321528 132.891104 
L 173.321528 132.649805 
L 173.544651 132.58948 
L 173.544651 132.58948 
L 173.544651 132.167205 
L 173.768449 132.167205 
L 173.768449 132.10688 
L 173.768449 131.684606 
L 173.992927 131.684606 
L 173.992927 131.624281 
L 173.992927 131.322656 
L 174.218087 131.322656 
L 174.218087 131.262331 
L 174.218087 130.960707 
L 174.443933 130.960707 
L 174.443933 130.900382 
L 174.443933 130.538432 
L 174.670467 130.538432 
L 174.670467 130.478107 
L 174.670467 129.995508 
L 174.897692 129.995508 
L 174.897692 129.935183 
L 174.897692 129.814533 
L 175.125613 129.814533 
L 175.125613 129.754208 
L 175.125613 129.211284 
L 175.354232 129.211284 
L 175.354232 129.150959 
L 175.354232 128.728684 
L 175.583552 128.728684 
L 175.583552 128.668359 
L 175.583552 128.366735 
L 175.813576 128.366735 
L 175.813576 128.30641 
L 175.813576 128.18576 
L 176.044309 128.18576 
L 176.044309 128.125435 
L 176.044309 127.642836 
L 176.275752 127.642836 
L 176.275752 127.582511 
L 176.275752 127.280886 
L 176.507909 127.280886 
L 176.507909 127.220561 
L 176.507909 127.039586 
L 176.740785 127.039586 
L 176.740785 126.979261 
L 176.740785 126.737962 
L 176.974381 126.737962 
L 176.974381 126.677637 
L 176.974381 125.953738 
L 177.208702 125.953738 
L 177.208702 125.893413 
L 177.208702 125.350488 
L 177.44375 125.350488 
L 177.44375 125.290163 
L 177.44375 125.048864 
L 177.679529 125.048864 
L 177.679529 124.988539 
L 177.679529 124.686914 
L 177.916043 124.686914 
L 177.916043 124.626589 
L 177.916043 124.385289 
L 178.153295 124.385289 
L 178.153295 124.324964 
L 178.153295 123.842365 
L 178.391288 123.842365 
L 178.391288 123.78204 
L 178.391288 123.359766 
L 178.630026 123.359766 
L 178.630026 123.299441 
L 178.630026 122.877166 
L 178.869513 122.877166 
L 178.869513 122.816841 
L 178.869513 122.696191 
L 179.109751 122.696191 
L 179.109751 122.635866 
L 179.109751 122.334242 
L 179.350745 122.334242 
L 179.350745 122.273917 
L 179.350745 121.791317 
L 179.592498 121.791317 
L 179.592498 121.730993 
L 179.592498 121.610343 
L 179.835014 121.610343 
L 179.835014 121.550018 
L 179.835014 121.248393 
L 180.078296 121.248393 
L 180.078296 121.188068 
L 180.078296 120.886444 
L 180.322348 120.886444 
L 180.322348 120.826119 
L 180.322348 120.343519 
L 180.567173 120.343519 
L 180.567173 120.283194 
L 180.567173 120.222869 
L 180.812775 120.222869 
L 180.812775 120.162544 
L 180.812775 119.921245 
L 181.059159 119.921245 
L 181.059159 119.86092 
L 181.059159 119.317995 
L 181.306327 119.317995 
L 181.306327 119.25767 
L 181.306327 119.197346 
L 181.554283 119.197346 
L 181.554283 119.137021 
L 181.554283 118.714746 
L 182.052577 118.654421 
L 182.052577 117.990847 
L 182.302921 117.990847 
L 182.302921 117.930522 
L 182.302921 117.447923 
L 182.554069 117.447923 
L 182.554069 117.387598 
L 182.554069 117.085973 
L 182.806025 117.085973 
L 182.806025 117.025648 
L 182.806025 116.663699 
L 183.058792 116.663699 
L 183.058792 116.603374 
L 183.058792 116.241424 
L 183.312375 116.241424 
L 183.312375 116.181099 
L 183.312375 115.6985 
L 183.566777 115.6985 
L 183.566777 115.638175 
L 183.566777 114.733301 
L 183.822002 114.733301 
L 183.822002 114.672976 
L 183.822002 114.311026 
L 184.078054 114.311026 
L 184.078054 114.250701 
L 184.078054 113.587127 
L 184.334938 113.587127 
L 184.334938 113.526802 
L 184.334938 113.345827 
L 184.592658 113.345827 
L 184.592658 113.285502 
L 184.592658 112.983878 
L 184.851216 112.983878 
L 184.851216 112.923553 
L 184.851216 112.621928 
L 185.110619 112.621928 
L 185.110619 112.561603 
L 185.110619 111.958354 
L 185.370869 111.958354 
L 185.370869 111.898029 
L 185.370869 111.41543 
L 185.63197 111.41543 
L 185.63197 111.355105 
L 185.63197 110.81218 
L 185.893928 110.81218 
L 185.893928 110.751855 
L 185.893928 110.389906 
L 186.156747 110.389906 
L 186.156747 110.329581 
L 186.156747 110.027956 
L 186.42043 110.027956 
L 186.42043 109.967631 
L 186.42043 109.545357 
L 186.684981 109.545357 
L 186.684981 109.485032 
L 186.684981 109.123082 
L 186.950406 109.123082 
L 186.950406 109.062757 
L 186.950406 108.580158 
L 187.216708 108.580158 
L 187.216708 108.519833 
L 187.216708 107.976909 
L 187.483892 107.976909 
L 187.483892 107.916584 
L 187.483892 107.554634 
L 187.751962 107.554634 
L 187.751962 107.494309 
L 187.751962 107.25301 
L 188.020923 107.25301 
L 188.020923 107.192685 
L 188.020923 106.589435 
L 188.290779 106.589435 
L 188.290779 106.52911 
L 188.290779 106.227486 
L 188.561534 106.227486 
L 188.561534 106.167161 
L 188.561534 105.624237 
L 188.833193 105.624237 
L 188.833193 105.563912 
L 188.833193 105.262287 
L 189.105761 105.262287 
L 189.105761 105.201962 
L 189.105761 104.900337 
L 189.379242 104.900337 
L 189.379242 104.840012 
L 189.379242 104.659038 
L 189.653641 104.659038 
L 189.653641 104.598713 
L 189.653641 104.236763 
L 189.928962 104.236763 
L 189.928962 104.176438 
L 189.928962 103.754164 
L 190.20521 103.754164 
L 190.20521 103.693839 
L 190.20521 103.392214 
L 190.48239 103.392214 
L 190.48239 103.331889 
L 190.48239 102.84929 
L 190.760506 102.84929 
L 190.760506 102.788965 
L 190.760506 102.48734 
L 191.039563 102.48734 
L 191.039563 102.427015 
L 191.039563 102.004741 
L 191.319567 102.004741 
L 191.319567 101.944416 
L 191.319567 101.642791 
L 191.600521 101.642791 
L 191.600521 101.582466 
L 191.600521 101.220517 
L 191.88243 101.220517 
L 191.88243 101.160192 
L 191.88243 100.858567 
L 192.165301 100.858567 
L 192.165301 100.798242 
L 192.165301 100.556942 
L 192.449136 100.556942 
L 192.449136 100.496618 
L 192.449136 100.014018 
L 192.733942 100.014018 
L 192.733942 99.953693 
L 192.733942 99.712393 
L 193.019724 99.712393 
L 193.019724 99.652069 
L 193.019724 99.229794 
L 193.306485 99.229794 
L 193.306485 99.169469 
L 193.306485 98.988494 
L 193.594233 98.988494 
L 193.594233 98.928169 
L 193.594233 98.626545 
L 193.88297 98.626545 
L 193.88297 98.56622 
L 193.88297 98.20427 
L 194.172704 98.20427 
L 194.172704 98.143945 
L 194.172704 97.962971 
L 194.463438 97.962971 
L 194.463438 97.902646 
L 194.463438 97.661346 
L 194.755178 97.661346 
L 194.755178 97.601021 
L 194.755178 97.359721 
L 195.04793 97.359721 
L 195.04793 97.299396 
L 195.04793 96.816797 
L 195.341698 96.816797 
L 195.341698 96.756472 
L 195.341698 96.273873 
L 195.932304 96.213548 
L 195.932304 95.851598 
L 196.527041 95.791273 
L 196.527041 95.429324 
L 196.825972 95.429324 
L 196.825972 95.368999 
L 196.825972 95.067374 
L 197.125951 95.067374 
L 197.125951 95.007049 
L 197.125951 94.765749 
L 197.426985 94.765749 
L 197.426985 94.705424 
L 197.426985 93.981525 
L 197.729079 93.981525 
L 197.729079 93.9212 
L 197.729079 93.498926 
L 198.032239 93.498926 
L 198.032239 93.438601 
L 198.032239 93.076651 
L 198.336469 93.076651 
L 198.336469 93.016326 
L 198.336469 92.895676 
L 198.641777 92.895676 
L 198.641777 92.835352 
L 198.641777 92.533727 
L 198.948168 92.533727 
L 198.948168 92.473402 
L 198.948168 92.111452 
L 199.255646 92.111452 
L 199.255646 92.051127 
L 199.255646 91.809828 
L 199.564219 91.809828 
L 199.564219 91.749503 
L 199.564219 91.689178 
L 199.873893 91.689178 
L 199.873893 91.628853 
L 199.873893 91.266903 
L 200.184672 91.266903 
L 200.184672 91.206578 
L 200.184672 90.904954 
L 200.496563 90.904954 
L 200.496563 90.844629 
L 200.496563 90.362029 
L 201.123704 90.301705 
L 201.123704 90.00008 
L 201.438967 90.00008 
L 201.438967 89.939755 
L 201.438967 89.75878 
L 201.755366 89.75878 
L 201.755366 89.698455 
L 201.755366 89.51748 
L 202.072907 89.457156 
L 202.072907 89.457156 
L 202.072907 89.095206 
L 202.391596 89.095206 
L 202.391596 89.034881 
L 202.391596 88.853906 
L 202.711441 88.853906 
L 202.711441 88.793581 
L 202.711441 88.491957 
L 203.032446 88.491957 
L 203.032446 88.431632 
L 203.032446 88.190332 
L 203.354618 88.190332 
L 203.354618 88.130007 
L 203.354618 87.707733 
L 203.677964 87.707733 
L 203.677964 87.647408 
L 203.677964 87.225133 
L 204.002491 87.225133 
L 204.002491 87.164808 
L 204.002491 86.983833 
L 204.328203 86.983833 
L 204.328203 86.923509 
L 204.328203 86.682209 
L 204.655109 86.682209 
L 204.655109 86.621884 
L 204.655109 86.139284 
L 204.983215 86.139284 
L 204.983215 86.07896 
L 204.983215 85.95831 
L 205.312527 85.95831 
L 205.312527 85.897985 
L 205.312527 85.656685 
L 205.643051 85.656685 
L 205.643051 85.59636 
L 205.643051 85.35506 
L 205.974796 85.35506 
L 205.974796 85.294735 
L 205.974796 85.053436 
L 206.307766 85.053436 
L 206.307766 84.993111 
L 206.307766 84.691486 
L 206.64197 84.691486 
L 206.64197 84.631161 
L 206.64197 84.450186 
L 206.977414 84.450186 
L 206.977414 84.389862 
L 206.977414 84.208887 
L 207.314106 84.208887 
L 207.314106 84.148562 
L 207.314106 83.726287 
L 207.652051 83.726287 
L 207.652051 83.665962 
L 207.652051 83.304013 
L 207.991257 83.304013 
L 207.991257 83.243688 
L 207.991257 83.123038 
L 208.331731 83.123038 
L 208.331731 83.062713 
L 208.331731 83.002388 
L 208.67348 83.002388 
L 208.67348 82.942063 
L 208.67348 82.761088 
L 209.016512 82.761088 
L 209.016512 82.700763 
L 209.016512 82.097514 
L 209.360833 82.097514 
L 209.360833 82.037189 
L 209.360833 81.856214 
L 209.706451 81.856214 
L 209.706451 81.79589 
L 209.706451 81.55459 
L 210.053373 81.55459 
L 210.053373 81.494265 
L 210.053373 81.19264 
L 210.401607 81.19264 
L 210.401607 81.132315 
L 210.401607 80.951341 
L 210.75116 80.951341 
L 210.75116 80.891016 
L 210.75116 80.710041 
L 211.10204 80.710041 
L 211.10204 80.649716 
L 211.10204 80.287766 
L 211.454254 80.287766 
L 211.454254 80.227441 
L 211.454254 80.167116 
L 211.807809 80.167116 
L 211.807809 80.106792 
L 211.807809 79.744842 
L 212.162714 79.744842 
L 212.162714 79.684517 
L 212.162714 79.563867 
L 212.518977 79.563867 
L 212.518977 79.503542 
L 212.518977 79.443217 
L 212.876604 79.443217 
L 212.876604 79.382892 
L 212.876604 78.839968 
L 213.235604 78.839968 
L 213.235604 78.779643 
L 213.235604 78.538343 
L 213.595984 78.538343 
L 213.595984 78.478018 
L 213.595984 78.236719 
L 213.957754 78.236719 
L 213.957754 78.176394 
L 213.957754 77.995419 
L 214.32092 77.995419 
L 214.32092 77.935094 
L 214.32092 77.633469 
L 214.685491 77.633469 
L 214.685491 77.573145 
L 214.685491 77.452495 
L 215.051476 77.452495 
L 215.051476 77.39217 
L 215.051476 77.331845 
L 215.787716 77.27152 
L 215.787716 77.15087 
L 216.15799 77.15087 
L 216.15799 77.090545 
L 216.15799 76.78892 
L 216.529709 76.78892 
L 216.529709 76.728596 
L 216.529709 76.668271 
L 216.902883 76.668271 
L 216.902883 76.607946 
L 216.902883 76.426971 
L 217.277521 76.426971 
L 217.277521 76.366646 
L 217.277521 76.125346 
L 217.653631 76.125346 
L 217.653631 76.065021 
L 217.653631 76.004696 
L 218.031222 76.004696 
L 218.031222 75.944371 
L 218.031222 75.461772 
L 218.410302 75.461772 
L 218.410302 75.401447 
L 218.410302 75.220472 
L 218.79088 75.220472 
L 218.79088 75.160147 
L 218.79088 75.099822 
L 219.172966 75.099822 
L 219.172966 75.039498 
L 219.172966 74.918848 
L 219.941695 74.858523 
L 219.941695 74.798198 
L 220.328357 74.798198 
L 220.328357 74.737873 
L 220.328357 74.496573 
L 220.716562 74.496573 
L 220.716562 74.436248 
L 220.716562 74.375923 
L 221.890531 74.315598 
L 221.890531 74.013974 
L 222.285004 74.013974 
L 222.285004 73.953649 
L 222.285004 73.772674 
L 222.681067 73.772674 
L 222.681067 73.712349 
L 222.681067 73.652024 
L 223.078731 73.652024 
L 223.078731 73.591699 
L 223.078731 73.471049 
L 223.478004 73.471049 
L 223.478004 73.410724 
L 223.478004 73.169425 
L 223.878898 73.169425 
L 223.878898 73.1091 
L 223.878898 72.8678 
L 224.281421 72.8678 
L 224.281421 72.807475 
L 224.281421 72.686825 
L 225.091395 72.6265 
L 225.091395 72.6265 
L 225.091395 72.50585 
L 225.498867 72.50585 
L 225.498867 72.445526 
L 225.498867 72.264551 
L 225.908009 72.264551 
L 225.908009 72.204226 
L 225.908009 72.083576 
L 226.318831 72.023251 
L 226.318831 72.023251 
L 226.318831 71.902601 
L 226.731344 71.902601 
L 226.731344 71.842276 
L 226.731344 71.661301 
L 227.145558 71.661301 
L 227.145558 71.600977 
L 227.145558 71.359677 
L 227.561484 71.299352 
L 227.561484 71.299352 
L 227.561484 71.178702 
L 228.398512 71.118377 
L 228.398512 70.877077 
L 229.242516 70.877077 
L 229.242516 70.816752 
L 229.242516 70.635778 
L 229.667161 70.635778 
L 229.667161 70.575453 
L 229.667161 70.394478 
L 230.093583 70.394478 
L 230.093583 70.334153 
L 230.093583 70.273828 
L 230.521792 70.273828 
L 230.521792 70.213503 
L 230.521792 70.092853 
L 231.38362 70.032528 
L 231.38362 69.851554 
L 232.252737 69.791229 
L 232.252737 69.670579 
L 232.690057 69.670579 
L 232.690057 69.610254 
L 232.690057 69.549929 
L 233.57028 69.489604 
L 233.57028 69.187979 
L 234.458027 69.187979 
L 234.458027 69.127654 
L 234.458027 69.007005 
L 235.353393 68.94668 
L 235.353393 68.886355 
L 235.803965 68.886355 
L 235.803965 68.82603 
L 235.803965 68.765705 
L 236.256478 68.765705 
L 236.256478 68.70538 
L 236.256478 68.58473 
L 236.710947 68.58473 
L 236.710947 68.524405 
L 236.710947 68.46408 
L 237.167383 68.46408 
L 237.167383 68.403755 
L 237.167383 68.222781 
L 238.086208 68.162456 
L 238.086208 68.102131 
L 239.013058 68.041806 
L 239.013058 67.921156 
L 240.41861 67.860831 
L 240.41861 67.559206 
L 240.891255 67.559206 
L 240.891255 67.498881 
L 240.891255 67.378232 
L 241.365988 67.378232 
L 241.365988 67.317907 
L 241.365988 67.136932 
L 241.84282 67.136932 
L 241.84282 67.076607 
L 241.84282 66.895632 
L 242.321767 66.895632 
L 242.321767 66.835307 
L 242.321767 66.594007 
L 243.286062 66.594007 
L 243.286062 66.533683 
L 243.286062 66.292383 
L 243.771438 66.292383 
L 243.771438 66.232058 
L 243.771438 66.051083 
L 244.258986 66.051083 
L 244.258986 65.990758 
L 244.258986 65.870108 
L 244.74872 65.870108 
L 244.74872 65.809783 
L 244.74872 65.508159 
L 245.240655 65.508159 
L 245.240655 65.447834 
L 245.240655 65.327184 
L 245.734806 65.327184 
L 245.734806 65.266859 
L 245.734806 65.146209 
L 246.231188 65.146209 
L 246.231188 65.085884 
L 246.231188 64.844585 
L 246.729816 64.844585 
L 246.729816 64.78426 
L 246.729816 64.66361 
L 247.230705 64.66361 
L 247.230705 64.603285 
L 247.230705 64.54296 
L 247.733872 64.54296 
L 247.733872 64.482635 
L 247.733872 64.42231 
L 248.747097 64.361985 
L 248.747097 64.241335 
L 249.257187 64.241335 
L 249.257187 64.18101 
L 249.257187 64.06036 
L 249.769617 64.06036 
L 249.769617 64.000036 
L 249.769617 63.879386 
L 250.801562 63.819061 
L 250.801562 63.517436 
L 251.321109 63.517436 
L 251.321109 63.457111 
L 251.321109 63.215811 
L 252.367436 63.215811 
L 252.367436 63.155487 
L 252.367436 63.095162 
L 252.89425 63.095162 
L 252.89425 63.034837 
L 252.89425 62.974512 
L 253.955262 62.974512 
L 253.955262 62.914187 
L 253.955262 62.793537 
L 255.565504 62.733212 
L 255.565504 62.552237 
L 256.107316 62.552237 
L 256.107316 62.491912 
L 256.107316 62.431587 
L 256.651688 62.431587 
L 256.651688 62.371262 
L 256.651688 62.250613 
L 257.198641 62.250613 
L 257.198641 62.190288 
L 257.198641 61.888663 
L 258.30036 61.888663 
L 258.30036 61.828338 
L 258.30036 61.647363 
L 258.855164 61.647363 
L 258.855164 61.587038 
L 258.855164 61.466388 
L 259.412622 61.466388 
L 259.412622 61.406064 
L 259.412622 61.225089 
L 260.535579 61.164764 
L 260.535579 60.983789 
L 261.101117 60.983789 
L 261.101117 60.923464 
L 261.101117 60.742489 
L 262.240407 60.742489 
L 262.240407 60.682164 
L 262.240407 60.621839 
L 262.8142 60.621839 
L 262.8142 60.561515 
L 262.8142 60.440865 
L 263.970184 60.440865 
L 263.970184 60.38054 
L 263.970184 60.320215 
L 264.552415 60.320215 
L 264.552415 60.25989 
L 264.552415 60.199565 
L 265.1375 60.199565 
L 265.1375 60.13924 
L 265.1375 60.078915 
L 266.316318 60.01859 
L 266.316318 59.958265 
L 267.506806 59.89794 
L 267.506806 59.596316 
L 268.106482 59.596316 
L 268.106482 59.535991 
L 268.106482 59.475666 
L 268.709141 59.475666 
L 268.709141 59.415341 
L 268.709141 59.355016 
L 269.314805 59.355016 
L 269.314805 59.294691 
L 269.314805 59.174041 
L 269.923498 59.174041 
L 269.923498 59.113716 
L 269.923498 58.872417 
L 271.15006 58.812092 
L 271.15006 58.631117 
L 271.767976 58.631117 
L 271.767976 58.570792 
L 271.767976 58.510467 
L 272.389012 58.510467 
L 272.389012 58.450142 
L 272.389012 58.329492 
L 273.640542 58.269167 
L 273.640542 58.208842 
L 274.904843 58.148517 
L 274.904843 58.088192 
L 275.541844 58.088192 
L 275.541844 58.027868 
L 275.541844 57.907218 
L 278.122766 57.846893 
L 278.122766 57.786568 
L 278.776354 57.786568 
L 278.776354 57.726243 
L 278.776354 57.665918 
L 280.093744 57.605593 
L 280.093744 57.545268 
L 280.757598 57.545268 
L 280.757598 57.484943 
L 280.757598 57.243643 
L 283.448046 57.183319 
L 283.448046 57.062669 
L 285.503449 57.002344 
L 285.503449 56.942019 
L 286.892036 56.881694 
L 286.892036 56.821369 
L 287.591914 56.821369 
L 287.591914 56.761044 
L 287.591914 56.700719 
L 289.002988 56.640394 
L 289.002988 56.580069 
L 290.429359 56.519744 
L 290.429359 56.459419 
L 291.871276 56.399094 
L 291.871276 56.33877 
L 292.598144 56.33877 
L 292.598144 56.278445 
L 292.598144 56.21812 
L 293.328995 56.21812 
L 293.328995 56.157795 
L 293.328995 56.037145 
L 298.559273 55.97682 
L 298.559273 55.916495 
L 303.207938 55.85617 
L 303.207938 55.795845 
L 305.59221 55.73552 
L 305.59221 55.675195 
L 311.318182 55.61487 
L 311.318182 55.554545 
L 311.318182 55.554545 
" style="fill:none;stroke:#1f77b4;stroke-linecap:square;stroke-width:1.5;"/>
   </g>
   <g id="line2d_13">
    <path clip-path="url(#pd05e104d75)" d="M 57.681818 302.645455 
L 311.318182 55.554545 
" style="fill:none;stroke:#ff0000;stroke-dasharray:5.55,2.4;stroke-dashoffset:0;stroke-width:1.5;"/>
   </g>
   <g id="patch_3">
    <path d="M 45 315 
L 45 43.2 
" style="fill:none;stroke:#000000;stroke-linecap:square;stroke-linejoin:miter;stroke-width:0.8;"/>
   </g>
   <g id="patch_4">
    <path d="M 324 315 
L 324 43.2 
" style="fill:none;stroke:#000000;stroke-linecap:square;stroke-linejoin:miter;stroke-width:0.8;"/>
   </g>
   <g id="patch_5">
    <path d="M 45 315 
L 324 315 
" style="fill:none;stroke:#000000;stroke-linecap:square;stroke-linejoin:miter;stroke-width:0.8;"/>
   </g>
   <g id="patch_6">
    <path d="M 45 43.2 
L 324 43.2 
" style="fill:none;stroke:#000000;stroke-linecap:square;stroke-linejoin:miter;stroke-width:0.8;"/>
   </g>
   <g id="text_14">
    <!-- CDF of 1/CLB -->
    <defs>
     <path d="M 9.8125 72.90625 
L 51.703125 72.90625 
L 51.703125 64.59375 
L 19.671875 64.59375 
L 19.671875 43.109375 
L 48.578125 43.109375 
L 48.578125 34.8125 
L 19.671875 34.8125 
L 19.671875 0 
L 9.8125 0 
z
" id="DejaVuSans-70"/>
    </defs>
    <g transform="translate(145.154063 37.2)scale(0.12 -0.12)">
     <use xlink:href="#DejaVuSans-67"/>
     <use x="69.824219" xlink:href="#DejaVuSans-68"/>
     <use x="146.826172" xlink:href="#DejaVuSans-70"/>
     <use x="204.345703" xlink:href="#DejaVuSans-32"/>
     <use x="236.132812" xlink:href="#DejaVuSans-111"/>
     <use x="297.314453" xlink:href="#DejaVuSans-102"/>
     <use x="332.519531" xlink:href="#DejaVuSans-32"/>
     <use x="364.306641" xlink:href="#DejaVuSans-49"/>
     <use x="427.929688" xlink:href="#DejaVuSans-47"/>
     <use x="461.621094" xlink:href="#DejaVuSans-67"/>
     <use x="531.445312" xlink:href="#DejaVuSans-76"/>
     <use x="587.158203" xlink:href="#DejaVuSans-66"/>
    </g>
   </g>
  </g>
 </g>
 <defs>
  <clipPath id="pd05e104d75">
   <rect height="271.8" width="279" x="45" y="43.2"/>
  </clipPath>
 </defs>
</svg>
